<?xml version="1.0" encoding="UTF-8"?>
<svg width="24px" height="24px" viewBox="0 0 24 24" version="1.1" xmlns="http://www.w3.org/2000/svg" xmlns:xlink="http://www.w3.org/1999/xlink">
    <!-- Generator: Sketch 58 (84663) - https://sketch.com -->
    <title>addres</title>
    <desc>Created with Sketch.</desc>
    <g id="addres" stroke="none" stroke-width="1" fill="none" fill-rule="evenodd">
        <g id="home-(2)" transform="translate(1.000000, 2.000000)" fill="#084A64" fill-rule="nonzero">
            <path d="M7,7.54795362 C7,9.41413029 10.5561944,13.6875405 10.709149,13.8697546 C10.7777778,13.9515121 10.8859229,14 11.0010039,14 C11.1159936,14 11.2243212,13.9515121 11.2930413,13.8697546 C11.4436231,13.6875405 15,9.41413029 15,7.54795362 C15,5.58844386 13.2090805,4 10.9999087,4 C8.79073693,4 7,5.58844386 7,7.54795362 Z M14.2726443,7.54795362 C14.2726443,8.80167723 12.1273557,11.7256832 10.9999087,13.1277037 C9.87255305,11.7264117 7.72735568,8.80264861 7.72735568,7.54795362 C7.72735568,5.94469628 9.19237963,4.64507511 10.9999087,4.64507511 C12.8074378,4.64507511 14.2726443,5.94469628 14.2726443,7.54795362 Z" id="Shape"></path>
            <path d="M9,7.99995816 C9,9.10434402 9.89538629,10 11,10 C12.1045301,10 13,9.10434402 13,7.99995816 C13,6.89515404 12.1045301,6 11,6 C9.8959719,6.00100391 9.00117122,6.89573966 9,7.99995816 Z M12,8 C12,8.55220229 11.552251,9 10.9999686,9 C10.4478118,9 10,8.55220229 10,8 C10,7.44773497 10.4478118,7 10.9999686,7 C11.552251,7 12,7.44773497 12,8 Z" id="Shape"></path>
            <path d="M21.8421001,6.7227172 L11.1970687,0.0559668716 C11.0776467,-0.0186556239 10.9223358,-0.0186556239 10.8030028,0.0559668716 L0.157971481,6.7227172 C0.0279520008,6.80419962 -0.0300224114,6.95612165 0.0152172354,7.09666626 C0.0606349797,7.23721087 0.198491226,7.33324966 0.354959841,7.33324966 L3.19365865,7.33324966 L3.19365865,19.0000418 C3.19365865,19.5521814 3.67018885,20 4.25803711,20 L17.7419454,20 C18.3297936,20 18.8064129,19.5521814 18.8064129,19.0000418 L18.8064129,7.33324966 L21.6450226,7.33324966 C21.8015803,7.33324966 21.9394365,7.23721087 21.9846762,7.09666626 C22.0300939,6.95612165 21.9722086,6.80419962 21.8421001,6.7227172 Z M18.4516201,6.666583 C18.2557003,6.666583 18.0967382,6.81591165 18.0967382,7.00004183 L18.0967382,19.0000418 C18.0967382,19.1840047 17.9378651,19.3332497 17.7419454,19.3332497 L4.25803711,19.3332497 C4.06211738,19.3332497 3.90324429,19.1840047 3.90324429,19.0000418 L3.90324429,7.00004183 C3.90324429,6.81591165 3.74428213,6.666583 3.54845147,6.666583 L1.52584742,6.666583 L10.9999912,0.733509019 L20.4742241,6.666583 L18.4516201,6.666583 Z" id="Shape"></path>
            <polygon id="Path" points="11 15 12 15 12 16 11 16"></polygon>
            <polygon id="Path" points="13 15 14 15 14 16 13 16"></polygon>
            <polygon id="Path" points="9 15 10 15 10 16 9 16"></polygon>
        </g>
    </g>
</svg>