<?xml version="1.0" encoding="UTF-8"?>
<svg width="8px" height="14px" viewBox="0 0 8 14" version="1.1" xmlns="http://www.w3.org/2000/svg" xmlns:xlink="http://www.w3.org/1999/xlink">
    <!-- Generator: Sketch 55 (78076) - https://sketchapp.com -->
    <title>angle</title>
    <desc>Created with Sketch.</desc>
    <g id="Page-1" stroke="none" stroke-width="1" fill="none" fill-rule="evenodd">
        <g id="Home" transform="translate(-34.000000, -412.000000)" fill="#084A64">
            <g id="angle" transform="translate(34.000000, 412.000000)">
                <path d="M7.81583333,1.53334146 C7.90633333,1.44063415 7.9515,1.33392683 7.9515,1.21339024 C7.9515,1.09285366 7.90633333,0.986146341 7.81583333,0.893609756 L7.13683333,0.19804878 C7.04633333,0.105341463 6.94216667,0.058902439 6.82466667,0.058902439 C6.707,0.058902439 6.60283333,0.105341463 6.51233333,0.19804878 L0.1845,6.68004878 C0.094,6.7727561 0.0488333333,6.87946341 0.0488333333,7 C0.0488333333,7.12053659 0.094,7.2272439 0.1845,7.31995122 L6.51216667,13.8019512 C6.60266667,13.8948293 6.70683333,13.9410976 6.8245,13.9410976 C6.942,13.9410976 7.04616667,13.8948293 7.13666667,13.8019512 L7.81566667,13.1067317 C7.90616667,13.0140244 7.95133333,12.9073171 7.95133333,12.7866098 C7.95133333,12.6662439 7.90616667,12.5595366 7.81566667,12.4668293 L2.47916667,7 L7.81583333,1.53334146 Z" id="Shape"></path>
            </g>
        </g>
    </g>
</svg>