<?xml version="1.0" encoding="UTF-8"?>
<svg width="34px" height="34px" viewBox="0 0 34 34" version="1.1" xmlns="http://www.w3.org/2000/svg" xmlns:xlink="http://www.w3.org/1999/xlink">
    <!-- Generator: Sketch 55 (78076) - https://sketchapp.com -->
    <title>calendar (2)</title>
    <desc>Created with Sketch.</desc>
    <g id="Page-1" stroke="none" stroke-width="1" fill="none" fill-rule="evenodd">
        <g id="Home" transform="translate(-288.000000, -291.000000)" fill-rule="nonzero">
            <g id="Group-5" transform="translate(273.000000, 279.000000)">
                <g id="calendar-(2)" transform="translate(15.000000, 12.000000)">
                    <path d="M25.1476897,2.63793103 C24.8751034,1.30196552 23.6915517,0.293103448 22.2758621,0.293103448 C21.9522759,0.293103448 21.6896552,0.555137931 21.6896552,0.879310345 C21.6896552,1.20348276 21.9522759,1.46551724 22.2758621,1.46551724 C23.2454483,1.46551724 24.0344828,2.25455172 24.0344828,3.22413793 C24.0344828,4.19372414 23.2454483,4.98275862 22.2758621,4.98275862 C21.9522759,4.98275862 21.6896552,5.2447931 21.6896552,5.56896552 C21.6896552,5.89313793 21.9522759,6.15517241 22.2758621,6.15517241 C23.6909655,6.15517241 24.8751034,5.14631034 25.1476897,3.81034483 L32.8275862,3.81034483 L32.8275862,9.0862069 L1.17241379,9.0862069 L1.17241379,3.81034483 L9.37931034,3.81034483 L11.137931,3.81034483 C11.4615172,3.81034483 11.7241379,3.54831034 11.7241379,3.22413793 C11.7241379,2.89996552 11.4615172,2.63793103 11.137931,2.63793103 L10.0733793,2.63793103 C10.316069,1.95675862 10.9608966,1.46551724 11.7241379,1.46551724 C12.6937241,1.46551724 13.4827586,2.25455172 13.4827586,3.22413793 C13.4827586,4.19372414 12.6937241,4.98275862 11.7241379,4.98275862 C11.4005517,4.98275862 11.137931,5.2447931 11.137931,5.56896552 C11.137931,5.89313793 11.4005517,6.15517241 11.7241379,6.15517241 C13.3403103,6.15517241 14.6551724,4.84031034 14.6551724,3.22413793 C14.6551724,1.60796552 13.3403103,0.293103448 11.7241379,0.293103448 C10.3090345,0.293103448 9.12489655,1.30196552 8.85231034,2.63793103 L0,2.63793103 L0,10.2586207 L0,33.7068966 L34,33.7068966 L34,10.2586207 L34,2.63793103 L25.1476897,2.63793103 Z M32.8275862,32.5344828 L1.17241379,32.5344828 L1.17241379,10.2586207 L32.8275862,10.2586207 L32.8275862,32.5344828 Z" id="Shape" fill="#012C3D"></path>
                    <path d="M15.2413793,1.46551724 C16.2109655,1.46551724 17,2.25455172 17,3.22413793 C17,4.19372414 16.2109655,4.98275862 15.2413793,4.98275862 C14.9177931,4.98275862 14.6551724,5.2447931 14.6551724,5.56896552 C14.6551724,5.89313793 14.9177931,6.15517241 15.2413793,6.15517241 C16.8575517,6.15517241 18.1724138,4.84031034 18.1724138,3.22413793 C18.1724138,1.60796552 16.8575517,0.293103448 15.2413793,0.293103448 C14.9177931,0.293103448 14.6551724,0.555137931 14.6551724,0.879310345 C14.6551724,1.20348276 14.9177931,1.46551724 15.2413793,1.46551724 Z" id="Path" fill="#012C3D"></path>
                    <path d="M18.7586207,1.46551724 C19.7282069,1.46551724 20.5172414,2.25455172 20.5172414,3.22413793 C20.5172414,4.19372414 19.7282069,4.98275862 18.7586207,4.98275862 C18.4350345,4.98275862 18.1724138,5.2447931 18.1724138,5.56896552 C18.1724138,5.89313793 18.4350345,6.15517241 18.7586207,6.15517241 C20.3747931,6.15517241 21.6896552,4.84031034 21.6896552,3.22413793 C21.6896552,1.60796552 20.3747931,0.293103448 18.7586207,0.293103448 C18.4350345,0.293103448 18.1724138,0.555137931 18.1724138,0.879310345 C18.1724138,1.20348276 18.4350345,1.46551724 18.7586207,1.46551724 Z" id="Path" fill="#012C3D"></path>
                    <path d="M5.27586207,14.9482759 L18.1724138,14.9482759 C18.496,14.9482759 18.7586207,14.6862414 18.7586207,14.362069 C18.7586207,14.0378966 18.496,13.7758621 18.1724138,13.7758621 L5.27586207,13.7758621 C4.95227586,13.7758621 4.68965517,14.0378966 4.68965517,14.362069 C4.68965517,14.6862414 4.95227586,14.9482759 5.27586207,14.9482759 Z" id="Path" fill="#012C3D"></path>
                    <path d="M28.7241379,23.1551724 L19.9310345,23.1551724 C19.6074483,23.1551724 19.3448276,23.4172069 19.3448276,23.7413793 C19.3448276,24.0655517 19.6074483,24.3275862 19.9310345,24.3275862 L28.7241379,24.3275862 C29.0477241,24.3275862 29.3103448,24.0655517 29.3103448,23.7413793 C29.3103448,23.4172069 29.0477241,23.1551724 28.7241379,23.1551724 Z" id="Path" fill="#09B958"></path>
                    <path d="M5.27586207,19.637931 L11.137931,19.637931 C11.4615172,19.637931 11.7241379,19.3758966 11.7241379,19.0517241 C11.7241379,18.7275517 11.4615172,18.4655172 11.137931,18.4655172 L5.27586207,18.4655172 C4.95227586,18.4655172 4.68965517,18.7275517 4.68965517,19.0517241 C4.68965517,19.3758966 4.95227586,19.637931 5.27586207,19.637931 Z" id="Path" fill="#09B958"></path>
                    <path d="M28.7241379,27.8448276 L22.862069,27.8448276 C22.5384828,27.8448276 22.2758621,28.1068621 22.2758621,28.4310345 C22.2758621,28.7552069 22.5384828,29.0172414 22.862069,29.0172414 L28.7241379,29.0172414 C29.0477241,29.0172414 29.3103448,28.7552069 29.3103448,28.4310345 C29.3103448,28.1068621 29.0477241,27.8448276 28.7241379,27.8448276 Z" id="Path" fill="#012C3D"></path>
                    <path d="M16.4137931,19.0517241 C16.4137931,19.3758966 16.6764138,19.637931 17,19.637931 L25.7931034,19.637931 C26.1166897,19.637931 26.3793103,19.3758966 26.3793103,19.0517241 C26.3793103,18.7275517 26.1166897,18.4655172 25.7931034,18.4655172 L17,18.4655172 C16.6764138,18.4655172 16.4137931,18.7275517 16.4137931,19.0517241 Z" id="Path" fill="#09B958"></path>
                    <path d="M14.4851724,19.467931 C14.5906897,19.3565517 14.6551724,19.2041379 14.6551724,19.0517241 C14.6551724,18.8987241 14.5906897,18.7463103 14.4851724,18.6355172 C14.2682759,18.4186207 13.8696552,18.4186207 13.6527586,18.6355172 C13.5472414,18.7463103 13.4827586,18.8987241 13.4827586,19.0517241 C13.4827586,19.2041379 13.5472414,19.3565517 13.6527586,19.467931 C13.7641379,19.5787241 13.9165517,19.637931 14.0689655,19.637931 C14.2213793,19.637931 14.3737931,19.5787241 14.4851724,19.467931 Z" id="Path" fill="#012C3D"></path>
                    <path d="M7.62068966,23.7413793 C7.62068966,24.0655517 7.88331034,24.3275862 8.20689655,24.3275862 L17,24.3275862 C17.3235862,24.3275862 17.5862069,24.0655517 17.5862069,23.7413793 C17.5862069,23.4172069 17.3235862,23.1551724 17,23.1551724 L8.20689655,23.1551724 C7.88331034,23.1551724 7.62068966,23.4172069 7.62068966,23.7413793 Z" id="Path" fill="#012C3D"></path>
                    <path d="M5.27586207,24.3275862 C5.42827586,24.3275862 5.58068966,24.2631034 5.69206897,24.1575862 C5.79758621,24.0462069 5.86206897,23.8937931 5.86206897,23.7413793 C5.86206897,23.5883793 5.79758621,23.4359655 5.69206897,23.3310345 C5.47517241,23.1082759 5.07655172,23.1082759 4.85965517,23.3251724 C4.75413793,23.4359655 4.68965517,23.5883793 4.68965517,23.7413793 C4.68965517,23.8937931 4.75413793,24.0462069 4.85965517,24.1575862 C4.97103448,24.2631034 5.11758621,24.3275862 5.27586207,24.3275862 Z" id="Path" fill="#09B958"></path>
                    <path d="M28.7241379,19.637931 C28.8765517,19.637931 29.0289655,19.5787241 29.1403448,19.467931 C29.2517241,19.3565517 29.3103448,19.2041379 29.3103448,19.0517241 C29.3103448,18.8987241 29.2517241,18.7463103 29.1403448,18.6355172 C28.9175862,18.4186207 28.5248276,18.4186207 28.307931,18.6355172 C28.2024138,18.7463103 28.137931,18.8987241 28.137931,19.0517241 C28.137931,19.2041379 28.2024138,19.3565517 28.307931,19.467931 C28.4193103,19.5787241 28.5717241,19.637931 28.7241379,19.637931 Z" id="Path" fill="#09B958"></path>
                    <path d="M19.9310345,27.8448276 L5.27586207,27.8448276 C4.95227586,27.8448276 4.68965517,28.1068621 4.68965517,28.4310345 C4.68965517,28.7552069 4.95227586,29.0172414 5.27586207,29.0172414 L19.9310345,29.0172414 C20.2546207,29.0172414 20.5172414,28.7552069 20.5172414,28.4310345 C20.5172414,28.1068621 20.2546207,27.8448276 19.9310345,27.8448276 Z" id="Path" fill="#09B958"></path>
                </g>
            </g>
        </g>
    </g>
</svg>