<?xml version="1.0" encoding="UTF-8"?>
<svg width="22px" height="22px" viewBox="0 0 22 22" version="1.1" xmlns="http://www.w3.org/2000/svg" xmlns:xlink="http://www.w3.org/1999/xlink">
    <!-- Generator: Sketch 55 (78076) - https://sketchapp.com -->
    <title>close (2)</title>
    <desc>Created with Sketch.</desc>
    <g id="Page-1" stroke="none" stroke-width="1" fill="none" fill-rule="evenodd">
        <g id="Home" transform="translate(-27.000000, -36.000000)" fill="#FFFFFF" fill-rule="nonzero">
            <g id="close-(2)" transform="translate(27.000000, 36.000000)">
                <path d="M21.6370902,0.259797271 C21.2916703,-0.0865847953 20.7316513,-0.0865847953 20.3862314,0.259797271 L0.259075612,20.4429747 C-0.086344282,20.7893567 -0.086344282,21.3509357 0.259075612,21.6973177 C0.431764176,21.8705731 0.658166667,21.957115 0.884526392,21.957115 C1.11088612,21.957115 1.33724584,21.8705302 1.50997717,21.6972749 L21.6370902,1.51409747 C21.9824673,1.16775828 21.9824673,0.606179337 21.6370902,0.259797271 Z" id="Path"></path>
                <path d="M21.6370474,20.4430175 L1.50989164,0.259840156 C1.16451451,-0.0865419103 0.60445274,-0.0865419103 0.259075612,0.259840156 C-0.086344282,0.606179337 -0.086344282,1.16775828 0.259075612,1.51414035 L20.3862314,21.6973606 C20.5589199,21.8705731 20.7853224,21.9571579 21.0116822,21.9571579 C21.2380419,21.9571579 21.4644444,21.8705731 21.6370902,21.6974035 C21.9824245,21.3509786 21.9824245,20.7893996 21.6370474,20.4430175 Z" id="Path"></path>
            </g>
        </g>
    </g>
</svg>