<?xml version="1.0" encoding="UTF-8"?>
<svg width="28px" height="34px" viewBox="0 0 28 34" version="1.1" xmlns="http://www.w3.org/2000/svg" xmlns:xlink="http://www.w3.org/1999/xlink">
    <!-- Generator: Sketch 55 (78076) - https://sketchapp.com -->
    <title>conference</title>
    <desc>Created with Sketch.</desc>
    <g id="Page-1" stroke="none" stroke-width="1" fill="none" fill-rule="evenodd">
        <g id="Home" transform="translate(-125.000000, -292.000000)" fill-rule="nonzero">
            <g id="Group-3" transform="translate(109.000000, 279.000000)">
                <g id="conference" transform="translate(16.000000, 13.000000)">
                    <path d="M8.10355469,10.6103906 L8.548875,10.6103906 C9.14951953,13.0318945 11.3406602,14.8325 13.9453125,14.8325 C14.67525,14.8325 15.3851992,14.6930469 16.0554375,14.4180586 C16.7025664,14.1525 17.2876055,13.7714609 17.7942852,13.2854336 C17.9927734,13.0949805 17.9994141,12.77975 17.8089609,12.5812617 C17.6185742,12.3827734 17.3032109,12.3761992 17.1047891,12.5665859 C16.6885547,12.9657539 16.2083711,13.2786602 15.6773867,13.4965391 C15.1276758,13.7220547 14.5448945,13.8364062 13.9453125,13.8364062 C11.4286484,13.8364062 9.38121094,11.7889687 9.38121094,9.27230469 L9.38121094,7.30070312 C10.3453633,7.2303125 11.1628906,6.58842969 11.4560742,5.65562109 C12.6080234,6.72270312 14.0971172,7.30741016 15.6760586,7.30741016 L18.5094805,7.30741016 L18.5094805,9.27230469 C18.5094805,9.9035625 18.3835078,10.5137695 18.1349492,11.0860586 C18.0253789,11.3383359 18.1410586,11.6317187 18.3934023,11.7412891 C18.4580156,11.7693125 18.5252852,11.7826602 18.5914922,11.7826602 C18.7838047,11.7826602 18.9670859,11.6705664 19.0485664,11.4829023 C19.17175,11.1992148 19.2689688,10.9077578 19.3425469,10.610457 L19.7871367,10.610457 C20.2361758,10.610457 20.658918,10.4354766 20.978,10.1173242 C21.2960859,9.79930469 21.4712656,9.37636328 21.4712656,8.92639453 C21.4712656,7.99783594 20.7157617,7.24233203 19.7872031,7.24233203 L19.505707,7.24233203 L19.505707,6.80936328 C19.505707,6.8085 19.5055742,6.80763672 19.5055742,6.80677344 L19.5055742,4.89606641 C19.5054414,2.19638672 17.3089883,0 14.6093086,0 L13.28125,0 C10.5815703,0 8.38518359,2.19638672 8.38518359,4.89606641 L8.38518359,6.80670703 C8.38518359,6.80757031 8.38505078,6.80843359 8.38505078,6.80929687 L8.38505078,7.24226562 L8.10355469,7.24226562 C7.17499609,7.24226562 6.41949219,7.99770313 6.41949219,8.92632812 C6.41949219,9.37629688 6.59467188,9.79923828 6.91322266,10.1177227 C7.23177344,10.4354102 7.65458203,10.6103906 8.10355469,10.6103906 Z M19.7870703,8.23835938 C20.1664492,8.23835938 20.4750391,8.54694922 20.4750391,8.92632813 C20.4750391,9.11020703 20.4035195,9.28299609 20.2740938,9.41235547 C20.1434727,9.54257813 19.9705508,9.61429688 19.7870703,9.61429688 L19.4942188,9.61429688 C19.5010586,9.50080859 19.5055742,9.38692188 19.5055742,9.27230469 L19.5055742,8.23835938 L19.7870703,8.23835938 Z M9.38127734,4.89606641 C9.38127734,2.74563281 11.1308164,0.99609375 13.28125,0.99609375 L14.6093086,0.99609375 C16.7598086,0.99609375 18.5092813,2.74563281 18.5092813,4.89606641 L18.5092813,6.31131641 L15.6759922,6.31131641 C14.2817266,6.31131641 12.9708672,5.7683125 11.9849336,4.78244531 L11.5692305,4.36674219 C11.4746016,4.27217969 11.3475,4.22084766 11.2170117,4.22084766 C11.1764375,4.22084766 11.1354648,4.22582812 11.0952227,4.23598828 C10.9251563,4.27888672 10.7902852,4.40798047 10.7398828,4.57592187 L10.5114453,5.33839844 C10.3542617,5.86294141 9.91199609,6.23229297 9.38127734,6.30009375 L9.38127734,4.89606641 Z M8.10355469,8.23835938 L8.38505078,8.23835938 L8.38505078,9.27230469 C8.38505078,9.38725391 8.38969922,9.50107422 8.39660547,9.61429688 L8.10355469,9.61429688 C7.92007422,9.61429688 7.74715234,9.54257813 7.61699609,9.41282031 C7.48710547,9.28292969 7.41558594,9.11014063 7.41558594,8.92632813 C7.41558594,8.54701563 7.72417578,8.23835938 8.10355469,8.23835938 Z" id="Shape" fill="#012C3D"></path>
                    <path d="M13.9453125,8.11265234 C13.6701914,8.11265234 13.4472656,8.33564453 13.4472656,8.61069922 L13.4472656,10.5585938 C13.4472656,10.8336484 13.6701914,11.0566406 13.9453125,11.0566406 L14.9856992,11.0566406 C15.2608203,11.0566406 15.4837461,10.8336484 15.4837461,10.5585938 C15.4837461,10.2835391 15.2608203,10.0605469 14.9856992,10.0605469 L14.4433594,10.0605469 L14.4433594,8.61069922 C14.4433594,8.33557813 14.2204336,8.11265234 13.9453125,8.11265234 Z" id="Path" fill="#012C3D"></path>
                    <path d="M26.8783281,20.9766719 L21.1278125,20.9766719 L21.1278125,20.8528906 C21.1278125,18.7197227 19.8524805,16.8801367 18.0249805,16.0529805 C18.0156836,16.0481328 18.0065195,16.0430195 17.9968242,16.0387695 C17.9843398,16.0331914 17.9715234,16.0286094 17.9589727,16.0231641 C17.9073086,16.0006523 17.8550469,15.9794023 17.8025195,15.9584844 C17.7730352,15.9467305 17.7436172,15.9347109 17.714,15.9234883 C17.6591484,15.9027695 17.6035664,15.8836445 17.547918,15.8647187 C17.5184336,15.8546914 17.489082,15.8441992 17.4594648,15.8347031 C17.4061406,15.8177031 17.3520859,15.8022969 17.2980312,15.786957 C17.2651602,15.7775938 17.2324219,15.7675664 17.1993516,15.7588672 C17.1498125,15.7458516 17.0996094,15.7345625 17.0495391,15.7229414 C17.0118203,15.7141758 16.974168,15.7046133 16.93625,15.6967109 C16.8908281,15.6872812 16.8448086,15.6796445 16.7989219,15.6713438 C16.7562891,15.6636406 16.7138555,15.6550742 16.670957,15.6484336 C16.6275937,15.6417266 16.5836328,15.6369453 16.5399375,15.6313008 C16.4946484,15.625457 16.4494922,15.6186172 16.4039375,15.6139687 C16.3549961,15.6089219 16.305457,15.6061328 16.2561172,15.6024805 C16.215543,15.5994922 16.175168,15.5953086 16.1344609,15.5931836 C16.044082,15.5885352 15.9531719,15.5861445 15.8616641,15.5861445 L15.6212734,15.5861445 L12.2690859,15.5861445 L12.0286953,15.5861445 C11.9371875,15.5861445 11.8462773,15.5885352 11.7558984,15.5931836 C11.7151914,15.5952422 11.6748164,15.5994258 11.6342422,15.6024805 C11.5849023,15.6061328 11.5353633,15.6089883 11.4864219,15.6139687 C11.4408672,15.6186172 11.3957109,15.625457 11.3504219,15.6313008 C11.3067266,15.6369453 11.2627656,15.6417266 11.2194023,15.6484336 C11.1765703,15.6550742 11.1340703,15.6636406 11.0914375,15.6713438 C11.0456172,15.6796445 10.9995312,15.6872148 10.9541094,15.6967109 C10.9161914,15.7046133 10.8786055,15.7141758 10.8408203,15.7229414 C10.79075,15.7345625 10.7405469,15.7457852 10.6910078,15.7588672 C10.6579375,15.7675664 10.6252656,15.7775938 10.5923281,15.786957 C10.5382734,15.8022969 10.4842188,15.8177031 10.4308945,15.8347031 C10.4012773,15.8441992 10.3719258,15.8546914 10.3424414,15.8647187 C10.2867266,15.8835781 10.2312109,15.9027695 10.1763594,15.9234883 C10.1467422,15.9346445 10.1173242,15.9467305 10.0878398,15.9584844 C10.0353789,15.9794023 9.98305078,16.0005859 9.93138672,16.0231641 C9.91883594,16.0286094 9.90608594,16.0332578 9.89353516,16.0387695 C9.88383984,16.0430195 9.87474219,16.0481328 9.86537891,16.0529805 C8.03787891,16.8800703 6.76254688,18.7197227 6.76254688,20.8528906 L6.76254688,20.9766719 L3.71084766,20.9766719 L3.71084766,17.5721562 C3.71084766,17.3955156 3.805875,17.2309609 3.95880859,17.1426406 L5.238125,16.4040703 C5.56716797,16.7159805 6.00305859,16.8857812 6.44798047,16.8857812 C6.74534766,16.8857812 7.0465,16.8102109 7.32195313,16.651168 L8.71774609,15.8453281 C9.55526172,15.3617578 9.84326563,14.2869727 9.35976172,13.4493906 C8.876125,12.6118086 7.80114063,12.3240039 6.96382422,12.8074414 L5.56836328,13.6132812 C4.88066016,14.0103906 4.56390234,14.8060039 4.74014453,15.5415859 L3.46109375,16.2800234 C3.00089844,16.5457148 2.71508594,17.0408398 2.71508594,17.5721562 L2.71508594,20.9766719 L1.01229687,20.9766719 C0.483902344,20.9766719 0.0540546875,21.4065195 0.0540546875,21.9349141 L0.0540546875,23.7507266 C0.0540546875,24.2791211 0.483902344,24.7089687 1.01229687,24.7089687 L2.41924609,24.7089687 L2.41924609,26.3848633 C2.41924609,26.9527695 2.88130078,27.4148242 3.44920703,27.4148242 L3.51873437,27.4148242 C4.84944922,27.4148242 5.93213672,28.4975117 5.93213672,29.8282266 L5.93213672,29.9189375 C5.93213672,30.1939922 6.1550625,30.4169844 6.43018359,30.4169844 C6.70530469,30.4169844 6.92823047,30.1939922 6.92823047,29.9189375 L6.92823047,29.8282266 C6.92823047,27.9481992 5.39876172,26.4187305 3.51873437,26.4187305 L3.44914062,26.4187305 C3.43048047,26.4187305 3.41527344,26.4035234 3.41527344,26.3848633 L3.41527344,24.7089687 L19.6339375,24.7089687 C19.9090586,24.7089687 20.1319844,24.4859766 20.1319844,24.2109219 C20.1319844,23.9358672 19.9090586,23.712875 19.6339375,23.712875 L1.05014844,23.712875 L1.05014844,21.972832 L26.8404102,21.972832 L26.8404102,23.712875 L21.626125,23.712875 C21.3510039,23.712875 21.1280781,23.9358672 21.1280781,24.2109219 C21.1280781,24.4859766 21.3510039,24.7089687 21.626125,24.7089687 L24.4752187,24.7089687 L24.4752187,26.3848633 C24.4752187,26.4035234 24.4600117,26.4187305 24.4413516,26.4187305 L24.3718242,26.4187305 C22.4917969,26.4187305 20.9623281,27.9482656 20.9623281,29.8282266 L20.9623281,33.0039062 L17.5449961,33.0039062 L17.5449961,30.0988984 C17.5449961,29.8238437 17.3220703,29.6008516 17.0469492,29.6008516 C16.7718281,29.6008516 16.5489023,29.8238437 16.5489023,30.0988984 L16.5489023,33.0039062 L14.4433594,33.0039062 L14.4433594,28.9903125 C14.4433594,28.7152578 14.2204336,28.4922656 13.9453125,28.4922656 C13.6701914,28.4922656 13.4472656,28.7152578 13.4472656,28.9903125 L13.4472656,33.0039062 L11.3415898,33.0039062 L11.3415898,30.0988984 C11.3415898,29.8238437 11.1186641,29.6008516 10.843543,29.6008516 C10.5684219,29.6008516 10.3454961,29.8238437 10.3454961,30.0988984 L10.3454961,33.0039062 L6.92816406,33.0039062 L6.92816406,31.911125 C6.92816406,31.6360703 6.70523828,31.4130781 6.43011719,31.4130781 C6.15499609,31.4130781 5.93207031,31.6360703 5.93207031,31.911125 L5.93207031,33.5019531 C5.93207031,33.7770078 6.15499609,34 6.43011719,34 L21.4605078,34 C21.7356289,34 21.9585547,33.7770078 21.9585547,33.5019531 L21.9585547,29.8282266 C21.9585547,28.4974453 23.0412422,27.4148242 24.371957,27.4148242 L24.4414844,27.4148242 C25.0093906,27.4148242 25.4714453,26.9527695 25.4714453,26.3848633 L25.4714453,24.7089687 L26.8783945,24.7089687 C27.4067891,24.7089687 27.8366367,24.2791211 27.8366367,23.7507266 L27.8366367,21.9349141 C27.8365703,21.4065195 27.4067227,20.9766719 26.8783281,20.9766719 Z M6.06641016,14.4759648 L7.46220312,13.670125 C7.58126953,13.6013945 7.71135937,13.5687891 7.83985547,13.5687891 C8.10196094,13.5687891 8.35729297,13.7047227 8.49747656,13.9475039 C8.70639062,14.309418 8.58187891,14.7737969 8.22003125,14.9827773 L6.82423828,15.7886172 C6.46232422,15.9975313 5.99801172,15.8730859 5.78903125,15.5112383 C5.58005078,15.1492578 5.70449609,14.6848789 6.06641016,14.4759648 Z M20.1317188,20.8528906 L20.1317188,20.9766719 L16.0984023,20.9766719 L18.0140234,17.1667461 C19.2795273,17.9087695 20.1317188,19.2827812 20.1317188,20.8528906 Z M15.1056953,17.9241758 C15.5899297,17.6203008 15.9304609,17.1407148 16.060418,16.587418 C16.0775508,16.5882148 16.0946172,16.5892109 16.1116836,16.590207 C16.1644766,16.5932617 16.2170703,16.5972461 16.269332,16.6022266 C16.2829453,16.6034883 16.296625,16.6045508 16.3102383,16.6060117 C16.375582,16.6128516 16.4405273,16.6210859 16.5049414,16.6308477 C16.5139727,16.6322422 16.5230039,16.6339688 16.5320352,16.6353633 C16.5868867,16.6440625 16.6413398,16.6538906 16.6953945,16.6646484 C16.7128594,16.6681016 16.7303242,16.6716875 16.7477227,16.6754063 C16.7975273,16.6859648 16.847,16.6974531 16.8961406,16.7097383 C16.9100859,16.7131914 16.9240977,16.7163125 16.9379766,16.7199648 C16.9926289,16.7342422 17.0466836,16.7499141 17.1004727,16.76625 L15.4124258,20.1234844 L15.1056953,17.9241758 Z M15.0141875,16.5823047 C14.890207,16.8495898 14.6672812,17.0656094 14.3794766,17.1800273 C14.1662461,17.2648281 14.0385469,17.4843672 14.0702891,17.7116758 L14.5258359,20.9766719 L13.3647891,20.9766719 L13.8203359,17.7116758 C13.8520781,17.4843672 13.7243789,17.2648281 13.5111484,17.1800273 C13.2233437,17.0656094 13.0004844,16.8495898 12.8764375,16.5823047 L15.0141875,16.5823047 Z M10.952582,16.7198984 C10.9664609,16.7162461 10.9804727,16.713125 10.994418,16.7096719 C11.0435586,16.6973867 11.0930312,16.6858984 11.1428359,16.6753398 C11.1602344,16.6716211 11.1776992,16.6680352 11.1951641,16.664582 C11.2492852,16.6538242 11.3037383,16.6439961 11.3585234,16.6352969 C11.3675547,16.6338359 11.3765859,16.6321094 11.3856172,16.6307813 C11.4500312,16.6210195 11.5149766,16.6127852 11.5803203,16.6059453 C11.5939336,16.6045508 11.6076133,16.6034883 11.6212266,16.6021602 C11.6734883,16.5971797 11.7260156,16.5931953 11.778875,16.5901406 C11.7959414,16.5891445 11.8130078,16.588082 11.8301406,16.5873516 C11.9601641,17.1406484 12.3006953,17.6202344 12.7848633,17.9241094 L12.478,20.1233516 L10.7899531,16.7661172 C10.843875,16.7498477 10.8979297,16.7341758 10.952582,16.7198984 Z M7.75890625,20.8528906 C7.75890625,19.2827812 8.61109766,17.9087695 9.87660156,17.1667461 L11.7922227,20.9766719 L7.75890625,20.9766719 L7.75890625,20.8528906 Z" id="Shape" fill="#012C3D"></path>
                    <path d="M3.71084766,20.9766719 L3.71084766,17.5721562 C3.71084766,17.3955156 3.805875,17.2309609 3.95880859,17.1426406 L5.238125,16.4040703 C5.56716797,16.7159805 6.00305859,16.8857812 6.44798047,16.8857812 C6.74534766,16.8857812 7.0465,16.8102109 7.32195312,16.651168 L8.71774609,15.8453281 C9.55526172,15.3617578 9.84326562,14.2869727 9.35976172,13.4493906 C8.876125,12.6118086 7.80114062,12.3240039 6.96382422,12.8074414 L5.56836328,13.6132812 C4.88066016,14.0103906 4.56390234,14.8060039 4.74014453,15.5415859 L3.46109375,16.2800234 C3.00089844,16.5457148 2.71508594,17.0408398 2.71508594,17.5721562 L2.71508594,20.9766719 L3.71084766,20.9766719 Z M6.06641016,14.4759648 L7.46220313,13.670125 C7.58126953,13.6013945 7.71135938,13.5687891 7.83985547,13.5687891 C8.10196094,13.5687891 8.35729297,13.7047227 8.49747656,13.9475039 C8.70639063,14.309418 8.58187891,14.7737969 8.22003125,14.9827773 L6.82423828,15.7886172 C6.46232422,15.9975313 5.99801172,15.8730859 5.78903125,15.5112383 C5.58005078,15.1492578 5.70449609,14.6848789 6.06641016,14.4759648 Z" id="Shape" fill="#F7444F"></path>
                </g>
            </g>
        </g>
    </g>
</svg>