<?xml version="1.0" encoding="UTF-8"?>
<svg width="24px" height="22px" viewBox="0 0 24 22" version="1.1" xmlns="http://www.w3.org/2000/svg" xmlns:xlink="http://www.w3.org/1999/xlink">
    <!-- Generator: Sketch 55 (78076) - https://sketchapp.com -->
    <title>diagram</title>
    <desc>Created with Sketch.</desc>
    <g id="Page-1" stroke="none" stroke-width="1" fill="none" fill-rule="evenodd">
        <g id="Menu" transform="translate(-31.000000, -356.000000)" fill="#012C3D" fill-rule="nonzero">
            <g id="diagram" transform="translate(31.000000, 356.000000)">
                <path d="M21.2,15.4814815 L21.2,10.5925926 L12.4,10.5925926 L12.4,6.51851852 L15.2,6.51851852 L15.2,0 L8.8,0 L8.8,6.51851852 L11.6,6.51851852 L11.6,10.5925926 L2.8,10.5925926 L2.8,15.4814815 L0,15.4814815 L0,22 L6.4,22 L6.4,15.4814815 L3.6,15.4814815 L3.6,11.4074074 L11.6,11.4074074 L11.6,15.4814815 L8.8,15.4814815 L8.8,22 L15.2,22 L15.2,15.4814815 L12.4,15.4814815 L12.4,11.4074074 L20.4,11.4074074 L20.4,15.4814815 L17.6,15.4814815 L17.6,22 L24,22 L24,15.4814815 L21.2,15.4814815 Z M9.6,0.814814815 L14.4,0.814814815 L14.4,5.7037037 L9.6,5.7037037 L9.6,0.814814815 Z M5.6,21.1851852 L0.8,21.1851852 L0.8,16.2962963 L5.6,16.2962963 L5.6,21.1851852 Z M14.4,21.1851852 L9.6,21.1851852 L9.6,16.2962963 L14.4,16.2962963 L14.4,21.1851852 Z M23.2,21.1851852 L18.4,21.1851852 L18.4,16.2962963 L23.2,16.2962963 L23.2,21.1851852 Z" id="Shape"></path>
            </g>
        </g>
    </g>
</svg>