<?xml version="1.0" encoding="UTF-8"?>
<svg width="40px" height="34px" viewBox="0 0 40 34" version="1.1" xmlns="http://www.w3.org/2000/svg" xmlns:xlink="http://www.w3.org/1999/xlink">
    <!-- Generator: Sketch 55 (78076) - https://sketchapp.com -->
    <title>document</title>
    <desc>Created with Sketch.</desc>
    <g id="Page-1" stroke="none" stroke-width="1" fill="none" fill-rule="evenodd">
        <g id="Home" transform="translate(-35.000000, -292.000000)" fill-rule="nonzero">
            <g id="Group-2" transform="translate(25.000000, 279.000000)">
                <g id="document" transform="translate(10.000000, 13.000000)">
                    <path d="M39.0142273,8.45232273 L24.7428045,0.213195455 C24.4885,0.0659136364 24.1920818,0.0267363636 23.9084136,0.102695455 C23.6245909,0.178809091 23.3875955,0.361095455 23.2417818,0.614859091 L22.2582545,2.31802727 C22.1192409,2.29314545 21.9764409,2.27939091 21.8303955,2.27939091 L12.1271818,2.27939091 C11.8071182,2.27939091 11.5476364,2.53879545 11.5476364,2.85893636 C11.5476364,3.17907727 11.8071182,3.43848182 12.1271818,3.43848182 L21.8303182,3.43848182 C22.5273955,3.43848182 23.0945,4.0052 23.0945,4.70189091 L23.0945,31.5116636 C23.0945,32.2083545 22.5273955,32.77515 21.8303182,32.77515 L4.7175,32.77515 C4.02042273,32.77515 3.45331818,32.2083545 3.45331818,31.5116636 L3.45331818,28.0109 L4.91794545,28.0109 C5.37547727,28.0109 5.74777727,27.6386773 5.74777727,27.1810682 L5.74777727,25.6792727 C5.74777727,25.2217409 5.37555455,24.8495182 4.91794545,24.8495182 L0.829831818,24.8495182 C0.372222727,24.8495955 0,25.2218182 0,25.67935 L0,27.1811455 C0,27.6387545 0.372222727,28.0109773 0.829831818,28.0109773 L2.29422727,28.0109773 L2.29422727,31.5117409 C2.29422727,32.8475545 3.3813,33.9343182 4.7175,33.9343182 L21.8303182,33.9343182 C23.1665182,33.9343182 24.2535909,32.8476318 24.2535909,31.5117409 L24.2535909,21.0126955 L27.9402727,23.1411727 C28.0315318,23.1938727 28.1312136,23.2189091 28.2295045,23.2189091 C28.4297955,23.2189091 28.6246,23.1149773 28.7319318,22.9290591 C28.8919636,22.6518818 28.7969955,22.2974318 28.5198182,22.1374 L24.2535909,19.6743318 L24.2535909,17.8808318 L29.2964091,20.7920818 C29.3877455,20.8447818 29.48735,20.8698182 29.5856409,20.8698182 C29.7859318,20.8698182 29.9807364,20.7658864 30.0880682,20.5799682 C30.2481,20.3027136 30.1531318,19.9482636 29.8759545,19.7883091 L24.2535909,16.5424682 L24.2535909,14.7490455 L30.6525455,18.4437636 C30.7438818,18.4964636 30.8434864,18.5215 30.9418545,18.5215 C31.1420682,18.5215 31.33695,18.4175682 31.4442818,18.23165 C31.6043136,17.9544727 31.5093455,17.6000227 31.2321682,17.4399909 L24.2535909,13.4105273 L24.2535909,11.6171045 L32.0086818,16.0946727 C32.0999409,16.1473727 32.1996227,16.1724091 32.2979136,16.1724091 C32.4982045,16.1724091 32.6930091,16.0684773 32.8003409,15.8825591 C32.9603727,15.6053818 32.8654045,15.2509318 32.5882273,15.0909 L24.2535909,10.2787409 L24.2535909,4.70196818 C24.2535909,3.92808182 23.8883227,3.23842273 23.3215273,2.79456818 L24.2151864,1.24710455 L38.3825227,9.42611364 L26.1138545,30.6755727 C25.8463364,30.5559545 25.5259636,30.6554818 25.3760545,30.9150409 C25.2159455,31.1921409 25.3107591,31.5466682 25.5879364,31.7067773 C25.7602545,31.8063818 25.9487227,31.8536727 26.1350273,31.8536727 C26.5148227,31.8535955 26.8851136,31.6567045 27.0891136,31.30465 L39.41705,9.95234091 C39.7181045,9.42843182 39.53775,8.75577273 39.0142273,8.45232273 Z M1.15909091,26.0086864 L4.58868636,26.0086864 L4.58868636,26.8518864 L1.15909091,26.8518864 L1.15909091,26.0086864 Z" id="Shape" fill="#012C3D"></path>
                    <path d="M33.3010682,9.20874545 L26.9439955,5.53852273 C26.6667409,5.37849091 26.3123682,5.47338182 26.1523364,5.75063636 C25.9923045,6.02781364 26.0872727,6.38226364 26.36445,6.54229545 L32.7215227,10.2125182 C32.8127818,10.2652182 32.9124636,10.2902545 33.0107545,10.2902545 C33.2110455,10.2902545 33.40585,10.1863227 33.5131818,10.0004045 C33.6732136,9.72322727 33.5782455,9.36877727 33.3010682,9.20874545 Z" id="Path" fill="#77BDC4"></path>
                    <path d="M0.829831818,9.07228182 L2.29422727,9.07228182 L2.29422727,13.3681045 C2.29422727,13.6882455 2.55370909,13.94765 2.87377273,13.94765 C3.19383636,13.94765 3.45331818,13.6882455 3.45331818,13.3681045 L3.45331818,9.07228182 L4.91794545,9.07228182 C5.37547727,9.07228182 5.74777727,8.70005909 5.74777727,8.24245 L5.74777727,6.74065455 C5.74777727,6.28304545 5.37555455,5.91082273 4.91794545,5.91082273 L3.45331818,5.91082273 L3.45331818,4.70189091 C3.45331818,4.0052 4.02042273,3.43848182 4.7175,3.43848182 L9.80977273,3.43848182 C10.1298364,3.43848182 10.3893182,3.17907727 10.3893182,2.85893636 C10.3893182,2.53879545 10.1298364,2.27939091 9.80977273,2.27939091 L4.7175,2.27939091 C3.3813,2.27939091 2.29422727,3.36607727 2.29422727,4.70189091 L2.29422727,5.91082273 L0.829831818,5.91082273 C0.372222727,5.91082273 0,6.28304545 0,6.74065455 L0,8.24245 C0,8.70005909 0.372222727,9.07228182 0.829831818,9.07228182 Z M1.15909091,7.06991364 L4.58868636,7.06991364 L4.58868636,7.91319091 L1.15909091,7.91319091 L1.15909091,7.06991364 Z" id="Shape" fill="#012C3D"></path>
                    <path d="M0.829831818,18.5415909 L2.29430455,18.5415909 L2.29430455,23.1203091 C2.29430455,23.44045 2.55378636,23.6998545 2.87385,23.6998545 C3.19391364,23.6998545 3.45339545,23.44045 3.45339545,23.1203091 L3.45339545,18.5415909 L4.91794545,18.5415909 C5.37547727,18.5415909 5.74777727,18.1693682 5.74777727,17.7118364 L5.74777727,16.2100409 C5.74777727,15.7524318 5.37555455,15.3802091 4.91794545,15.3802091 L0.829831818,15.3802091 C0.372222727,15.3802091 0,15.7524318 0,16.2100409 L0,17.7118364 C0,18.1693682 0.372222727,18.5415909 0.829831818,18.5415909 Z M1.15909091,16.5393 L4.58868636,16.5393 L4.58868636,17.3825 L1.15909091,17.3825 L1.15909091,16.5393 Z" id="Shape" fill="#012C3D"></path>
                    <path d="M8.00769545,8.62440909 L8.00769545,11.6363455 C8.00769545,12.1859091 8.45479545,12.6330091 9.00435909,12.6330091 L17.5433045,12.6330091 C18.0928682,12.6330091 18.5399682,12.1859091 18.5399682,11.6363455 L18.5399682,8.62440909 C18.5399682,8.07484545 18.0928682,7.62774545 17.5433045,7.62774545 L9.00435909,7.62774545 C8.45479545,7.62774545 8.00769545,8.07484545 8.00769545,8.62440909 Z M9.16678636,8.78683636 L17.3809545,8.78683636 L17.3809545,11.4739182 L9.16678636,11.4739182 L9.16678636,8.78683636 Z" id="Shape" fill="#77BDC4"></path>
                </g>
            </g>
        </g>
    </g>
</svg>