<?xml version="1.0" encoding="UTF-8"?>
<svg width="24px" height="24px" viewBox="0 0 24 24" version="1.1" xmlns="http://www.w3.org/2000/svg" xmlns:xlink="http://www.w3.org/1999/xlink">
    <!-- Generator: Sketch 58 (84663) - https://sketch.com -->
    <title>email</title>
    <desc>Created with Sketch.</desc>
    <g id="email" stroke="none" stroke-width="1" fill="none" fill-rule="evenodd">
        <g id="placeholder-(1)">
            <rect id="Rectangle" x="0" y="0" width="24" height="24"></rect>
        </g>
        <g transform="translate(3.000000, 4.000000)" fill="#084A64" fill-rule="nonzero" id="Shape">
            <path d="M17.8665621,6.62774418 L17.8666019,6.62770608 L15.5681477,5.16725558 L15.5681477,0.285727892 C15.5681477,0.127929901 15.4346701,0 15.2700291,0 L2.72957336,0 C2.56493243,0 2.43145482,0.127929901 2.43145482,0.285727892 L2.43145482,5.16759846 L0.13339811,6.62770608 L0.133437859,6.62778228 C0.0530651003,6.67894662 0,6.76641745 0,6.86585075 L0,15.7142721 C0,15.8720701 0.133477608,16 0.298118541,16 L17.7018815,16 C17.8665224,16 18,15.8720701 18,15.7142721 L18,6.86585075 C18,6.76641745 17.9469349,6.67894662 17.8665621,6.62774418 L17.8665621,6.62774418 Z M2.43145482,7.62699176 L1.49635633,7.15157865 L2.43145482,7.15157865 L2.43145482,7.62699176 Z M0.596237082,7.3408448 L7.45196979,10.8263441 L0.596237082,15.1818658 L0.596237082,7.3408448 Z M8.99988075,10.5284633 L16.7126844,15.4285442 L1.28711686,15.4285442 L8.99988075,10.5284633 L8.99988075,10.5284633 Z M10.547911,10.8263822 L17.4037232,7.3408448 L17.4037232,15.1820182 L10.547911,10.8263822 L10.547911,10.8263822 Z M15.5681477,7.15157865 L16.5036834,7.15157865 L15.5681477,7.62718225 L15.5681477,7.15157865 Z M16.7126844,6.58012286 L15.5681477,6.58012286 L15.5681477,5.85285014 L16.7126844,6.58012286 Z M14.9719106,0.571455784 L14.9719106,7.93032049 L9.98232047,10.4670508 L9.16456143,9.94752131 C9.06475135,9.88408972 8.93497041,9.88408972 8.83516032,9.94752131 L8.01752054,10.4670508 L3.0276919,7.93013001 L3.0276919,0.571455784 L14.9719106,0.571455784 Z M2.43145482,6.58012286 L1.28739511,6.58012286 L2.43145482,5.85323111 L2.43145482,6.58012286 Z"></path>
            <path d="M9.5,8 L11.7212062,8 C11.8751747,8 12,7.87719606 12,7.72572081 C12,7.57424555 11.8751747,7.45144161 11.7212062,7.45144161 L9.5,7.45144161 C8.42894846,7.45144161 7.55758765,6.59419113 7.55758765,5.54048361 L7.55758765,5.45955296 C7.55758765,4.40584544 8.42894846,3.54859496 9.5,3.54859496 C10.5710515,3.54859496 11.4424123,4.40584544 11.4424123,5.45955296 L11.4424123,5.66189787 C11.4424123,5.88998844 11.253799,6.07558403 11.0219169,6.07558403 C10.7900348,6.07558403 10.6014215,5.89002501 10.6014215,5.66189787 L10.6014215,5.27746815 C10.6014215,4.62417168 10.0611934,4.09265517 9.39714366,4.09265517 C8.73309394,4.09265517 8.19286585,4.62413511 8.19286585,5.27746815 C8.19286585,5.93076462 8.73309394,6.46224455 9.39714366,6.46224455 C9.7008059,6.46224455 9.97837303,6.3508872 10.190405,6.16777841 C10.3630342,6.44143591 10.6711199,6.62410585 11.0219169,6.62410585 C11.5612157,6.62410585 12,6.19246354 12,5.6618613 L12,5.45951639 C12,4.10333377 10.8785054,3 9.5,3 C8.12149463,3 7,4.10333377 7,5.45951639 L7,5.54044704 C7,6.89666623 8.12149463,8 9.5,8 L9.5,8 Z M9.39714366,5.91368617 C9.04054777,5.91368617 8.7504535,5.62828952 8.7504535,5.27746815 C8.7504535,4.92664677 9.04058495,4.64121356 9.39714366,4.64121356 C9.75370238,4.64121356 10.0438338,4.92664677 10.0438338,5.27746815 C10.0438338,5.62828952 9.75373955,5.91368617 9.39714366,5.91368617 Z"></path>
        </g>
    </g>
</svg>