<?xml version="1.0" encoding="UTF-8"?>
<svg width="71px" height="58px" viewBox="0 0 71 58" version="1.1" xmlns="http://www.w3.org/2000/svg" xmlns:xlink="http://www.w3.org/1999/xlink">
    <!-- Generator: Sketch 55 (78076) - https://sketchapp.com -->
    <title>polling</title>
    <desc>Created with Sketch.</desc>
    <defs>
        <rect id="path-1" x="0" y="0" width="77" height="58"></rect>
    </defs>
    <g id="Page-1" stroke="none" stroke-width="1" fill="none" fill-rule="evenodd">
        <g id="Home" transform="translate(-40.000000, -394.000000)">
            <g id="polling" transform="translate(25.000000, 384.000000)">
                <g transform="translate(13.000000, 10.000000)">
                    <mask id="mask-2" fill="white">
                        <use xlink:href="#path-1"></use>
                    </mask>
                    <g id="Mask"></g>
                    <g opacity="0.121419271" mask="url(#mask-2)">
                        <g transform="translate(2.000000, 0.000000)">
                            <g id="Group" stroke-width="1" fill="none" fill-rule="evenodd">
                                <path d="M69.4749425,23.3980751 L55.0372414,23.3980751 C54.4022989,23.3980751 53.8878161,23.9129202 53.8878161,24.5483099 C53.8878161,25.1836995 54.4022989,25.6985446 55.0372414,25.6985446 L68.3255172,25.6985446 L68.3255172,42.8821315 L2.47908046,42.8821315 L2.47908046,25.6985446 L15.6832184,25.6985446 C16.3181609,25.6985446 16.8326437,25.1836995 16.8326437,24.5483099 C16.8326437,23.9129202 16.3181609,23.3980751 15.6832184,23.3980751 L1.32965517,23.3980751 C0.694712644,23.3980751 0.180229885,23.9129202 0.180229885,24.5483099 L0.180229885,44.0323662 L0.180229885,87.2466854 C0.180229885,87.8820751 0.694712644,88.3969202 1.32965517,88.3969202 L26.3517241,88.3969202 C26.9866667,88.3969202 27.5011494,87.8820751 27.5011494,87.2466854 C27.5011494,86.6112958 26.9866667,86.0964507 26.3517241,86.0964507 L2.47908046,86.0964507 L2.47908046,45.1826009 L68.325977,45.1826009 L68.325977,86.0964507 L44.1457471,86.0964507 C43.5108046,86.0964507 42.9963218,86.6112958 42.9963218,87.2466854 C42.9963218,87.8820751 43.5108046,88.3969202 44.1457471,88.3969202 L69.4754023,88.3969202 C70.1103448,88.3969202 70.6248276,87.8820751 70.6248276,87.2466854 L70.6248276,44.0323662 L70.6248276,24.5483099 C70.6243678,23.9133803 70.1098851,23.3980751 69.4749425,23.3980751 L69.4749425,23.3980751 Z" id="Path" fill="#737373" fill-rule="nonzero"></path>
                                <path d="M29.3425287,34.7637746 L19.2708046,34.7637746 C18.5452874,34.7637746 17.9554023,34.1734742 17.9554023,33.447446 C17.9554023,32.7214178 18.5457471,32.1311174 19.2708046,32.1311174 L22.1949425,32.1311174 C22.8298851,32.1311174 23.3443678,31.6162723 23.3443678,30.9808826 C23.3443678,30.345493 22.8298851,29.8306479 22.1949425,29.8306479 L19.2708046,29.8306479 C17.2777011,29.8306479 15.6565517,31.452939 15.6565517,33.447446 C15.6565517,35.4419531 17.2777011,37.0642441 19.2708046,37.0642441 L51.5342529,37.0642441 C53.5273563,37.0642441 55.1485057,35.4419531 55.1485057,33.447446 C55.1485057,31.452939 53.5273563,29.8306479 51.5342529,29.8306479 L48.6101149,29.8306479 C47.9751724,29.8306479 47.4606897,30.345493 47.4606897,30.9808826 C47.4606897,31.6162723 47.9751724,32.1311174 48.6101149,32.1311174 L51.5342529,32.1311174 C52.2597701,32.1311174 52.8496552,32.7214178 52.8496552,33.447446 C52.8496552,34.1734742 52.2593103,34.7637746 51.5342529,34.7637746 L41.4625287,34.7637746 L55.1016092,21.1150892 C55.5508046,20.6655775 55.5508046,19.9377089 55.1016092,19.4886573 L36.2151724,0.588920188 C35.7664368,0.139408451 35.0381609,0.139408451 34.5898851,0.588920188 L15.7034483,19.4881972 C15.4878161,19.7039812 15.3668966,19.9961408 15.3668966,20.3016432 C15.3668966,20.6071455 15.4878161,20.8993052 15.7034483,21.1150892 L29.3425287,34.7637746 Z M35.4022989,3.02879812 L52.6629885,20.3016432 L38.2114943,34.7637746 L32.5931034,34.7637746 L18.1416092,20.3016432 L35.4022989,3.02879812 Z" id="Shape" fill="#737373" fill-rule="nonzero"></path>
                                <path d="M35.4022989,50.9724225 C27.9641379,50.9724225 21.9126437,57.0281784 21.9126437,64.4720376 C21.9126437,71.4751268 33.8588506,96.2810892 34.3678161,97.3333239 C34.5595402,97.730385 34.9618391,97.9829765 35.4027586,97.9829765 C35.8436782,97.9829765 36.2455172,97.730385 36.4372414,97.3333239 C36.9457471,96.2810892 48.8924138,71.4751268 48.8924138,64.4720376 C48.891954,57.0281784 42.8404598,50.9724225 35.4022989,50.9724225 Z M35.4022989,94.1595962 C31.5255172,85.921615 24.2114943,69.3674366 24.2114943,64.4720376 C24.2114943,58.2966573 29.2317241,53.272892 35.4022989,53.272892 C41.5728736,53.272892 46.5931034,58.2966573 46.5931034,64.4720376 C46.5931034,69.3678967 39.2790805,85.921615 35.4022989,94.1595962 Z" id="Shape" fill="#737373" fill-rule="nonzero"></path>
                            </g>
                            <ellipse id="Oval" fill="#F7444F" fill-rule="nonzero" transform="translate(35.387747, 65.169316) rotate(-31.671319) translate(-35.387747, -65.169316) " cx="35.3877471" cy="65.1693163" rx="5.25481595" ry="5.25647591"></ellipse>
                        </g>
                    </g>
                </g>
            </g>
        </g>
    </g>
</svg>