<?xml version="1.0" encoding="UTF-8"?>
<svg width="24px" height="22px" viewBox="0 0 24 22" version="1.1" xmlns="http://www.w3.org/2000/svg" xmlns:xlink="http://www.w3.org/1999/xlink">
    <!-- Generator: Sketch 55 (78076) - https://sketchapp.com -->
    <title>home (3)</title>
    <desc>Created with Sketch.</desc>
    <g id="Page-1" stroke="none" stroke-width="1" fill="none" fill-rule="evenodd">
        <g id="Menu" transform="translate(-31.000000, -61.000000)" fill="#012C3D" fill-rule="nonzero">
            <g id="home-(3)" transform="translate(31.000000, 61.000000)">
                <path d="M23.8679776,10.038619 L11.9998229,0 L0.132081974,10.038619 C-0.0350926194,10.1803478 -0.0450237834,10.4189497 0.110564452,10.5716097 C0.26532509,10.7238927 0.528087136,10.7325623 0.69526173,10.5912105 L2.06865894,9.42948685 L2.06865894,22 L8.68943491,22 L15.3102109,22 L21.9309869,22 L21.9309869,9.42910991 L23.3043841,10.5908335 C23.3838334,10.6583055 23.485214,10.6914761 23.5861808,10.6914761 C23.6974926,10.6914761 23.8079768,10.6511437 23.8890813,10.5712328 C24.0450834,10.4189497 24.0351522,10.1803478 23.8679776,10.038619 Z M9.51703191,21.2461235 L9.51703191,15.2151118 C9.51703191,13.9678232 10.6305637,12.9534824 11.9998229,12.9534824 C13.3690821,12.9534824 14.4826139,13.9678232 14.4826139,15.2151118 L14.4826139,21.2461235 L9.51703191,21.2461235 Z M21.1033899,21.2461235 L15.3102109,21.2461235 L15.3102109,15.2151118 C15.3102109,13.5524372 13.8250881,12.1996059 11.9998229,12.1996059 C10.1745577,12.1996059 8.68943491,13.5524372 8.68943491,15.2151118 L8.68943491,21.2461235 L2.89625594,21.2461235 L2.89625594,8.72913561 L11.9998229,1.02866444 L21.1033899,8.72913561 L21.1033899,21.2461235 Z" id="Shape"></path>
            </g>
        </g>
    </g>
</svg>