<?xml version="1.0" encoding="UTF-8"?>
<svg width="24px" height="18px" viewBox="0 0 24 18" version="1.1" xmlns="http://www.w3.org/2000/svg" xmlns:xlink="http://www.w3.org/1999/xlink">
    <!-- Generator: Sketch 55 (78076) - https://sketchapp.com -->
    <title>id-card</title>
    <desc>Created with Sketch.</desc>
    <g id="Page-1" stroke="none" stroke-width="1" fill="none" fill-rule="evenodd">
        <g id="Menu" transform="translate(-305.000000, -112.000000)" fill="#012C3D" fill-rule="nonzero">
            <g id="id-card" transform="translate(305.000000, 112.000000)">
                <path d="M9.40359375,11.3265469 L8.23340625,10.8584531 C8.22417188,10.85475 8.21821875,10.8459375 8.21821875,10.836 L8.21821875,10.117875 C8.45390625,9.80695313 8.59401563,9.41976563 8.59401563,9.00032812 L8.59401563,7.87303125 C8.59401563,7.05759375 7.76203125,6.39421875 6.73945313,6.39421875 C5.71682813,6.39421875 4.88484375,7.05759375 4.88484375,7.87303125 L4.88484375,9.00032812 C4.88484375,9.41971875 5.02495313,9.80690625 5.26059375,10.1179219 L5.26059375,10.8360469 C5.26059375,10.8459844 5.25464063,10.8547969 5.24540625,10.8585 L4.07521875,11.3265469 C3.654,11.4950625 3.38184375,11.8970625 3.38184375,12.3507187 L3.38184375,13.509375 C3.38184375,13.9104375 3.70809375,14.2366875 4.10915625,14.2366875 L7.11515625,14.2366875 C7.3093125,14.2366875 7.46671875,14.0792813 7.46671875,13.885125 C7.46671875,13.6909688 7.3093125,13.5335625 7.11515625,13.5335625 L4.10910938,13.5335625 C4.09575,13.5335625 4.08492188,13.5227344 4.08492188,13.509375 L4.08492188,12.3507656 C4.08492188,12.1862813 4.18359375,12.0405 4.3363125,11.9794219 L5.5065,11.511375 C5.78423438,11.4002812 5.96367188,11.1352031 5.96367188,10.8360937 L5.96367188,10.6843125 C6.199875,10.7935781 6.46251562,10.8549844 6.73940625,10.8549844 C7.01625,10.8549844 7.2789375,10.7935781 7.51509375,10.6843125 L7.51509375,10.8360937 C7.51509375,11.13525 7.69457813,11.4003281 7.97226563,11.511375 L9.14240625,11.9794219 C9.295125,12.0405469 9.39384375,12.1862813 9.39384375,12.3507656 L9.39384375,13.509375 C9.39384375,13.5227344 9.38301563,13.5335625 9.36965625,13.5335625 L8.61801562,13.5335625 C8.42385938,13.5335625 8.26645312,13.6909688 8.26645312,13.885125 C8.26645312,14.0792813 8.42385938,14.2366875 8.61801562,14.2366875 L9.36965625,14.2366875 C9.77071875,14.2366875 10.0969688,13.9104375 10.0969688,13.509375 L10.0969688,12.3507656 C10.0969688,11.8971094 9.8248125,11.4951094 9.40359375,11.3265469 Z M7.89089063,9.000375 C7.89089063,9.63525 7.37432812,10.1518125 6.73940625,10.1518125 C6.10448438,10.1518125 5.58796875,9.63525 5.58796875,9.000375 L5.58796875,7.873125 C5.58796875,7.45265625 6.1153125,7.0974375 6.73945313,7.0974375 C7.36359375,7.0974375 7.89089063,7.45265625 7.89089063,7.873125 L7.89089063,9.000375 Z" id="Shape"></path>
                <path d="M22.5211875,2.63671875 L15.7333594,2.63671875 L15.7333594,2.61253125 C15.7333594,2.21146875 15.4071094,1.88521875 15.0060469,1.88521875 L13.8546094,1.88521875 L13.8546094,1.86103125 C13.8546094,0.83840625 13.022625,0.00646875 12.0000469,0.00646875 C10.9774687,0.00646875 10.1454844,0.838453125 10.1454844,1.86103125 L10.1454844,1.88521875 L8.99404687,1.88521875 C8.59298437,1.88521875 8.26673437,2.21146875 8.26673437,2.61253125 L8.26673437,3.73978125 C8.26673437,4.14084375 8.59298437,4.46709375 8.99404687,4.46709375 L15.0061406,4.46709375 C15.4072031,4.46709375 15.7334531,4.14084375 15.7334531,3.73978125 L15.7334531,3.33984375 L22.5212813,3.33984375 C22.9490156,3.33984375 23.2969688,3.68779687 23.2969688,4.11553125 L23.2969688,16.1397187 C23.2969688,16.5674531 22.9490156,16.9154062 22.5212813,16.9154062 L1.4788125,16.9154062 C1.05107813,16.9154062 0.703125,16.5674531 0.703125,16.1397187 L0.703125,4.11548437 C0.703125,3.68775 1.05107813,3.33979687 1.4788125,3.33979687 L7.11515625,3.33979687 C7.3093125,3.33979687 7.46671875,3.18239062 7.46671875,2.98823437 C7.46671875,2.79407812 7.3093125,2.63667187 7.11515625,2.63667187 L1.4788125,2.63667187 C0.663375,2.63671875 0,3.30004688 0,4.11548437 L0,16.1396719 C0,16.9551094 0.663375,17.6184844 1.4788125,17.6184844 L22.5211406,17.6184844 C23.3365781,17.6184844 23.9999531,16.9551094 23.9999531,16.1396719 L23.9999531,4.11548437 C24,3.30004688 23.336625,2.63671875 22.5211875,2.63671875 Z M15.0060469,3.76392187 L8.99395313,3.76392187 C8.98059375,3.76392187 8.96976563,3.75309375 8.96976563,3.73973437 L8.96976563,2.61248437 C8.96976563,2.599125 8.98059375,2.58829687 8.99395313,2.58829687 L10.4969531,2.58829687 C10.6911094,2.58829687 10.8485156,2.43089062 10.8485156,2.23673437 L10.8485156,1.86098437 C10.8485156,1.2260625 11.3650781,0.709546875 11.9999531,0.709546875 C12.6348281,0.709546875 13.1513906,1.22610937 13.1513906,1.86098437 L13.1513906,2.23673437 C13.1513906,2.43089062 13.3087969,2.58829687 13.5029531,2.58829687 L15.0059531,2.58829687 C15.0193125,2.58829687 15.0301406,2.599125 15.0301406,2.61248437 L15.0301406,3.73973437 L15.0302344,3.73973437 C15.0302344,3.75314062 15.0194062,3.76392187 15.0060469,3.76392187 Z" id="Shape"></path>
                <path d="M12.0072656,1.50946875 C11.8131563,1.50595312 11.6541562,1.66335937 11.6522344,1.85751562 L11.6484844,2.23326563 C11.6465156,2.42742188 11.802375,2.586375 11.9965313,2.58829688 C11.9977031,2.58829688 11.9989219,2.58829688 12.0000937,2.58829688 C12.1926094,2.58829688 12.3496406,2.4331875 12.3515625,2.24025 L12.3553125,1.8645 C12.3572344,1.67039063 12.2014219,1.51134375 12.0072656,1.50946875 Z" id="Path"></path>
                <path d="M20.6423906,6.77001563 L12.37575,6.77001563 C11.9746875,6.77001563 11.6484375,7.09626563 11.6484375,7.49732813 L11.6484375,8.24882813 C11.6484375,8.64989063 11.9746875,8.97614063 12.37575,8.97614063 L20.6423906,8.97614063 C21.0434531,8.97614063 21.3697031,8.64984375 21.3697031,8.24882813 L21.3697031,7.49732813 C21.3697031,7.0963125 21.0434531,6.77001563 20.6423906,6.77001563 Z M20.6665781,8.248875 C20.6665781,8.26223438 20.65575,8.2730625 20.6423906,8.2730625 L12.37575,8.2730625 C12.3623906,8.2730625 12.3515625,8.2621875 12.3515625,8.248875 L12.3515625,7.497375 C12.3515625,7.48401563 12.3623906,7.4731875 12.37575,7.4731875 L20.6423906,7.4731875 C20.65575,7.4731875 20.6665781,7.48401563 20.6665781,7.497375 L20.6665781,8.248875 Z" id="Shape"></path>
                <path d="M19.1393906,9.77610938 L12.37575,9.77610938 C12.1815938,9.77610938 12.0241875,9.93351563 12.0241875,10.1276719 C12.0241875,10.3218281 12.1815938,10.4792344 12.37575,10.4792344 L19.1393906,10.4792344 C19.3335469,10.4792344 19.4909531,10.3218281 19.4909531,10.1276719 C19.4909531,9.93346875 19.3335469,9.77610938 19.1393906,9.77610938 Z" id="Path"></path>
                <path d="M13.12725,11.6548125 L12.37575,11.6548125 C12.1815938,11.6548125 12.0241875,11.8122188 12.0241875,12.006375 C12.0241875,12.2005313 12.1815938,12.3579375 12.37575,12.3579375 L13.12725,12.3579375 C13.3214063,12.3579375 13.4788125,12.2005313 13.4788125,12.006375 C13.4788125,11.8122656 13.3214063,11.6548125 13.12725,11.6548125 Z" id="Path"></path>
                <path d="M18.0120938,11.6548125 L14.63025,11.6548125 C14.4360938,11.6548125 14.2786875,11.8122188 14.2786875,12.006375 C14.2786875,12.2005313 14.4360938,12.3579375 14.63025,12.3579375 L18.0120938,12.3579375 C18.20625,12.3579375 18.3636563,12.2005313 18.3636563,12.006375 C18.3636563,11.8122656 18.20625,11.6548125 18.0120938,11.6548125 Z" id="Path"></path>
                <path d="M18.0120938,13.1578594 L14.63025,13.1578594 C14.4360938,13.1578594 14.2786875,13.3152656 14.2786875,13.5094219 C14.2786875,13.7035781 14.4360938,13.8609844 14.63025,13.8609844 L18.0120938,13.8609844 C18.20625,13.8609844 18.3636563,13.7035781 18.3636563,13.5094219 C18.3636563,13.3153125 18.20625,13.1578594 18.0120938,13.1578594 Z" id="Path"></path>
                <path d="M13.12725,13.1578594 L12.37575,13.1578594 C12.1815938,13.1578594 12.0241875,13.3152656 12.0241875,13.5094219 C12.0241875,13.7035781 12.1815938,13.8609844 12.37575,13.8609844 L13.12725,13.8609844 C13.3214063,13.8609844 13.4788125,13.7035781 13.4788125,13.5094219 C13.4788125,13.3153125 13.3214063,13.1578594 13.12725,13.1578594 Z" id="Path"></path>
            </g>
        </g>
    </g>
</svg>