<?xml version="1.0" encoding="UTF-8"?>
<svg width="15px" height="24px" viewBox="0 0 15 24" version="1.1" xmlns="http://www.w3.org/2000/svg" xmlns:xlink="http://www.w3.org/1999/xlink">
    <!-- Generator: Sketch 55 (78076) - https://sketchapp.com -->
    <title>id</title>
    <desc>Created with Sketch.</desc>
    <g id="Page-1" stroke="none" stroke-width="1" fill="none" fill-rule="evenodd">
        <g id="Menu" transform="translate(-310.000000, -59.000000)" fill="#012C3D" fill-rule="nonzero">
            <g id="id" transform="translate(310.000000, 59.000000)">
                <path d="M9.35181287,9.39185965 C9.35092398,9.38348538 9.34961404,9.37525146 9.34863158,9.36687719 C9.34549708,9.34063158 9.34212865,9.31447953 9.3380117,9.2885614 C9.33670175,9.2802807 9.33501754,9.27209357 9.33356725,9.26381287 C9.32912281,9.23803509 9.32435088,9.21239766 9.31892398,9.18699415 C9.31705263,9.1782924 9.31490058,9.16968421 9.31293567,9.16102924 C9.30727485,9.13637427 9.30138012,9.11185965 9.29483041,9.08753216 C9.29230409,9.07808187 9.28949708,9.06877193 9.28683041,9.05936842 C9.28023392,9.03625731 9.27330994,9.01328655 9.26587135,8.99050292 C9.26245614,8.98002339 9.2588538,8.96968421 9.25529825,8.95925146 C9.248,8.93815205 9.24046784,8.91719298 9.23246784,8.89642105 C9.22797661,8.88463158 9.22329825,8.87288889 9.2185731,8.86119298 C9.21099415,8.84247953 9.20308772,8.82395322 9.19494737,8.80552047 C9.18905263,8.79218713 9.18311111,8.77890058 9.17693567,8.7657076 C9.16945029,8.74975439 9.16163743,8.7339883 9.15373099,8.71826901 C9.14619883,8.70320468 9.13861988,8.68818713 9.13071345,8.67335673 C9.12383626,8.66053801 9.11663158,8.64790643 9.10952047,8.63527485 C9.09992982,8.61819883 9.09033918,8.60112281 9.08023392,8.58432749 C9.07508772,8.57581287 9.06961404,8.56753216 9.06437427,8.55906433 C9.00299415,8.46067836 8.93295906,8.3674386 8.85440936,8.28051462 C8.85281871,8.27878363 8.85132164,8.27695906 8.84973099,8.27518129 C8.83274854,8.25651462 8.81515789,8.23836257 8.7974269,8.22030409 C8.79167251,8.21445614 8.7860117,8.20846784 8.78016374,8.20266667 C8.76416374,8.18680702 8.74774269,8.17132164 8.73118129,8.15592982 C8.7228538,8.14821053 8.7145731,8.14053801 8.70615205,8.13295906 C8.69871345,8.12631579 8.69164912,8.11929825 8.68411696,8.11274854 C8.68121637,8.11008187 8.67831579,8.10746199 8.67532164,8.10493567 C8.67097076,8.10119298 8.66652632,8.09754386 8.66348538,8.09511111 C8.64837427,8.08238596 8.63316959,8.06980117 8.61787135,8.05773099 L8.59990643,8.04364912 C8.59948538,8.04332164 8.59639766,8.04088889 8.59597661,8.04060819 C8.58208187,8.02989474 8.56809357,8.0194152 8.55415205,8.00921637 C8.54535673,8.00280702 8.5365614,7.99649123 8.52818713,7.99059649 C8.51494737,7.98119298 8.50156725,7.97202339 8.48739181,7.96252632 C8.47784795,7.95616374 8.46825731,7.94980117 8.45745029,7.94278363 C8.4454269,7.93506433 8.43330994,7.92757895 8.42208187,7.92065497 C8.41974269,7.91920468 8.41730994,7.91780117 8.41501754,7.91639766 C8.41375439,7.91560234 8.41244444,7.9148538 8.4111345,7.91405848 C8.40294737,7.90905263 8.39480702,7.90404678 8.3862924,7.89904094 C8.37749708,7.89389474 8.36851462,7.88884211 8.35962573,7.88388304 L8.35288889,7.88009357 C8.34746199,7.87705263 8.34156725,7.87387135 8.33604678,7.87083041 C8.33309942,7.86919298 8.33015205,7.86755556 8.32715789,7.86596491 C8.32219883,7.86325146 8.31756725,7.8605848 8.3122807,7.85777778 L8.2911345,7.84697076 C8.28612865,7.84439766 8.28098246,7.84224561 8.27597661,7.8397193 C8.25197661,7.82760234 8.22764912,7.81604678 8.20308772,7.80491228 C8.19368421,7.80065497 8.18432749,7.79625731 8.17487719,7.79214035 C8.14933333,7.78105263 8.12350877,7.77061988 8.09740351,7.76060819 C8.08893567,7.75733333 8.0805614,7.75373099 8.07204678,7.75059649 C8.04004678,7.73880702 8.00767251,7.72776608 7.97492398,7.71761404 C7.95817544,7.71237427 7.94119298,7.70797661 7.92430409,7.70320468 C7.90746199,7.69847953 7.89071345,7.69361404 7.87368421,7.68935673 C7.85478363,7.6845848 7.83574269,7.68037427 7.81665497,7.67616374 C7.80102924,7.67270175 7.78540351,7.66933333 7.76963743,7.6662924 C7.75064327,7.66259649 7.73160234,7.65918129 7.71251462,7.65604678 C7.6954386,7.65323977 7.67831579,7.65076023 7.6611462,7.64842105 C7.64336842,7.6459883 7.62559064,7.64355556 7.60767251,7.64159064 C7.58676023,7.63929825 7.5657076,7.63766082 7.54460819,7.63602339 C7.53010526,7.63490058 7.51564912,7.63349708 7.50105263,7.63270175 C7.46488889,7.63073684 7.42853801,7.62952047 7.39190643,7.62952047 C6.30502924,7.62952047 5.42077193,8.51377778 5.42077193,9.60065497 L5.42077193,9.75045614 L5.42077193,10.381848 C5.42077193,11.4687251 6.30498246,12.3529825 7.39190643,12.3529825 C8.47883041,12.3529825 9.36304094,11.4687251 9.36304094,10.381848 L9.36304094,9.90652632 L9.36304094,9.60065497 C9.36304094,9.56556725 9.36205848,9.53066667 9.36018713,9.496 C9.35976608,9.48814035 9.35892398,9.48032749 9.35840936,9.47246784 C9.35663158,9.44552047 9.35466667,9.4185731 9.35181287,9.39185965 Z M7.46212865,8.33338012 C7.47153216,8.33389474 7.48084211,8.33478363 7.49019883,8.33553216 C7.5037193,8.3365614 7.51723977,8.33763743 7.53066667,8.33908772 C7.54236257,8.34035088 7.55396491,8.34194152 7.56556725,8.34353216 C7.57632749,8.34498246 7.58704094,8.3465731 7.59775439,8.34830409 C7.61043275,8.35036257 7.62306433,8.35265497 7.63564912,8.35508772 C7.6451462,8.35695906 7.65464327,8.35897076 7.66409357,8.36107602 C7.67700585,8.36388304 7.68987135,8.36678363 7.70264327,8.3700117 C7.71218713,8.37244444 7.72163743,8.37515789 7.7311345,8.37777778 C7.74334503,8.3811462 7.75560234,8.38442105 7.76767251,8.38816374 C7.78821053,8.3945731 7.80865497,8.40140351 7.82891228,8.40888889 C7.83471345,8.41104094 7.84037427,8.41347368 7.84612865,8.41567251 C7.86269006,8.42208187 7.87925146,8.42867836 7.89557895,8.43578947 C7.90095906,8.43812865 7.90624561,8.44060819 7.91153216,8.44304094 C7.92874854,8.4508538 7.94587135,8.45890058 7.96280702,8.46750877 C7.97295906,8.47265497 7.98311111,8.47766082 7.99307602,8.48304094 C7.99649123,8.48491228 8.00023392,8.48701754 8.00407018,8.48916959 C8.01698246,8.49632749 8.02980117,8.50367251 8.04243275,8.51125146 C8.04636257,8.51363743 8.05010526,8.51588304 8.05436257,8.51850292 C8.0554386,8.51915789 8.05642105,8.51976608 8.05749708,8.52046784 C8.07087719,8.52874854 8.08416374,8.53721637 8.09726316,8.54596491 C8.10100585,8.54849123 8.10493567,8.55125146 8.10872515,8.55382456 C8.12093567,8.56224561 8.13305263,8.57080702 8.14493567,8.57960234 C8.14938012,8.58287719 8.15410526,8.58647953 8.15873684,8.5899883 C8.17047953,8.59892398 8.18212865,8.60804678 8.19359064,8.61740351 C8.19677193,8.62002339 8.19995322,8.62259649 8.20290058,8.62507602 C8.20982456,8.63083041 8.2165614,8.6368655 8.22334503,8.64280702 C8.24940351,8.66540351 8.27443275,8.68893567 8.29833918,8.71330994 C8.30203509,8.71709942 8.30563743,8.72098246 8.30933333,8.72481871 C8.33272515,8.74928655 8.3551345,8.77445614 8.37637427,8.80051462 C8.37955556,8.80439766 8.38254971,8.80842105 8.38568421,8.81235088 C8.40706433,8.83925146 8.42755556,8.86680702 8.44659649,8.89520468 C8.44832749,8.89777778 8.44987135,8.90039766 8.45160234,8.90297076 C8.49225731,8.9645848 8.52757895,9.02947368 8.55681871,9.09698246 C8.55723977,9.09791813 8.5577076,9.0988538 8.55808187,9.09983626 C8.57249123,9.13333333 8.58535673,9.16748538 8.59681871,9.20215205 C8.59756725,9.20439766 8.59836257,9.20664327 8.59911111,9.20888889 C8.61010526,9.24266667 8.61955556,9.27695906 8.62769591,9.31167251 C8.62849123,9.3151345 8.62933333,9.31859649 8.63012865,9.32205848 C8.63780117,9.35607018 8.64402339,9.39040936 8.64888889,9.42512281 C8.64912281,9.42690058 8.64930994,9.42867836 8.64954386,9.43045614 C8.50297076,9.34825731 8.37646784,9.23054971 8.28173099,9.0845848 C8.22236257,8.99312281 8.12388304,8.93445614 8.01520468,8.92580117 C7.90690058,8.9171462 7.8,8.95953216 7.72697076,9.04051462 C7.4268538,9.37305263 6.99840936,9.56378947 6.5514386,9.56378947 C6.40631579,9.56378947 6.26409357,9.54437427 6.12650292,9.50591813 C6.12697076,9.49988304 6.12734503,9.49380117 6.12790643,9.48781287 C6.12879532,9.47794152 6.12973099,9.46807018 6.13080702,9.4582924 C6.13207018,9.44725146 6.13347368,9.43625731 6.13501754,9.42530994 C6.13637427,9.41567251 6.13773099,9.40603509 6.13927485,9.39649123 C6.14105263,9.38554386 6.14306433,9.37464327 6.14512281,9.36378947 C6.14690058,9.35433918 6.14867836,9.34493567 6.15069006,9.33557895 C6.15302924,9.32472515 6.15555556,9.31396491 6.15817544,9.30325146 C6.16037427,9.29408187 6.1625731,9.2848655 6.16495906,9.27578947 C6.16781287,9.26498246 6.17099415,9.25426901 6.17412865,9.24355556 C6.17670175,9.23471345 6.17922807,9.22587135 6.1819883,9.21712281 C6.18540351,9.20631579 6.18919298,9.19564912 6.19288889,9.18493567 C6.19583626,9.17646784 6.19869006,9.16795322 6.20177778,9.15957895 C6.20584795,9.14867836 6.21024561,9.13791813 6.21459649,9.12715789 C6.21777778,9.11925146 6.2208655,9.11125146 6.22418713,9.10339181 C6.22900585,9.09211696 6.23419883,9.08102924 6.23934503,9.06994152 C6.24266667,9.06283041 6.24575439,9.05557895 6.24921637,9.04851462 C6.25525146,9.03607018 6.26166082,9.02390643 6.26811696,9.01169591 C6.27101754,9.00617544 6.27373099,9.0005614 6.27667836,8.9951345 C6.29590643,8.95985965 6.31672515,8.92561404 6.3391345,8.89249123 C6.34208187,8.88814035 6.34521637,8.88397661 6.34821053,8.87967251 C6.3565848,8.86760234 6.36500585,8.85553216 6.37375439,8.84378947 C6.37796491,8.83812865 6.38245614,8.83265497 6.38676023,8.82704094 C6.39461988,8.81688889 6.40243275,8.80669006 6.4105731,8.79677193 C6.41553216,8.79073684 6.42072515,8.78493567 6.42577778,8.77899415 C6.43359064,8.76977778 6.44140351,8.7605614 6.44954386,8.75157895 C6.45501754,8.74549708 6.46077193,8.73955556 6.46638596,8.73356725 C6.47438596,8.72505263 6.48233918,8.71653801 6.49052632,8.70825731 C6.49646784,8.70222222 6.50264327,8.69642105 6.50867836,8.69052632 C6.5168655,8.6825731 6.52505263,8.67461988 6.53347368,8.66690058 C6.53978947,8.66105263 6.5462924,8.65539181 6.55274854,8.64973099 C6.56121637,8.64224561 6.56968421,8.63480702 6.57833918,8.62755556 C6.58502924,8.62194152 6.59185965,8.61651462 6.59864327,8.61104094 C6.60734503,8.60407018 6.61609357,8.59709942 6.62498246,8.59031579 C6.63204678,8.58493567 6.63920468,8.57974269 6.64636257,8.57450292 C6.65529825,8.568 6.6642807,8.56154386 6.67340351,8.55527485 C6.68074854,8.55022222 6.68818713,8.54526316 6.69567251,8.54035088 C6.70488889,8.53426901 6.71415205,8.52832749 6.72350877,8.52247953 C6.7311345,8.5177076 6.7388538,8.51307602 6.7465731,8.50849123 C6.75602339,8.50287719 6.76556725,8.49740351 6.77520468,8.49202339 C6.78306433,8.48762573 6.79101754,8.48332164 6.79897076,8.47906433 C6.80870175,8.47387135 6.8185731,8.4688655 6.82844444,8.46395322 C6.83653801,8.45992982 6.84467836,8.45590643 6.8528655,8.45207018 C6.86287719,8.44734503 6.87298246,8.44280702 6.88308772,8.43836257 C6.8914152,8.43471345 6.89974269,8.43106433 6.90816374,8.42755556 C6.91840936,8.42329825 6.92874854,8.41927485 6.9391345,8.41534503 C6.94764912,8.41207018 6.95621053,8.40879532 6.96481871,8.4057076 C6.97534503,8.40191813 6.9860117,8.39840936 6.99667836,8.39490058 C7.00533333,8.39204678 7.01394152,8.38919298 7.02269006,8.38652632 C7.03354386,8.38320468 7.04453801,8.38021053 7.05548538,8.37716959 C7.06423392,8.37478363 7.07293567,8.37225731 7.08173099,8.37005848 C7.09295906,8.36720468 7.10437427,8.36472515 7.11574269,8.36219883 C7.12444444,8.3602807 7.13309942,8.35817544 7.14184795,8.35644444 C7.15363743,8.35405848 7.16556725,8.35209357 7.17745029,8.35008187 C7.18596491,8.34863158 7.19443275,8.34699415 7.20299415,8.34573099 C7.21539181,8.34385965 7.22797661,8.34245614 7.24051462,8.34095906 C7.24874854,8.33997661 7.25693567,8.33876023 7.26521637,8.33796491 C7.27920468,8.3365614 7.29333333,8.33567251 7.30746199,8.33473684 C7.31438596,8.33426901 7.32121637,8.33356725 7.32814035,8.33323977 C7.34928655,8.33216374 7.3705731,8.33160234 7.39195322,8.33160234 C7.4154386,8.33136842 7.43883041,8.33211696 7.46212865,8.33338012 Z M7.39185965,11.6512749 C6.69192982,11.6512749 6.12247953,11.0818246 6.12247953,10.3818947 L6.12247953,10.2245614 C6.26297076,10.2513684 6.40608187,10.2655439 6.55134503,10.2655439 C7.06226901,10.2655439 7.55635088,10.0930058 7.9548538,9.78297076 C8.15452632,9.97375439 8.39616374,10.113731 8.66123977,10.1924678 L8.66123977,10.3818947 C8.66123977,11.0818246 8.09178947,11.6512749 7.39185965,11.6512749 Z" id="Shape"></path>
                <path d="M14.4157661,20.9276257 C14.6095906,20.9276257 14.7666433,20.7705263 14.7666433,20.5767485 L14.7666433,12.931462 C14.7666433,12.9302456 14.7668304,12.929076 14.7668304,12.9278596 C14.7668304,12.9266433 14.7666433,12.9254737 14.7666433,12.9242573 L14.7666433,5.01838596 C14.7666433,4.21950877 14.1167251,3.56959064 13.317848,3.56959064 L9.48308772,3.56959064 C9.32304094,2.61712281 8.52378947,1.86895906 7.53211696,1.80402339 C7.48580117,1.80098246 7.43859649,1.7994386 7.39185965,1.7994386 C7.19803509,1.7994386 7.04098246,1.95653801 7.04098246,2.15031579 C7.04098246,2.34409357 7.19803509,2.50119298 7.39185965,2.50119298 C7.4234386,2.50119298 7.45520468,2.50222222 7.48631579,2.50423392 C8.10881871,2.54498246 8.61824561,2.98835088 8.76706433,3.56954386 L7.49871345,3.56954386 C7.58259649,3.54269006 7.65674854,3.48500585 7.70147368,3.40116959 C7.79265497,3.23017544 7.728,3.01763743 7.55700585,2.92645614 L2.1474152,0.0414035088 C1.97637427,-0.049871345 1.76388304,0.0149239766 1.67274854,0.185871345 C1.58152047,0.356865497 1.64622222,0.569403509 1.81721637,0.660584795 L5.65356725,2.70661988 C5.4740117,2.96421053 5.35312281,3.25932164 5.30077193,3.56959064 L1.46596491,3.56959064 C0.667087719,3.56959064 0.0171695906,4.21950877 0.0171695906,5.01838596 L0.0171695906,6.31869006 C0.0171695906,6.51246784 0.174222222,6.66956725 0.368046784,6.66956725 C0.561871345,6.66956725 0.718923977,6.51246784 0.718923977,6.31869006 L0.718923977,5.01838596 C0.718923977,4.60645614 1.05403509,4.27134503 1.46596491,4.27134503 L5.62180117,4.27134503 L9.16210526,4.27134503 L13.3179415,4.27134503 C13.7298713,4.27134503 14.0649825,4.60645614 14.0649825,5.01838596 L14.0649825,12.5769357 L11.7611228,12.5769357 C11.9296842,12.0935205 12.0189942,11.5791813 12.0189942,11.0527251 C12.0189942,10.4262456 11.8958596,9.81852632 11.6529591,9.24631579 C11.5773099,9.06788304 11.3711813,8.98474854 11.1928889,9.06039766 C11.0145029,9.13614035 10.9312749,9.34208187 11.0069708,9.52046784 C11.2128187,10.0054737 11.3172398,10.5209825 11.3172398,11.0526784 C11.3172398,12.1861053 10.8292865,13.2531462 9.9917193,13.9940585 C9.76785965,13.4638596 9.32697076,13.0387836 8.76987135,12.8429006 C8.76018713,12.8386901 8.75026901,12.8348538 8.74016374,12.8314854 C8.71597661,12.8234386 8.69178947,12.8158596 8.66755556,12.8087485 C8.66507602,12.8079532 8.66264327,12.8072047 8.66002339,12.8064561 C8.65483041,12.8048187 8.64959064,12.8032749 8.64430409,12.8018713 L8.58306433,12.785731 C8.58203509,12.7854503 8.58091228,12.7852632 8.57983626,12.7849825 C8.57768421,12.7844678 8.57548538,12.7840468 8.57333333,12.7835322 C8.55246784,12.7784795 8.53127485,12.7735673 8.51012865,12.7692164 C8.50694737,12.7684678 8.50376608,12.7677661 8.5005848,12.7671111 C8.46750877,12.7602807 8.43424561,12.7544795 8.40084211,12.7492865 C8.38329825,12.7464327 8.3659883,12.7438129 8.35040936,12.741848 L8.33361404,12.7396491 C8.31036257,12.7368421 8.28683041,12.7345497 8.26231579,12.7324912 C8.25356725,12.7317427 8.2448655,12.7310409 8.23611696,12.7304327 C8.22021053,12.7292632 8.20407018,12.7281871 8.18624561,12.7272515 C8.1842807,12.7271579 8.18236257,12.7271579 8.18039766,12.7270643 C8.14797661,12.7255205 8.11550877,12.724538 8.08294737,12.724538 L6.70072515,12.724538 C6.66900585,12.724538 6.63738012,12.7254737 6.60580117,12.726924 C6.60215205,12.7270643 6.59869006,12.7272047 6.59476023,12.7273918 C6.58418713,12.7279532 6.57309942,12.7287953 6.56233918,12.7295439 C6.53183626,12.7316023 6.5014269,12.7342222 6.47111111,12.7375906 C6.46395322,12.738386 6.45684211,12.7388538 6.44963743,12.7397427 L6.43733333,12.7413333 C6.42844444,12.7424561 6.42002339,12.744 6.41127485,12.7452632 C6.36837427,12.751345 6.32561404,12.7583626 6.28318129,12.7671111 C6.28,12.7677661 6.27681871,12.7684678 6.27363743,12.7692164 C6.25202339,12.7737076 6.22961404,12.7787602 6.2057076,12.7846082 C6.20491228,12.7847953 6.20416374,12.7849825 6.20336842,12.7851696 C6.20107602,12.785731 6.19897076,12.7861988 6.19663158,12.7867602 L6.13946199,12.8018713 C6.13422222,12.8032749 6.12898246,12.8048187 6.12383626,12.8064561 C6.12126316,12.8072047 6.11873684,12.808 6.11611696,12.8087953 C6.09192982,12.8159064 6.06778947,12.8234386 6.04360234,12.8315322 C6.03354386,12.8349006 6.0237193,12.8386433 6.01412865,12.8429006 C5.45698246,13.0387368 5.016,13.4638596 4.79209357,13.9941053 C3.95447953,13.253193 3.46652632,12.1861053 3.46652632,11.0527251 C3.46652632,8.88832749 5.2274152,7.1274386 7.39181287,7.1274386 C8.50194152,7.1274386 9.5651462,7.60079532 10.3088187,8.42615205 C10.4385497,8.57010526 10.6604444,8.58166082 10.8043977,8.45192982 C10.9483509,8.32224561 10.9599064,8.10035088 10.8302222,7.95639766 C9.95368421,6.98362573 8.70044444,6.42568421 7.39185965,6.42568421 C4.84051462,6.42568421 2.76481871,8.50138012 2.76481871,11.0527251 C2.76481871,11.5791813 2.85412865,12.0934737 3.02273684,12.5769357 L0.718877193,12.5769357 L0.718877193,7.74867836 C0.718877193,7.55490058 0.561824561,7.39780117 0.368,7.39780117 C0.174175439,7.39780117 0.017122807,7.55490058 0.017122807,7.74867836 L0.017122807,12.9242105 C0.017122807,12.9254269 0.0169356725,12.9265965 0.0169356725,12.9278129 C0.0169356725,12.9290292 0.017122807,12.9301988 0.017122807,12.9314152 L0.017122807,22.5045146 C0.017122807,23.3033918 0.667040936,23.9533099 1.46591813,23.9533099 L13.3178947,23.9533099 C14.1167719,23.9533099 14.7666901,23.3033918 14.7666901,22.5045146 L14.7666901,21.9962105 C14.7666901,21.8024327 14.6096374,21.6453333 14.4158129,21.6453333 C14.2219883,21.6453333 14.0649357,21.8024327 14.0649357,21.9962105 L14.0649357,22.5045146 C14.0649357,22.9164444 13.7298246,23.2515556 13.3178947,23.2515556 L1.46587135,23.2515556 C1.05394152,23.2515556 0.718830409,22.9164444 0.718830409,22.5045146 L0.718830409,13.2786901 L3.33548538,13.2786901 C3.68304094,13.9120936 4.17894737,14.4651228 4.79588304,14.884117 C5.56318129,15.4049591 6.4608655,15.6802339 7.39181287,15.6802339 C7.56636257,15.6802339 7.73974269,15.6705497 7.91134503,15.6514152 C8.04065497,15.6369591 8.16879532,15.6165614 8.29581287,15.5913918 C8.6742924,15.5164912 9.04130994,15.3950877 9.38938012,15.2282105 C9.39321637,15.226386 9.39695906,15.2243275 9.40079532,15.2224561 C9.4485614,15.1993918 9.49604678,15.1757193 9.54306433,15.1509708 C9.69548538,15.0707836 9.84397661,14.9817544 9.98783626,14.8840702 C10.6047719,14.4651228 11.1005848,13.9120936 11.4481404,13.2786901 L14.0647953,13.2786901 L14.0647953,20.5767485 C14.0648889,20.7705263 14.2219415,20.9276257 14.4157661,20.9276257 Z M6.27934503,3.04042105 L7.22676023,3.54568421 C7.24561404,3.55574269 7.26507602,3.56322807 7.28472515,3.56959064 L6.01693567,3.56959064 C6.06615205,3.37730994 6.15583626,3.1968655 6.27934503,3.04042105 Z M9.40088889,14.4255906 C9.39040936,14.4318596 9.38002339,14.438269 9.36954386,14.4443977 C9.35270175,14.454269 9.33576608,14.4639532 9.31883041,14.4735439 C9.29492398,14.4870643 9.27083041,14.5002573 9.24664327,14.5132632 C9.22961404,14.522386 9.21263158,14.5315088 9.19550877,14.5403977 C9.17066667,14.5532632 9.14568421,14.5657076 9.12065497,14.5780117 C9.104,14.5861988 9.08734503,14.5944795 9.07054971,14.6024327 C9.04397661,14.6150175 9.01716959,14.6270877 8.99031579,14.6390643 C8.97478363,14.6459883 8.95934503,14.6531462 8.9437193,14.659883 C8.91265497,14.6732632 8.88130994,14.6859883 8.84991813,14.6985263 C8.83836257,14.7031579 8.82690058,14.708117 8.81529825,14.7126082 C8.77202339,14.7294503 8.72846784,14.7455439 8.68463158,14.7608421 C8.67780117,14.7632281 8.67087719,14.7652865 8.66404678,14.7676257 C8.62718129,14.7802573 8.59017544,14.7924678 8.55293567,14.8039766 C8.53768421,14.8087018 8.5222924,14.8129123 8.50699415,14.8174503 C8.47794152,14.8260585 8.44888889,14.8345731 8.41960234,14.8424795 C8.4020117,14.8472515 8.38432749,14.8516023 8.36664327,14.8560936 C8.33936842,14.8630643 8.31209357,14.8698947 8.28467836,14.8763041 C8.2660117,14.880655 8.24725146,14.8846784 8.22849123,14.8887485 C8.20182456,14.8945497 8.17515789,14.900117 8.14835088,14.9053567 C8.12907602,14.9090994 8.10980117,14.912655 8.09043275,14.9161637 C8.06381287,14.9209357 8.03709942,14.9254269 8.01033918,14.9296842 C7.99092398,14.9327719 7.97150877,14.9357661 7.952,14.9385263 C7.93843275,14.9404444 7.92477193,14.9420351 7.91120468,14.9438596 L8.76219883,13.608655 C9.07265497,13.7865263 9.30381287,14.0809357 9.40088889,14.4255906 Z M8.04608187,13.4265263 L7.39185965,14.4530526 L6.73763743,13.4265263 L8.04608187,13.4265263 Z M6.02152047,13.6085614 L6.87251462,14.9437661 C6.85890058,14.9419883 6.84523977,14.9403509 6.83167251,14.9384327 C6.81221053,14.9356725 6.79279532,14.9326316 6.77338012,14.9295906 C6.74666667,14.9253801 6.72,14.9208889 6.69338012,14.916117 C6.67396491,14.912655 6.65459649,14.9090526 6.63527485,14.9053099 C6.6085614,14.900117 6.58194152,14.8945497 6.5554152,14.8887485 C6.5365614,14.8846784 6.51775439,14.8806082 6.49894737,14.8762573 C6.47167251,14.8699415 6.44449123,14.8631111 6.41735673,14.8561871 C6.39957895,14.8516491 6.38175439,14.8472515 6.36402339,14.8424795 C6.33492398,14.8346199 6.3060117,14.826152 6.27709942,14.8175906 C6.26166082,14.8130058 6.24608187,14.8087485 6.23069006,14.8039766 C6.19387135,14.7926082 6.15728655,14.7804912 6.12079532,14.7680468 C6.11354386,14.7655673 6.10619883,14.7633684 6.09894737,14.7608421 C6.05515789,14.7455906 6.01169591,14.7294971 5.96846784,14.7127018 C5.95672515,14.708117 5.94507602,14.7031111 5.93338012,14.6984327 C5.90217544,14.6859415 5.87097076,14.6733099 5.84004678,14.6599766 C5.82437427,14.6532398 5.80884211,14.6460351 5.79321637,14.6390643 C5.76645614,14.6271345 5.73974269,14.6151111 5.71326316,14.6025731 C5.69642105,14.5945731 5.6797193,14.5862456 5.66301754,14.5780585 C5.63803509,14.5657544 5.61305263,14.5533567 5.58830409,14.5404912 C5.57118129,14.5316023 5.55419883,14.5225263 5.53716959,14.5133567 C5.51293567,14.5003509 5.48879532,14.4871111 5.46479532,14.4735439 C5.44795322,14.4640468 5.43115789,14.4543626 5.41445614,14.4445848 C5.40383626,14.4384094 5.39340351,14.4319064 5.38283041,14.4256374 C5.47990643,14.0809357 5.71106433,13.7865263 6.02152047,13.6085614 Z" id="Shape"></path>
                <path d="M11.7613099,17.4727953 C11.7613099,17.2790175 11.6042573,17.1219181 11.4104327,17.1219181 L3.37333333,17.1219181 C3.17950877,17.1219181 3.02245614,17.2790175 3.02245614,17.4727953 L3.02245614,18.8125848 C3.02245614,19.0063626 3.17950877,19.163462 3.37333333,19.163462 L11.4104327,19.163462 C11.6042573,19.163462 11.7613099,19.0063626 11.7613099,18.8125848 L11.7613099,17.4727953 Z M11.0595556,18.4617076 L3.72421053,18.4617076 L3.72421053,17.8236725 L11.0595556,17.8236725 L11.0595556,18.4617076 Z" id="Shape"></path>
                <path d="M11.7613099,20.7872749 C11.7613099,20.5934971 11.6042573,20.4363977 11.4104327,20.4363977 L3.37333333,20.4363977 C3.17950877,20.4363977 3.02245614,20.5934971 3.02245614,20.7872749 C3.02245614,20.9810526 3.17950877,21.138152 3.37333333,21.138152 L11.4104327,21.138152 C11.6042105,21.138152 11.7613099,20.9810526 11.7613099,20.7872749 Z" id="Path"></path>
                <path d="M5.77160234,21.8905731 C5.57777778,21.8905731 5.42072515,22.0476725 5.42072515,22.2414503 C5.42072515,22.4352281 5.57777778,22.5923275 5.77160234,22.5923275 L9.01211696,22.5923275 C9.20594152,22.5923275 9.36299415,22.4352281 9.36299415,22.2414503 C9.36299415,22.0476725 9.20594152,21.8905731 9.01211696,21.8905731 L5.77160234,21.8905731 Z" id="Path"></path>
                <path d="M9.81132164,2.29684211 C9.86699415,2.29684211 9.92350877,2.28350877 9.97609357,2.25548538 L12.9665497,0.660584795 C13.1375439,0.569403509 13.2021988,0.356865497 13.1110175,0.185871345 C13.019883,0.0149239766 12.8073918,-0.0499181287 12.6363509,0.0414035088 L9.64589474,1.63630409 C9.47490058,1.72748538 9.41024561,1.94002339 9.5014269,2.11101754 C9.5645848,2.2294269 9.68584795,2.29684211 9.81132164,2.29684211 Z" id="Path"></path>
            </g>
        </g>
    </g>
</svg>