<?xml version="1.0" encoding="UTF-8"?>
<svg width="24px" height="16px" viewBox="0 0 24 16" version="1.1" xmlns="http://www.w3.org/2000/svg" xmlns:xlink="http://www.w3.org/1999/xlink">
    <!-- Generator: Sketch 55 (78076) - https://sketchapp.com -->
    <title>live</title>
    <desc>Created with Sketch.</desc>
    <g id="Page-1" stroke="none" stroke-width="1" fill="none" fill-rule="evenodd">
        <g id="Menu" transform="translate(-305.000000, -549.000000)" fill="#012C3D" fill-rule="nonzero">
            <g id="live" transform="translate(305.000000, 549.000000)">
                <path d="M6.8,10.4 L4,10.4 L4,4.4 C4,4.17910155 3.82089845,4 3.6,4 C3.37910155,4 3.2,4.17910155 3.2,4.4 L3.2,10.8 C3.2,11.0208985 3.37910155,11.2 3.6,11.2 L6.8,11.2 C7.02089845,11.2 7.2,11.0208985 7.2,10.8 C7.2,10.5791016 7.02089845,10.4 6.8,10.4 Z" id="Path"></path>
                <path d="M20.4,4.8 C20.6208985,4.8 20.8,4.62089845 20.8,4.4 C20.8,4.17910155 20.6208985,4 20.4,4 L17.2,4 C16.9791015,4 16.8,4.17910155 16.8,4.4 L16.8,10.8 C16.8,11.0208985 16.9791015,11.2 17.2,11.2 L20.4,11.2 C20.6208985,11.2 20.8,11.0208985 20.8,10.8 C20.8,10.5791016 20.6208985,10.4 20.4,10.4 L17.6,10.4 L17.6,8 L19.6,8 C19.8208985,8 20,7.82089845 20,7.6 C20,7.37910155 19.8208985,7.2 19.6,7.2 L17.6,7.2 L17.6,4.8 L20.4,4.8 Z" id="Path"></path>
                <path d="M8.8,4 C8.57910155,4 8.4,4.17910155 8.4,4.4 L8.4,10.8 C8.4,11.0208985 8.57910155,11.2 8.8,11.2 C9.02089845,11.2 9.2,11.0208985 9.2,10.8 L9.2,4.4 C9.2,4.17910155 9.02089845,4 8.8,4 Z" id="Path"></path>
                <path d="M15.3404297,4.0251953 C15.2410156,3.9878906 15.1308594,3.99160155 15.0341797,4.0355469 C14.9375,4.0794922 14.8623047,4.16015625 14.8251953,4.2595703 L12.834375,9.5691406 L11.1820312,4.2800781 C11.1158203,4.0689453 10.8910156,3.9517578 10.6800781,4.01796875 C10.4689453,4.0841797 10.3517578,4.3089844 10.4179687,4.5199219 L12.4179687,10.9199219 C12.4691406,11.0830078 12.618164,11.1953125 12.7888672,11.2 L12.8,11.2 C12.9667969,11.2001953 13.1162109,11.0966797 13.1748047,10.9404297 L15.5748047,4.5404297 C15.6121094,4.4410156 15.6083984,4.3308594 15.5644531,4.2341797 C15.5205078,4.1375 15.4398437,4.0623047 15.3404297,4.0251953 Z" id="Path"></path>
                <path d="M22,0 L2,0 C0.89589845,0.00136719 0.00136719,0.89589845 0,2 L0,13.2 C0.00136719,14.3041016 0.89589845,15.1986328 2,15.2 L22,15.2 C23.1041016,15.1986328 23.9986328,14.3041016 24,13.2 L24,2 C23.9986328,0.89589845 23.1041016,0.00136719 22,0 Z M23.2,13.2 C23.2,13.8626953 22.6626953,14.4 22,14.4 L2,14.4 C1.3373047,14.4 0.8,13.8626953 0.8,13.2 L0.8,2 C0.8,1.3373047 1.3373047,0.8 2,0.8 L22,0.8 C22.6626953,0.8 23.2,1.3373047 23.2,2 L23.2,13.2 Z" id="Shape"></path>
            </g>
        </g>
    </g>
</svg>