<?xml version="1.0" encoding="UTF-8"?>
<svg width="34px" height="34px" viewBox="0 0 34 34" version="1.1" xmlns="http://www.w3.org/2000/svg" xmlns:xlink="http://www.w3.org/1999/xlink">
    <!-- Generator: Sketch 55 (78076) - https://sketchapp.com -->
    <title>presentation (1) copy</title>
    <desc>Created with Sketch.</desc>
    <g id="Page-1" stroke="none" stroke-width="1" fill="none" fill-rule="evenodd">
        <g id="Home" transform="translate(-205.000000, -292.000000)" fill-rule="nonzero">
            <g id="Group-4" transform="translate(192.000000, 279.000000)">
                <g id="presentation-(1)-copy" transform="translate(13.000000, 13.000000)">
                    <path d="M5.3125,9.5625 C5.3125,11.3204063 6.74209375,12.75 8.5,12.75 C10.2579063,12.75 11.6875,11.3204063 11.6875,9.5625 C11.6875,7.80459375 10.2579063,6.375 8.5,6.375 C6.74209375,6.375 5.3125,7.80459375 5.3125,9.5625 Z M10.625,9.5625 C10.625,10.7344375 9.6719375,11.6875 8.5,11.6875 C7.3280625,11.6875 6.375,10.7344375 6.375,9.5625 C6.375,8.3905625 7.3280625,7.4375 8.5,7.4375 C9.6719375,7.4375 10.625,8.3905625 10.625,9.5625 Z" id="Shape" fill="#012C3D"></path>
                    <path d="M16.3130938,15.2505938 L20.0318438,11.5318438 C20.2395625,11.324125 20.2395625,10.988375 20.0318438,10.7806562 L18.4380938,9.18690625 C18.2415313,8.99034375 17.9270313,8.97865625 17.7166563,9.15928125 L14.0595313,12.2936562 L10.5160937,13.8125 L4.25,13.8125 C4.09646875,13.8125 3.9514375,13.878375 3.8505,13.9941875 L0.13175,18.2441875 C0.0074375,18.3860313 -0.03240625,18.583125 0.027625,18.7621563 L1.621375,23.5434063 C1.67025,23.6889688 1.7796875,23.8069063 1.9220625,23.865875 C2.0644375,23.9237813 2.22434375,23.919 2.363,23.8504687 L4.488,22.7879687 C4.6696875,22.697125 4.78125,22.5149062 4.78125,22.3225937 L4.78125,31.34375 C4.78125,32.8084062 5.97284375,34 7.4375,34 L11.6875,34 C11.98075,34 12.21875,33.7625313 12.21875,33.46875 L12.21875,17.3283125 L16.1749687,15.3499375 C16.2265,15.3249688 16.2727187,15.2909688 16.3130938,15.2505938 Z M4.78125,22.301875 C4.78125,22.2391875 4.76796875,22.1765 4.74353125,22.114875 L3.79578125,19.7465625 L4.78125,18.5145938 L4.78125,22.301875 Z M11.4500312,16.5245313 C11.2699375,16.6148437 11.15625,16.7986563 11.15625,17 L11.15625,32.9375 L9.03125,32.9375 L9.03125,24.4375 C9.03125,24.1437188 8.79325,23.90625 8.5,23.90625 C8.20675,23.90625 7.96875,24.1437188 7.96875,24.4375 L7.96875,32.9375 L7.4375,32.9375 C6.5588125,32.9375 5.84375,32.2224375 5.84375,31.34375 L5.84375,17 C5.84375,16.7742187 5.701375,16.5734063 5.48834375,16.4990313 C5.27584375,16.424125 5.038375,16.492125 4.89759375,16.6679688 L2.77259375,19.3242188 C2.6530625,19.4735 2.6233125,19.6759063 2.69396875,19.8533438 L3.5753125,22.0559063 L2.43525,22.6259375 L1.1315625,18.714875 L4.4911875,14.875 L10.625,14.875 C10.6967187,14.875 10.7684375,14.8606563 10.8343125,14.8319688 L14.5530625,13.2382188 C14.6024687,13.2169688 14.6486875,13.1882813 14.6895937,13.1532188 L18.034875,10.2865938 L18.9050625,11.15625 L15.623,14.4383125 L11.4500312,16.5245313 Z" id="Shape" fill="#012C3D"></path>
                    <polygon id="Path" fill="#FFB71C" points="7.4375 17 7.96875 17 7.96875 21.25 9.03125 21.25 9.03125 17 9.5625 17 9.5625 15.9375 7.4375 15.9375"></polygon>
                    <path d="M34,26.5625 C34,24.8045938 32.5704062,23.375 30.8125,23.375 C29.7043125,23.375 28.727875,23.9439687 28.15625,24.8040625 C27.584625,23.9434375 26.6081875,23.375 25.5,23.375 C24.3918125,23.375 23.415375,23.9439687 22.84375,24.8040625 C22.272125,23.9434375 21.2956875,23.375 20.1875,23.375 C18.4295938,23.375 17,24.8045938 17,26.5625 C17,27.6706875 17.5689687,28.647125 18.4290625,29.21875 C17.5684375,29.790375 17,30.7668125 17,31.875 L17,34 L18.0625,34 L18.0625,31.875 C18.0625,30.7030625 19.0155625,29.75 20.1875,29.75 C21.3594375,29.75 22.3125,30.7030625 22.3125,31.875 L22.3125,34 L23.375,34 L23.375,31.875 C23.375,30.7030625 24.3280625,29.75 25.5,29.75 C26.6719375,29.75 27.625,30.7030625 27.625,31.875 L27.625,34 L28.6875,34 L28.6875,31.875 C28.6875,30.7030625 29.6405625,29.75 30.8125,29.75 C31.9844375,29.75 32.9375,30.7030625 32.9375,31.875 L32.9375,34 L34,34 L34,31.875 C34,30.7668125 33.4310313,29.790375 32.5709375,29.21875 C33.4310313,28.647125 34,27.6706875 34,26.5625 Z M25.5,24.4375 C26.6719375,24.4375 27.625,25.3905625 27.625,26.5625 C27.625,27.7344375 26.6719375,28.6875 25.5,28.6875 C24.3280625,28.6875 23.375,27.7344375 23.375,26.5625 C23.375,25.3905625 24.3285938,24.4375 25.5,24.4375 Z M18.0625,26.5625 C18.0625,25.3905625 19.0155625,24.4375 20.1875,24.4375 C21.3594375,24.4375 22.3125,25.3905625 22.3125,26.5625 C22.3125,27.7344375 21.3594375,28.6875 20.1875,28.6875 C19.0155625,28.6875 18.0625,27.7344375 18.0625,26.5625 Z M22.84375,30.1165625 C22.6073437,29.760625 22.301875,29.4551563 21.9459375,29.21875 C22.301875,28.9823437 22.6073437,28.676875 22.84375,28.3209375 C23.0801563,28.676875 23.385625,28.9823437 23.7415625,29.21875 C23.385625,29.4551563 23.0801563,29.760625 22.84375,30.1165625 Z M28.15625,30.1165625 C27.9198437,29.760625 27.614375,29.4551563 27.2584375,29.21875 C27.614375,28.9823437 27.9198437,28.676875 28.15625,28.3209375 C28.3926562,28.676875 28.698125,28.9823437 29.0540625,29.21875 C28.698125,29.4551563 28.3926562,29.760625 28.15625,30.1165625 Z M30.8125,28.6875 C29.6405625,28.6875 28.6875,27.7344375 28.6875,26.5625 C28.6875,25.3905625 29.6405625,24.4375 30.8125,24.4375 C31.9844375,24.4375 32.9375,25.3905625 32.9375,26.5625 C32.9375,27.7344375 31.9844375,28.6875 30.8125,28.6875 Z" id="Shape" fill="#012C3D"></path>
                    <path d="M33.46875,0 L13.8125,0 C13.51925,0 13.28125,0.23746875 13.28125,0.53125 L13.28125,10.625 L14.34375,10.625 L14.34375,1.0625 L32.9375,1.0625 L32.9375,15.40625 C32.9375,16.2849375 32.2224375,17 31.34375,17 L14.875,17 L14.875,18.0625 L31.34375,18.0625 C32.8084062,18.0625 34,16.8709063 34,15.40625 L34,0.53125 C34,0.23746875 33.762,0 33.46875,0 Z" id="Path" fill="#012C3D"></path>
                    <path d="M22.3125,2.65625 L17,2.65625 C16.70675,2.65625 16.46875,2.89371875 16.46875,3.1875 L16.46875,5.3125 C16.46875,5.60628125 16.70675,5.84375 17,5.84375 L22.3125,5.84375 C22.60575,5.84375 22.84375,5.60628125 22.84375,5.3125 L22.84375,4.78125 L24.4375,4.78125 L24.4375,5.3125 C24.4375,5.60628125 24.6755,5.84375 24.96875,5.84375 L27.09375,5.84375 L27.09375,7.4375 L24.96875,7.4375 C24.6755,7.4375 24.4375,7.67496875 24.4375,7.96875 L24.4375,10.09375 C24.4375,10.3875313 24.6755,10.625 24.96875,10.625 L27.09375,10.625 L27.09375,12.21875 L24.96875,12.21875 C24.6755,12.21875 24.4375,12.4562187 24.4375,12.75 L24.4375,14.875 C24.4375,15.1687813 24.6755,15.40625 24.96875,15.40625 L30.28125,15.40625 C30.5745,15.40625 30.8125,15.1687813 30.8125,14.875 L30.8125,12.75 C30.8125,12.4562187 30.5745,12.21875 30.28125,12.21875 L28.15625,12.21875 L28.15625,10.625 L30.28125,10.625 C30.5745,10.625 30.8125,10.3875313 30.8125,10.09375 L30.8125,7.96875 C30.8125,7.67496875 30.5745,7.4375 30.28125,7.4375 L28.15625,7.4375 L28.15625,5.84375 L30.28125,5.84375 C30.5745,5.84375 30.8125,5.60628125 30.8125,5.3125 L30.8125,3.1875 C30.8125,2.89371875 30.5745,2.65625 30.28125,2.65625 L24.96875,2.65625 C24.6755,2.65625 24.4375,2.89371875 24.4375,3.1875 L24.4375,3.71875 L22.84375,3.71875 L22.84375,3.1875 C22.84375,2.89371875 22.60575,2.65625 22.3125,2.65625 Z M21.78125,4.78125 L17.53125,4.78125 L17.53125,3.71875 L21.78125,3.71875 L21.78125,4.78125 Z M29.75,14.34375 L25.5,14.34375 L25.5,13.28125 L29.75,13.28125 L29.75,14.34375 Z M29.75,9.5625 L25.5,9.5625 L25.5,8.5 L29.75,8.5 L29.75,9.5625 Z M25.5,3.71875 L29.75,3.71875 L29.75,4.78125 L25.5,4.78125 L25.5,3.71875 Z" id="Shape" fill="#FFB71C"></path>
                    <rect id="Rectangle" fill="#012C3D" x="17" y="6.90625" width="5.84375" height="1.0625"></rect>
                    <rect id="Rectangle" fill="#012C3D" x="20.71875" y="9.03125" width="2.125" height="1.0625"></rect>
                    <rect id="Rectangle" fill="#012C3D" x="21.25" y="11.15625" width="1.59375" height="1.0625"></rect>
                    <rect id="Rectangle" fill="#012C3D" x="19.65625" y="13.28125" width="3.1875" height="1.0625"></rect>
                    <path d="M2.125,5.3125 L2.390625,5.3125 L3.825,7.225 C3.92753125,7.361 4.08584375,7.4375 4.25,7.4375 C4.30578125,7.4375 4.362625,7.42846875 4.417875,7.409875 C4.63515625,7.337625 4.78125,7.13521875 4.78125,6.90625 L4.78125,5.3125 L7.96875,5.3125 C8.8474375,5.3125 9.5625,4.5974375 9.5625,3.71875 L9.5625,1.59375 C9.5625,0.7150625 8.8474375,0 7.96875,0 L2.125,0 C1.2463125,0 0.53125,0.7150625 0.53125,1.59375 L0.53125,3.71875 C0.53125,4.5974375 1.2463125,5.3125 2.125,5.3125 Z M1.59375,1.59375 C1.59375,1.3005 1.83228125,1.0625 2.125,1.0625 L7.96875,1.0625 C8.26146875,1.0625 8.5,1.3005 8.5,1.59375 L8.5,3.71875 C8.5,4.012 8.26146875,4.25 7.96875,4.25 L4.25,4.25 C3.95675,4.25 3.71875,4.48746875 3.71875,4.78125 L3.71875,5.3125 L3.08125,4.4625 C2.98084375,4.328625 2.82359375,4.25 2.65625,4.25 L2.125,4.25 C1.83228125,4.25 1.59375,4.012 1.59375,3.71875 L1.59375,1.59375 Z" id="Shape" fill="#012C3D"></path>
                    <rect id="Rectangle" fill="#012C3D" x="2.65625" y="2.125" width="4.78125" height="1.0625"></rect>
                </g>
            </g>
        </g>
    </g>
</svg>