<?xml version="1.0" encoding="UTF-8"?>
<svg width="24px" height="24px" viewBox="0 0 24 24" version="1.1" xmlns="http://www.w3.org/2000/svg" xmlns:xlink="http://www.w3.org/1999/xlink">
    <!-- Generator: Sketch 55 (78076) - https://sketchapp.com -->
    <title>protect</title>
    <desc>Created with Sketch.</desc>
    <g id="Page-1" stroke="none" stroke-width="1" fill="none" fill-rule="evenodd">
        <g id="Menu" transform="translate(-31.000000, -727.000000)" fill="#012C3D" fill-rule="nonzero">
            <g id="protect" transform="translate(31.000000, 727.000000)">
                <path d="M2.32828125,17.2082344 C2.15235937,17.01825 1.85573437,17.0070469 1.66584375,17.1828281 L1.6618125,17.1865781 C1.471875,17.3625 1.46048438,17.6590781 1.63640625,17.8490156 C1.72879687,17.9487656 1.85442187,17.99925 1.98042187,17.99925 C2.09442187,17.99925 2.20865625,17.9579531 2.29884375,17.8744219 L2.302875,17.8706719 C2.4928125,17.69475 2.50420312,17.3981719 2.32828125,17.2082344 Z" id="Path"></path>
                <path d="M22.3774688,16.4488594 C21.8260781,15.5832656 20.7184219,15.2772656 19.8008438,15.7370156 L15.0533438,18.1160625 C14.821875,18.2320781 14.7282656,18.5137031 14.8442813,18.745125 C14.9602969,18.9765469 15.2417344,19.0701563 15.4733906,18.9541875 L20.2208906,16.5751406 C20.7071719,16.3313437 21.294375,16.493625 21.5867344,16.9524844 C21.7457813,17.2022344 21.79275,17.4976406 21.718875,17.784375 C21.6450469,18.0711094 21.46125,18.307125 21.201375,18.4489688 L14.8192031,21.9323906 C14.0312344,22.3624687 13.1403281,22.5897656 12.242625,22.5897656 L8.08420313,22.5897656 C7.82535938,22.5897656 7.61545313,22.799625 7.61545313,23.0585156 C7.61545313,23.3174062 7.82535938,23.5272656 8.08420313,23.5272656 L12.242625,23.5272656 C13.29675,23.5272656 14.3430469,23.2603125 15.2683594,22.7553281 L21.6505313,19.2719063 C22.1336719,19.0081875 22.4894531,18.5512031 22.62675,18.0181875 C22.764,17.485125 22.6731094,16.9131563 22.3774688,16.4488594 Z" id="Path"></path>
                <path d="M13.23525,18.1739062 L11.27625,16.6219219 C10.2612187,15.8178281 8.98907812,15.375 7.69415625,15.375 L4.3359375,15.375 C4.3359375,15.1161094 4.12603125,14.90625 3.8671875,14.90625 L0.46875,14.90625 C0.20990625,14.90625 0,15.1161094 0,15.375 C0,15.6338906 0.20990625,15.84375 0.46875,15.84375 L3.3984375,15.84375 L3.3984375,23.0625 L0.46875,23.0625 C0.20990625,23.0625 0,23.2723594 0,23.53125 C0,23.7901406 0.20990625,24 0.46875,24 L3.8671875,24 C4.12603125,24 4.3359375,23.7901406 4.3359375,23.53125 L4.3359375,16.3125 L7.69415625,16.3125 C8.77865625,16.3125 9.84403125,16.683375 10.6940625,17.3568281 L12.6530625,18.9088125 C12.8837344,19.0915312 12.9966562,19.3745625 12.9552188,19.6658906 C12.9137344,19.9572187 12.7263281,20.1974531 12.4538906,20.3085938 C12.2027344,20.4110625 11.9177344,20.3826563 11.6917031,20.2325156 L9.189,18.5704219 C8.97342188,18.4271719 8.682375,18.4859531 8.53921875,18.7015781 C8.39596875,18.91725 8.45470313,19.2081563 8.670375,19.3513594 L11.1730781,21.0134531 C11.4654844,21.2076562 11.8037344,21.3068906 12.1445156,21.3068906 C12.3687656,21.3068906 12.5941406,21.2638594 12.8080313,21.176625 C13.3924688,20.9382188 13.7944688,20.4228281 13.8833906,19.7978906 C13.9722656,19.1729531 13.7300156,18.565875 13.23525,18.1739062 Z" id="Path"></path>
                <path d="M23.53125,8.15625 L20.6015625,8.15625 L20.6015625,0.9375 L23.53125,0.9375 C23.7900937,0.9375 24,0.727640625 24,0.46875 C24,0.209859375 23.7900937,0 23.53125,0 L20.1328125,0 C19.8739688,0 19.6640625,0.209859375 19.6640625,0.46875 L19.6640625,7.6875 L16.3058438,7.6875 C15.2213437,7.6875 14.1559688,7.316625 13.3059375,6.64317188 L11.3469375,5.0911875 C11.1162656,4.90846875 11.0033437,4.6254375 11.0447812,4.33410937 C11.0862656,4.04278125 11.2736719,3.80254687 11.5461094,3.69140625 C11.7972656,3.5889375 12.0822656,3.61739063 12.3082969,3.76748438 L14.811,5.42957812 C15.0265781,5.57282813 15.3176719,5.51404688 15.4607813,5.29842187 C15.6040313,5.08275 15.5452969,4.79184375 15.329625,4.64864062 L12.8269219,2.98654688 C12.3420469,2.6645625 11.7309375,2.60353125 11.1919688,2.823375 C10.6075313,3.06178125 10.2055312,3.57717187 10.1166094,4.20210938 C10.0277344,4.82704688 10.2699844,5.434125 10.76475,5.82609375 L12.72375,7.37807813 C13.7387812,8.18217187 15.0109219,8.625 16.3058438,8.625 L19.6640625,8.625 C19.6640625,8.88389062 19.8739688,9.09375 20.1328125,9.09375 L23.53125,9.09375 C23.7900937,9.09375 24,8.88389062 24,8.625 C24,8.36610938 23.7900937,8.15625 23.53125,8.15625 Z" id="Path"></path>
                <path d="M15.984375,0.472734375 L11.757375,0.472734375 C10.70325,0.472734375 9.65690625,0.7396875 8.73164062,1.24467188 L2.34946875,4.72804688 C1.86632812,4.99176563 1.51054687,5.44875 1.37325,5.98176563 C1.236,6.51482813 1.32689062,7.08679688 1.62253125,7.55109375 C2.00109375,8.14542188 2.64192187,8.4759375 3.303375,8.4759375 C3.60529687,8.4759375 3.911625,8.40707812 4.19915625,8.26298437 L8.94665625,5.8839375 C9.178125,5.76792187 9.27173437,5.48629687 9.15571875,5.254875 C9.03970312,5.02340625 8.758125,4.92979687 8.52660937,5.0458125 L3.77910937,7.42485937 C3.29273437,7.6685625 2.70557812,7.506375 2.41326563,7.04751562 C2.25417187,6.79776562 2.20725,6.50235937 2.281125,6.215625 C2.35495312,5.92889062 2.53875,5.692875 2.798625,5.55103125 L9.18079687,2.06760937 C9.96876562,1.63753125 10.8596719,1.41023437 11.757375,1.41023437 L15.984375,1.41023437 C16.2432187,1.41023437 16.453125,1.200375 16.453125,0.941484375 C16.453125,0.68259375 16.2432187,0.472734375 15.984375,0.472734375 Z" id="Path"></path>
                <path d="M22.5690938,5.94829688 C22.3942031,5.75732813 22.0977656,5.74429687 21.9067969,5.91914062 L21.9027188,5.92289062 C21.7118438,6.09773437 21.6987656,6.39421875 21.8736094,6.58514062 C21.9660938,6.68610937 22.0925625,6.73734375 22.2194531,6.73734375 C22.3325156,6.73734375 22.4459063,6.69665625 22.5359063,6.61429687 L22.5399844,6.61054687 C22.7308594,6.43570312 22.7439375,6.13921875 22.5690938,5.94829688 Z" id="Path"></path>
                <path d="M13.2979687,9.279375 C12.8318906,9.279375 12.3773906,9.42895313 12.0000469,9.69923438 C11.6226562,9.42895313 11.1682031,9.279375 10.702125,9.279375 C9.4584375,9.279375 8.44664062,10.3117969 8.44664062,11.5807969 C8.44654687,12.3214688 9.00421875,13.1627344 10.1513906,14.1525938 C10.9397344,14.8327969 11.7165937,15.326625 11.7492656,15.3472969 C11.8258125,15.3957656 11.9129062,15.42 12,15.42 C12.0870937,15.42 12.1741875,15.3957656 12.2507344,15.3472969 C12.2834062,15.326625 13.0602656,14.83275 13.8486094,14.1525938 C14.9958281,13.1627344 15.5534531,12.3215156 15.5534531,11.5807969 C15.5534531,10.3117969 14.5416562,9.279375 13.2979687,9.279375 Z M11.9999062,14.3912813 C10.8385781,13.6098281 9.38409375,12.325875 9.38409375,11.5807969 C9.38404687,10.8287344 9.97532812,10.216875 10.7020781,10.216875 C11.0655937,10.216875 11.4042187,10.366875 11.6555156,10.6393125 C11.7442969,10.7355 11.8691719,10.7902031 12.0000469,10.7902031 C12.1309219,10.7902031 12.2557969,10.7355 12.3445781,10.6393125 C12.595875,10.366875 12.9345,10.216875 13.2980156,10.216875 C14.0247656,10.216875 14.616,10.8287344 14.616,11.5807969 C14.616,12.3244219 13.1612344,13.6090313 11.9999062,14.3912813 Z" id="Shape"></path>
            </g>
        </g>
    </g>
</svg>