<?xml version="1.0" encoding="UTF-8"?>
<svg width="20px" height="20px" viewBox="0 0 20 20" version="1.1" xmlns="http://www.w3.org/2000/svg" xmlns:xlink="http://www.w3.org/1999/xlink">
    <!-- Generator: Sketch 55 (78076) - https://sketchapp.com -->
    <title>protect</title>
    <desc>Created with Sketch.</desc>
    <g id="Page-1" stroke="none" stroke-width="1" fill="none" fill-rule="evenodd">
        <g id="Menu" transform="translate(-307.000000, -593.000000)" fill="#012C3D" fill-rule="nonzero">
            <g id="protect" transform="translate(307.000000, 593.000000)">
                <path d="M1.94023438,14.3401953 C1.79363281,14.181875 1.54644531,14.1725391 1.38820313,14.3190234 L1.38484375,14.3221484 C1.2265625,14.46875 1.21707031,14.7158984 1.36367188,14.8741797 C1.44066406,14.9573047 1.54535156,14.999375 1.65035156,14.999375 C1.74535156,14.999375 1.84054688,14.9649609 1.91570313,14.8953516 L1.9190625,14.8922266 C2.07734375,14.745625 2.08683594,14.4984766 1.94023438,14.3401953 Z" id="Path"></path>
                <path d="M18.6478906,13.7073828 C18.1883984,12.9860547 17.2653516,12.7310547 16.5007031,13.1141797 L12.5444531,15.0967188 C12.3515625,15.1933984 12.2735547,15.4280859 12.3702344,15.6209375 C12.4669141,15.8137891 12.7014453,15.8917969 12.8944922,15.7951562 L16.8507422,13.8126172 C17.2559766,13.6094531 17.7453125,13.7446875 17.9889453,14.1270703 C18.1214844,14.3351953 18.160625,14.5813672 18.0990625,14.8203125 C18.0375391,15.0592578 17.884375,15.2559375 17.6678125,15.3741406 L12.3493359,18.2769922 C11.6926953,18.6353906 10.9502734,18.8248047 10.2021875,18.8248047 L6.73683594,18.8248047 C6.52113281,18.8248047 6.34621094,18.9996875 6.34621094,19.2154297 C6.34621094,19.4311719 6.52113281,19.6060547 6.73683594,19.6060547 L10.2021875,19.6060547 C11.080625,19.6060547 11.9525391,19.3835937 12.7236328,18.9627734 L18.0421094,16.0599219 C18.4447266,15.8401563 18.7412109,15.4593359 18.855625,15.0151563 C18.97,14.5709375 18.8942578,14.0942969 18.6478906,13.7073828 Z" id="Path"></path>
                <path d="M11.029375,15.1449219 L9.396875,13.8516016 C8.55101562,13.1815234 7.49089844,12.8125 6.41179687,12.8125 L3.61328125,12.8125 C3.61328125,12.5967578 3.43835938,12.421875 3.22265625,12.421875 L0.390625,12.421875 C0.174921875,12.421875 0,12.5967578 0,12.8125 C0,13.0282422 0.174921875,13.203125 0.390625,13.203125 L2.83203125,13.203125 L2.83203125,19.21875 L0.390625,19.21875 C0.174921875,19.21875 0,19.3936328 0,19.609375 C0,19.8251172 0.174921875,20 0.390625,20 L3.22265625,20 C3.43835938,20 3.61328125,19.8251172 3.61328125,19.609375 L3.61328125,13.59375 L6.41179687,13.59375 C7.31554687,13.59375 8.20335937,13.9028125 8.91171875,14.4640234 L10.5442188,15.7573437 C10.7364453,15.9096094 10.8305469,16.1454687 10.7960156,16.3882422 C10.7614453,16.6310156 10.6052734,16.8312109 10.3782422,16.9238281 C10.1689453,17.0092187 9.93144531,16.9855469 9.74308594,16.8604297 L7.6575,15.4753516 C7.47785156,15.3559766 7.2353125,15.4049609 7.11601563,15.5846484 C6.99664063,15.764375 7.04558594,16.0067969 7.2253125,16.1261328 L9.31089844,17.5112109 C9.55457031,17.6730469 9.83644531,17.7557422 10.1204297,17.7557422 C10.3073047,17.7557422 10.4951172,17.7198828 10.6733594,17.6471875 C11.1603906,17.4485156 11.4953906,17.0190234 11.5694922,16.4982422 C11.6435547,15.9774609 11.4416797,15.4715625 11.029375,15.1449219 Z" id="Path"></path>
                <path d="M19.609375,6.796875 L17.1679688,6.796875 L17.1679688,0.78125 L19.609375,0.78125 C19.8250781,0.78125 20,0.606367187 20,0.390625 C20,0.174882813 19.8250781,0 19.609375,0 L16.7773438,0 C16.5616406,0 16.3867188,0.174882813 16.3867188,0.390625 L16.3867188,6.40625 L13.5882031,6.40625 C12.6844531,6.40625 11.7966406,6.0971875 11.0882813,5.53597656 L9.45578125,4.24265625 C9.26355469,4.09039063 9.16945313,3.85453125 9.20398438,3.61175781 C9.23855469,3.36898437 9.39472656,3.16878906 9.62175781,3.07617188 C9.83105469,2.99078125 10.0685547,3.01449219 10.2569141,3.13957031 L12.3425,4.52464844 C12.5221484,4.64402344 12.7647266,4.59503906 12.8839844,4.41535156 C13.0033594,4.235625 12.9544141,3.99320313 12.7746875,3.87386719 L10.6891016,2.48878906 C10.2850391,2.22046875 9.77578125,2.16960938 9.32664063,2.3528125 C8.83960938,2.55148438 8.50460938,2.98097656 8.43050781,3.50175781 C8.35644531,4.02253906 8.55832031,4.5284375 8.970625,4.85507813 L10.603125,6.14839844 C11.4489844,6.81847656 12.5091016,7.1875 13.5882031,7.1875 L16.3867188,7.1875 C16.3867188,7.40324219 16.5616406,7.578125 16.7773438,7.578125 L19.609375,7.578125 C19.8250781,7.578125 20,7.40324219 20,7.1875 C20,6.97175781 19.8250781,6.796875 19.609375,6.796875 Z" id="Path"></path>
                <path d="M13.3203125,0.393945313 L9.7978125,0.393945313 C8.919375,0.393945313 8.04742187,0.61640625 7.27636719,1.03722656 L1.95789063,3.94003906 C1.55527344,4.15980469 1.25878906,4.540625 1.144375,4.98480469 C1.03,5.42902344 1.10574219,5.90566406 1.35210937,6.29257812 C1.66757812,6.78785156 2.20160156,7.06328125 2.7528125,7.06328125 C3.00441406,7.06328125 3.2596875,7.00589844 3.49929687,6.88582031 L7.45554687,4.90328125 C7.6484375,4.80660156 7.72644531,4.57191406 7.62976563,4.3790625 C7.53308594,4.18617187 7.2984375,4.10816406 7.10550781,4.20484375 L3.14925781,6.18738281 C2.74394531,6.39046875 2.25464844,6.2553125 2.01105469,5.87292969 C1.87847656,5.66480469 1.839375,5.41863281 1.9009375,5.1796875 C1.96246094,4.94074219 2.115625,4.7440625 2.3321875,4.62585937 L7.65066406,1.72300781 C8.30730469,1.36460937 9.04972656,1.17519531 9.7978125,1.17519531 L13.3203125,1.17519531 C13.5360156,1.17519531 13.7109375,1.0003125 13.7109375,0.784570312 C13.7109375,0.568828125 13.5360156,0.393945313 13.3203125,0.393945313 Z" id="Path"></path>
                <path d="M18.8075781,4.95691406 C18.6618359,4.79777344 18.4148047,4.78691406 18.2556641,4.93261719 L18.2522656,4.93574219 C18.0932031,5.08144531 18.0823047,5.32851562 18.2280078,5.48761719 C18.3050781,5.57175781 18.4104687,5.61445312 18.5162109,5.61445312 C18.6104297,5.61445312 18.7049219,5.58054687 18.7799219,5.51191406 L18.7833203,5.50878906 C18.9423828,5.36308594 18.9532812,5.11601562 18.8075781,4.95691406 Z" id="Path"></path>
                <path d="M11.0816406,7.7328125 C10.6932422,7.7328125 10.3144922,7.85746094 10.0000391,8.08269531 C9.68554688,7.85746094 9.30683594,7.7328125 8.9184375,7.7328125 C7.88203125,7.7328125 7.03886719,8.59316406 7.03886719,9.65066406 C7.03878906,10.2678906 7.50351562,10.9689453 8.45949219,11.7938281 C9.11644531,12.3606641 9.76382812,12.7721875 9.79105469,12.7894141 C9.85484375,12.8298047 9.92742188,12.85 10,12.85 C10.0725781,12.85 10.1451562,12.8298047 10.2089453,12.7894141 C10.2361719,12.7721875 10.8835547,12.360625 11.5405078,11.7938281 C12.4965234,10.9689453 12.9612109,10.2679297 12.9612109,9.65066406 C12.9612109,8.59316406 12.1180469,7.7328125 11.0816406,7.7328125 Z M9.99992187,11.9927344 C9.03214844,11.3415234 7.82007812,10.2715625 7.82007812,9.65066406 C7.82003906,9.02394531 8.31277344,8.5140625 8.91839844,8.5140625 C9.22132812,8.5140625 9.50351562,8.6390625 9.71292969,8.86609375 C9.78691406,8.94625 9.89097656,8.99183594 10.0000391,8.99183594 C10.1091016,8.99183594 10.2131641,8.94625 10.2871484,8.86609375 C10.4965625,8.6390625 10.77875,8.5140625 11.0816797,8.5140625 C11.6873047,8.5140625 12.18,9.02394531 12.18,9.65066406 C12.18,10.2703516 10.9676953,11.3408594 9.99992187,11.9927344 Z" id="Shape"></path>
            </g>
        </g>
    </g>
</svg>