<?xml version="1.0" encoding="UTF-8"?>
<svg width="24px" height="24px" viewBox="0 0 24 24" version="1.1" xmlns="http://www.w3.org/2000/svg" xmlns:xlink="http://www.w3.org/1999/xlink">
    <!-- Generator: Sketch 55 (78076) - https://sketchapp.com -->
    <title>booth</title>
    <desc>Created with Sketch.</desc>
    <g id="Page-1" stroke="none" stroke-width="1" fill="none" fill-rule="evenodd">
        <g id="Home" transform="translate(-305.000000, -349.000000)" fill="#012C3D" fill-rule="nonzero">
            <g id="booth" transform="translate(305.000000, 349.000000)">
                <path d="M0,24 L2.4,24 L2.4,6.4 L4.8,6.4 L4.8,7.2 L4,7.2 L4,9.6 L6.4,9.6 L6.4,7.2 L5.6,7.2 L5.6,6.4 L8,6.4 L8,7.2 L7.2,7.2 L7.2,9.6 L9.6,9.6 L9.6,7.2 L8.8,7.2 L8.8,6.4 L21.6,6.4 L21.6,24 L24,24 L24,0 L0,0 L0,24 Z M5.6,8.8 L4.8,8.8 L4.8,8 L5.6,8 L5.6,8.8 Z M8.8,8.8 L8,8.8 L8,8 L8.8,8 L8.8,8.8 Z M1.6,23.2 L0.8,23.2 L0.8,6.4 L1.6,6.4 L1.6,23.2 Z M23.2,23.2 L22.4,23.2 L22.4,6.4 L23.2,6.4 L23.2,23.2 Z M0.8,0.8 L23.2,0.8 L23.2,5.6 L0.8,5.6 L0.8,0.8 Z" id="Shape"></path>
                <path d="M16,1.6 L8,1.6 L8,4.8 L16,4.8 L16,1.6 Z M15.2,4 L8.8,4 L8.8,2.4 L15.2,2.4 L15.2,4 Z" id="Shape"></path>
                <path d="M20.8,7.2 L12,7.2 L12,12.8 L20.8,12.8 L20.8,7.2 Z M13.3656,12 L15.0828,10.2828 L14.5172,9.7172 L12.8,11.4344 L12.8,8 L19.4344,8 L17.7172,9.7172 L18.2828,10.2828 L20,8.5656 L20,12 L13.3656,12 Z" id="Shape"></path>
                <path d="M4.8,12 L4.8,16.8 L4,16.8 L4,21.6 L3.2,21.6 L3.2,24 L20.8,24 L20.8,21.6 L20,21.6 L20,16.8 L19.2,16.8 L19.2,14.8 C19.2020988,14.3257542 18.9235076,13.8951608 18.4900606,13.7027103 C18.0566137,13.5102598 17.5503739,13.5923884 17.2,13.912 C16.7477943,13.4959804 16.0522057,13.4959804 15.6,13.912 C15.2496261,13.5923884 14.7433863,13.5102598 14.3099394,13.7027103 C13.8764924,13.8951608 13.5979012,14.3257542 13.6,14.8 L13.6,16.8 L10.4,16.8 L10.4,13.6 L8.8,13.6 L8.8,12 L4.8,12 Z M5.6,12.8 L8,12.8 L8,13.6 L5.6,13.6 L5.6,12.8 Z M20,23.2 L4,23.2 L4,22.4 L20,22.4 L20,23.2 Z M18,14.4 C18.2209139,14.4 18.4,14.5790861 18.4,14.8 L18.4,16.8 L17.6,16.8 L17.6,14.8 C17.6,14.5790861 17.7790861,14.4 18,14.4 Z M16.4,14.4 C16.6209139,14.4 16.8,14.5790861 16.8,14.8 L16.8,16.8 L16,16.8 L16,14.8 C16,14.5790861 16.1790861,14.4 16.4,14.4 Z M14.4,14.8 C14.4,14.5790861 14.5790861,14.4 14.8,14.4 C15.0209139,14.4 15.2,14.5790861 15.2,14.8 L15.2,16.8 L14.4,16.8 L14.4,14.8 Z M19.2,17.6 L19.2,20 L15.6,20 L15.6,20.8 L19.2,20.8 L19.2,21.6 L4.8,21.6 L4.8,17.6 L19.2,17.6 Z M9.6,14.4 L9.6,16.8 L5.6,16.8 L5.6,14.4 L9.6,14.4 Z" id="Shape"></path>
            </g>
        </g>
    </g>
</svg>