<?xml version="1.0" encoding="UTF-8"?>
<svg width="24px" height="24px" viewBox="0 0 24 24" version="1.1" xmlns="http://www.w3.org/2000/svg" xmlns:xlink="http://www.w3.org/1999/xlink">
    <!-- Generator: Sketch 55 (78076) - https://sketchapp.com -->
    <title>calendar (2)</title>
    <desc>Created with Sketch.</desc>
    <g id="Page-1" stroke="none" stroke-width="1" fill="none" fill-rule="evenodd">
        <g id="Home" transform="translate(-305.000000, -157.000000)" fill="#012C3D" fill-rule="nonzero">
            <g id="calendar-(2)" transform="translate(305.000000, 157.000000)">
                <path d="M17.7513103,1.86206897 C17.5588966,0.919034483 16.7234483,0.206896552 15.7241379,0.206896552 C15.4957241,0.206896552 15.3103448,0.391862069 15.3103448,0.620689655 C15.3103448,0.849517241 15.4957241,1.03448276 15.7241379,1.03448276 C16.4085517,1.03448276 16.9655172,1.59144828 16.9655172,2.27586207 C16.9655172,2.96027586 16.4085517,3.51724138 15.7241379,3.51724138 C15.4957241,3.51724138 15.3103448,3.7022069 15.3103448,3.93103448 C15.3103448,4.15986207 15.4957241,4.34482759 15.7241379,4.34482759 C16.7230345,4.34482759 17.5588966,3.63268966 17.7513103,2.68965517 L23.1724138,2.68965517 L23.1724138,6.4137931 L0.827586207,6.4137931 L0.827586207,2.68965517 L6.62068966,2.68965517 L7.86206897,2.68965517 C8.09048276,2.68965517 8.27586207,2.50468966 8.27586207,2.27586207 C8.27586207,2.04703448 8.09048276,1.86206897 7.86206897,1.86206897 L7.11062069,1.86206897 C7.28193103,1.38124138 7.73710345,1.03448276 8.27586207,1.03448276 C8.96027586,1.03448276 9.51724138,1.59144828 9.51724138,2.27586207 C9.51724138,2.96027586 8.96027586,3.51724138 8.27586207,3.51724138 C8.04744828,3.51724138 7.86206897,3.7022069 7.86206897,3.93103448 C7.86206897,4.15986207 8.04744828,4.34482759 8.27586207,4.34482759 C9.41668966,4.34482759 10.3448276,3.41668966 10.3448276,2.27586207 C10.3448276,1.13503448 9.41668966,0.206896552 8.27586207,0.206896552 C7.27696552,0.206896552 6.44110345,0.919034483 6.24868966,1.86206897 L0,1.86206897 L0,7.24137931 L0,23.7931034 L24,23.7931034 L24,7.24137931 L24,1.86206897 L17.7513103,1.86206897 Z M23.1724138,22.9655172 L0.827586207,22.9655172 L0.827586207,7.24137931 L23.1724138,7.24137931 L23.1724138,22.9655172 Z" id="Shape"></path>
                <path d="M10.7586207,1.03448276 C11.4430345,1.03448276 12,1.59144828 12,2.27586207 C12,2.96027586 11.4430345,3.51724138 10.7586207,3.51724138 C10.5302069,3.51724138 10.3448276,3.7022069 10.3448276,3.93103448 C10.3448276,4.15986207 10.5302069,4.34482759 10.7586207,4.34482759 C11.8994483,4.34482759 12.8275862,3.41668966 12.8275862,2.27586207 C12.8275862,1.13503448 11.8994483,0.206896552 10.7586207,0.206896552 C10.5302069,0.206896552 10.3448276,0.391862069 10.3448276,0.620689655 C10.3448276,0.849517241 10.5302069,1.03448276 10.7586207,1.03448276 Z" id="Path"></path>
                <path d="M13.2413793,1.03448276 C13.9257931,1.03448276 14.4827586,1.59144828 14.4827586,2.27586207 C14.4827586,2.96027586 13.9257931,3.51724138 13.2413793,3.51724138 C13.0129655,3.51724138 12.8275862,3.7022069 12.8275862,3.93103448 C12.8275862,4.15986207 13.0129655,4.34482759 13.2413793,4.34482759 C14.3822069,4.34482759 15.3103448,3.41668966 15.3103448,2.27586207 C15.3103448,1.13503448 14.3822069,0.206896552 13.2413793,0.206896552 C13.0129655,0.206896552 12.8275862,0.391862069 12.8275862,0.620689655 C12.8275862,0.849517241 13.0129655,1.03448276 13.2413793,1.03448276 Z" id="Path"></path>
                <path d="M3.72413793,10.5517241 L12.8275862,10.5517241 C13.056,10.5517241 13.2413793,10.3667586 13.2413793,10.137931 C13.2413793,9.90910345 13.056,9.72413793 12.8275862,9.72413793 L3.72413793,9.72413793 C3.49572414,9.72413793 3.31034483,9.90910345 3.31034483,10.137931 C3.31034483,10.3667586 3.49572414,10.5517241 3.72413793,10.5517241 Z" id="Path"></path>
                <path d="M20.2758621,16.3448276 L14.0689655,16.3448276 C13.8405517,16.3448276 13.6551724,16.5297931 13.6551724,16.7586207 C13.6551724,16.9874483 13.8405517,17.1724138 14.0689655,17.1724138 L20.2758621,17.1724138 C20.5042759,17.1724138 20.6896552,16.9874483 20.6896552,16.7586207 C20.6896552,16.5297931 20.5042759,16.3448276 20.2758621,16.3448276 Z" id="Path"></path>
                <path d="M3.72413793,13.862069 L7.86206897,13.862069 C8.09048276,13.862069 8.27586207,13.6771034 8.27586207,13.4482759 C8.27586207,13.2194483 8.09048276,13.0344828 7.86206897,13.0344828 L3.72413793,13.0344828 C3.49572414,13.0344828 3.31034483,13.2194483 3.31034483,13.4482759 C3.31034483,13.6771034 3.49572414,13.862069 3.72413793,13.862069 Z" id="Path"></path>
                <path d="M20.2758621,19.6551724 L16.137931,19.6551724 C15.9095172,19.6551724 15.7241379,19.8401379 15.7241379,20.0689655 C15.7241379,20.2977931 15.9095172,20.4827586 16.137931,20.4827586 L20.2758621,20.4827586 C20.5042759,20.4827586 20.6896552,20.2977931 20.6896552,20.0689655 C20.6896552,19.8401379 20.5042759,19.6551724 20.2758621,19.6551724 Z" id="Path"></path>
                <path d="M11.5862069,13.4482759 C11.5862069,13.6771034 11.7715862,13.862069 12,13.862069 L18.2068966,13.862069 C18.4353103,13.862069 18.6206897,13.6771034 18.6206897,13.4482759 C18.6206897,13.2194483 18.4353103,13.0344828 18.2068966,13.0344828 L12,13.0344828 C11.7715862,13.0344828 11.5862069,13.2194483 11.5862069,13.4482759 Z" id="Path"></path>
                <path d="M10.2248276,13.742069 C10.2993103,13.6634483 10.3448276,13.5558621 10.3448276,13.4482759 C10.3448276,13.3402759 10.2993103,13.2326897 10.2248276,13.1544828 C10.0717241,13.0013793 9.79034483,13.0013793 9.63724138,13.1544828 C9.56275862,13.2326897 9.51724138,13.3402759 9.51724138,13.4482759 C9.51724138,13.5558621 9.56275862,13.6634483 9.63724138,13.742069 C9.71586207,13.8202759 9.82344828,13.862069 9.93103448,13.862069 C10.0386207,13.862069 10.1462069,13.8202759 10.2248276,13.742069 Z" id="Path"></path>
                <path d="M5.37931034,16.7586207 C5.37931034,16.9874483 5.56468966,17.1724138 5.79310345,17.1724138 L12,17.1724138 C12.2284138,17.1724138 12.4137931,16.9874483 12.4137931,16.7586207 C12.4137931,16.5297931 12.2284138,16.3448276 12,16.3448276 L5.79310345,16.3448276 C5.56468966,16.3448276 5.37931034,16.5297931 5.37931034,16.7586207 Z" id="Path"></path>
                <path d="M3.72413793,17.1724138 C3.83172414,17.1724138 3.93931034,17.1268966 4.01793103,17.0524138 C4.09241379,16.9737931 4.13793103,16.8662069 4.13793103,16.7586207 C4.13793103,16.6506207 4.09241379,16.5430345 4.01793103,16.4689655 C3.86482759,16.3117241 3.58344828,16.3117241 3.43034483,16.4648276 C3.35586207,16.5430345 3.31034483,16.6506207 3.31034483,16.7586207 C3.31034483,16.8662069 3.35586207,16.9737931 3.43034483,17.0524138 C3.50896552,17.1268966 3.61241379,17.1724138 3.72413793,17.1724138 Z" id="Path"></path>
                <path d="M20.2758621,13.862069 C20.3834483,13.862069 20.4910345,13.8202759 20.5696552,13.742069 C20.6482759,13.6634483 20.6896552,13.5558621 20.6896552,13.4482759 C20.6896552,13.3402759 20.6482759,13.2326897 20.5696552,13.1544828 C20.4124138,13.0013793 20.1351724,13.0013793 19.982069,13.1544828 C19.9075862,13.2326897 19.862069,13.3402759 19.862069,13.4482759 C19.862069,13.5558621 19.9075862,13.6634483 19.982069,13.742069 C20.0606897,13.8202759 20.1682759,13.862069 20.2758621,13.862069 Z" id="Path"></path>
                <path d="M14.0689655,19.6551724 L3.72413793,19.6551724 C3.49572414,19.6551724 3.31034483,19.8401379 3.31034483,20.0689655 C3.31034483,20.2977931 3.49572414,20.4827586 3.72413793,20.4827586 L14.0689655,20.4827586 C14.2973793,20.4827586 14.4827586,20.2977931 14.4827586,20.0689655 C14.4827586,19.8401379 14.2973793,19.6551724 14.0689655,19.6551724 Z" id="Path"></path>
            </g>
        </g>
    </g>
</svg>