<?xml version="1.0" encoding="UTF-8"?>
<svg width="20px" height="24px" viewBox="0 0 20 24" version="1.1" xmlns="http://www.w3.org/2000/svg" xmlns:xlink="http://www.w3.org/1999/xlink">
    <!-- Generator: Sketch 55 (78076) - https://sketchapp.com -->
    <title>conference</title>
    <desc>Created with Sketch.</desc>
    <g id="Page-1" stroke="none" stroke-width="1" fill="none" fill-rule="evenodd">
        <g id="Home" transform="translate(-307.000000, -205.000000)" fill="#012C3D" fill-rule="nonzero">
            <g id="conference" transform="translate(307.000000, 205.000000)">
                <path d="M5.72015625,7.4896875 L6.0345,7.4896875 C6.45848438,9.19898438 8.00517188,10.47 9.84375,10.47 C10.359,10.47 10.8601406,10.3715625 11.33325,10.1774531 C11.7900469,9.99 12.2030156,9.72103125 12.5606719,9.37795312 C12.7007813,9.24351563 12.7054688,9.021 12.5710313,8.88089063 C12.4366406,8.74078125 12.2140313,8.73614063 12.0739688,8.87053125 C11.7801563,9.15229687 11.4412031,9.37317188 11.0663906,9.52696875 C10.6783594,9.68615625 10.2669844,9.766875 9.84375,9.766875 C8.06728125,9.766875 6.62203125,8.321625 6.62203125,6.54515625 L6.62203125,5.1534375 C7.30260938,5.10375 7.8796875,4.65065625 8.08664063,3.99220313 C8.89978125,4.7454375 9.95090625,5.15817187 11.0654531,5.15817187 L13.0655156,5.15817187 L13.0655156,6.54515625 C13.0655156,6.99075 12.9765938,7.42148437 12.8011406,7.82545312 C12.7237969,8.00353125 12.8054531,8.210625 12.9835781,8.28796875 C13.0291875,8.30775 13.0766719,8.31717187 13.1234063,8.31717187 C13.2591563,8.31717187 13.3885313,8.23804687 13.4460469,8.10557812 C13.533,7.90532812 13.601625,7.69959375 13.6535625,7.48973437 L13.9673906,7.48973437 C14.2843594,7.48973437 14.5827656,7.36621875 14.808,7.14164062 C15.0325313,6.91715625 15.1561875,6.61860937 15.1561875,6.30098437 C15.1561875,5.64553125 14.6228906,5.11223437 13.9674375,5.11223437 L13.7687344,5.11223437 L13.7687344,4.80660937 C13.7687344,4.806 13.7686406,4.80539062 13.7686406,4.80478125 L13.7686406,3.45604688 C13.7685469,1.55039063 12.2181094,0 10.3124531,0 L9.375,0 C7.46934375,0 5.91895313,1.55039063 5.91895313,3.45604688 L5.91895313,4.80473437 C5.91895313,4.80534375 5.91885938,4.80595312 5.91885938,4.8065625 L5.91885938,5.1121875 L5.72015625,5.1121875 C5.06470313,5.1121875 4.53140625,5.6454375 4.53140625,6.3009375 C4.53140625,6.6185625 4.6550625,6.91710938 4.87992188,7.14192188 C5.10478125,7.36617188 5.40323438,7.4896875 5.72015625,7.4896875 Z M13.9673438,5.8153125 C14.2351406,5.8153125 14.4529688,6.03314062 14.4529688,6.3009375 C14.4529688,6.43073438 14.4024844,6.55270313 14.311125,6.64401563 C14.2189219,6.7359375 14.0968594,6.7865625 13.9673438,6.7865625 L13.760625,6.7865625 C13.7654531,6.70645313 13.7686406,6.6260625 13.7686406,6.54515625 L13.7686406,5.8153125 L13.9673438,5.8153125 Z M6.62207812,3.45604688 C6.62207812,1.93809375 7.85704687,0.703125 9.375,0.703125 L10.3124531,0.703125 C11.8304531,0.703125 13.065375,1.93809375 13.065375,3.45604688 L13.065375,4.45504687 L11.0654063,4.45504687 C10.0812188,4.45504687 9.15590625,4.07175 8.45995313,3.37584375 L8.16651563,3.08240625 C8.09971875,3.01565625 8.01,2.97942187 7.91789063,2.97942187 C7.88925,2.97942187 7.86032813,2.9829375 7.83192188,2.99010937 C7.711875,3.02039062 7.61667188,3.11151562 7.58109375,3.2300625 L7.41984375,3.76828125 C7.30889063,4.13854688 6.99670313,4.39926562 6.62207812,4.447125 L6.62207812,3.45604688 Z M5.72015625,5.8153125 L5.91885938,5.8153125 L5.91885938,6.54515625 C5.91885938,6.62629688 5.92214063,6.70664063 5.92701563,6.7865625 L5.72015625,6.7865625 C5.59064063,6.7865625 5.46857813,6.7359375 5.37670313,6.64434375 C5.28501563,6.55265625 5.23453125,6.4306875 5.23453125,6.3009375 C5.23453125,6.0331875 5.45235938,5.8153125 5.72015625,5.8153125 Z" id="Shape"></path>
                <path d="M9.84375,5.72657813 C9.64954688,5.72657813 9.4921875,5.88398438 9.4921875,6.07814063 L9.4921875,7.453125 C9.4921875,7.64728125 9.64954688,7.8046875 9.84375,7.8046875 L10.5781406,7.8046875 C10.7723438,7.8046875 10.9297031,7.64728125 10.9297031,7.453125 C10.9297031,7.25896875 10.7723438,7.1015625 10.5781406,7.1015625 L10.1953125,7.1015625 L10.1953125,6.07814063 C10.1953125,5.8839375 10.0379531,5.72657813 9.84375,5.72657813 Z" id="Path"></path>
                <path d="M18.9729375,14.8070625 L14.91375,14.8070625 L14.91375,14.7196875 C14.91375,13.2139219 14.0135156,11.9153906 12.7235156,11.3315156 C12.7169531,11.3280938 12.7104844,11.3244844 12.7036406,11.3214844 C12.6948281,11.3175469 12.6857812,11.3143125 12.6769219,11.3104688 C12.6404531,11.2945781 12.6035625,11.2795781 12.5664844,11.2648125 C12.5456719,11.2565156 12.5249062,11.2480313 12.504,11.2401094 C12.4652812,11.2254844 12.4260469,11.2119844 12.3867656,11.198625 C12.3659531,11.1915469 12.3452344,11.1841406 12.3243281,11.1774375 C12.2866875,11.1654375 12.2485312,11.1545625 12.210375,11.1437344 C12.1871719,11.137125 12.1640625,11.1300469 12.1407187,11.1239063 C12.10575,11.1147188 12.0703125,11.10675 12.0349688,11.0985469 C12.0083438,11.0923594 11.9817656,11.0856094 11.955,11.0800313 C11.9229375,11.073375 11.8904531,11.0679844 11.8580625,11.062125 C11.8279688,11.0566875 11.7980156,11.0506406 11.7677344,11.0459531 C11.737125,11.0412188 11.7060938,11.0378438 11.67525,11.0338594 C11.6432812,11.0297344 11.6114062,11.0249063 11.57925,11.021625 C11.5447031,11.0180625 11.5097344,11.0160938 11.4749063,11.0135156 C11.4462656,11.0114063 11.4177656,11.0084531 11.3890313,11.0069531 C11.3252344,11.0036719 11.2610625,11.0019844 11.1964688,11.0019844 L11.0267813,11.0019844 L8.66053125,11.0019844 L8.49084375,11.0019844 C8.42625,11.0019844 8.36207813,11.0036719 8.29828125,11.0069531 C8.26954688,11.0084063 8.24104688,11.0113594 8.21240625,11.0135156 C8.17757813,11.0160938 8.14260938,11.0181094 8.1080625,11.021625 C8.07590625,11.0249063 8.04403125,11.0297344 8.0120625,11.0338594 C7.98121875,11.0378438 7.9501875,11.0412188 7.91957813,11.0459531 C7.88934375,11.0506406 7.85934375,11.0566875 7.82925,11.062125 C7.79690625,11.0679844 7.764375,11.0733281 7.7323125,11.0800313 C7.70554688,11.0856094 7.67901563,11.0923594 7.65234375,11.0985469 C7.617,11.10675 7.5815625,11.1146719 7.54659375,11.1239063 C7.52325,11.1300469 7.5001875,11.137125 7.4769375,11.1437344 C7.43878125,11.1545625 7.400625,11.1654375 7.36298438,11.1774375 C7.34207813,11.1841406 7.32135938,11.1915469 7.30054688,11.198625 C7.26121875,11.2119375 7.22203125,11.2254844 7.1833125,11.2401094 C7.16240625,11.2479844 7.14164063,11.2565156 7.12082813,11.2648125 C7.08379688,11.2795781 7.04685938,11.2945313 7.01039063,11.3104688 C7.00153125,11.3143125 6.99253125,11.3175938 6.98367188,11.3214844 C6.97682813,11.3244844 6.97040625,11.3280938 6.96379688,11.3315156 C5.67379688,11.9153438 4.7735625,13.2139219 4.7735625,14.7196875 L4.7735625,14.8070625 L2.61942188,14.8070625 L2.61942188,12.403875 C2.61942188,12.2791875 2.6865,12.1630312 2.79445313,12.1006875 L3.6975,11.5793437 C3.92976563,11.7995156 4.23745313,11.919375 4.55151563,11.919375 C4.76142188,11.919375 4.974,11.8660312 5.1684375,11.7537656 L6.15370313,11.1849375 C6.74489063,10.8435937 6.9481875,10.0849219 6.60689063,9.4936875 C6.2655,8.90245312 5.5066875,8.69929687 4.91564063,9.04054688 L3.93060937,9.609375 C3.44517188,9.8896875 3.22157812,10.4512969 3.34598437,10.9705313 L2.443125,11.4917812 C2.11828125,11.6793281 1.91653125,12.0288281 1.91653125,12.403875 L1.91653125,14.8070625 L0.7145625,14.8070625 C0.341578125,14.8070625 0.03815625,15.1104844 0.03815625,15.4834687 L0.03815625,16.7652187 C0.03815625,17.1382031 0.341578125,17.441625 0.7145625,17.441625 L1.70770312,17.441625 L1.70770312,18.6246094 C1.70770312,19.0254844 2.03385937,19.3516406 2.43473437,19.3516406 L2.4838125,19.3516406 C3.42314062,19.3516406 4.18739062,20.1158906 4.18739062,21.0552187 L4.18739062,21.11925 C4.18739062,21.3134062 4.34475,21.4708125 4.53895313,21.4708125 C4.73315625,21.4708125 4.89051562,21.3134062 4.89051562,21.11925 L4.89051562,21.0552187 C4.89051562,19.7281406 3.81089062,18.6485156 2.4838125,18.6485156 L2.4346875,18.6485156 C2.42151562,18.6485156 2.41078125,18.6377812 2.41078125,18.6246094 L2.41078125,17.441625 L13.85925,17.441625 C14.0534531,17.441625 14.2108125,17.2842187 14.2108125,17.0900625 C14.2108125,16.8959062 14.0534531,16.7385 13.85925,16.7385 L0.74128125,16.7385 L0.74128125,15.5102344 L18.9461719,15.5102344 L18.9461719,16.7385 L15.2655,16.7385 C15.0712969,16.7385 14.9139375,16.8959062 14.9139375,17.0900625 C14.9139375,17.2842187 15.0712969,17.441625 15.2655,17.441625 L17.276625,17.441625 L17.276625,18.6246094 C17.276625,18.6377812 17.2658906,18.6485156 17.2527187,18.6485156 L17.2036406,18.6485156 C15.8765625,18.6485156 14.7969375,19.7281875 14.7969375,21.0552187 L14.7969375,23.296875 L12.3847031,23.296875 L12.3847031,21.2462812 C12.3847031,21.052125 12.2273437,20.8947187 12.0331406,20.8947187 C11.8389375,20.8947187 11.6815781,21.052125 11.6815781,21.2462812 L11.6815781,23.296875 L10.1953125,23.296875 L10.1953125,20.46375 C10.1953125,20.2695937 10.0379531,20.1121875 9.84375,20.1121875 C9.64954688,20.1121875 9.4921875,20.2695937 9.4921875,20.46375 L9.4921875,23.296875 L8.00582812,23.296875 L8.00582812,21.2462812 C8.00582812,21.052125 7.84846875,20.8947187 7.65426562,20.8947187 C7.4600625,20.8947187 7.30270312,21.052125 7.30270312,21.2462812 L7.30270312,23.296875 L4.89046875,23.296875 L4.89046875,22.5255 C4.89046875,22.3313437 4.73310937,22.1739375 4.53890625,22.1739375 C4.34470313,22.1739375 4.18734375,22.3313437 4.18734375,22.5255 L4.18734375,23.6484375 C4.18734375,23.8425937 4.34470313,24 4.53890625,24 L15.1485937,24 C15.3427969,24 15.5001562,23.8425937 15.5001562,23.6484375 L15.5001562,21.0552187 C15.5001562,20.1158437 16.2644062,19.3516406 17.2037344,19.3516406 L17.2528125,19.3516406 C17.6536875,19.3516406 17.9798438,19.0254844 17.9798438,18.6246094 L17.9798438,17.441625 L18.9729844,17.441625 C19.3459687,17.441625 19.6493906,17.1382031 19.6493906,16.7652187 L19.6493906,15.4834687 C19.6493437,15.1104844 19.3459219,14.8070625 18.9729375,14.8070625 Z M4.28217188,10.2183281 L5.2674375,9.6495 C5.35148438,9.60098438 5.4433125,9.57796875 5.53401563,9.57796875 C5.71903125,9.57796875 5.89926563,9.67392188 5.99821875,9.84529688 C6.1456875,10.1007656 6.05779687,10.4285625 5.802375,10.5760781 L4.81710938,11.1449063 C4.56164063,11.292375 4.23389063,11.2045313 4.086375,10.9491094 C3.93885938,10.6935938 4.02670313,10.3657969 4.28217188,10.2183281 Z M14.210625,14.7196875 L14.210625,14.8070625 L11.3635781,14.8070625 L12.7157813,12.1177031 C13.6090781,12.6414844 14.210625,13.611375 14.210625,14.7196875 Z M10.6628437,12.6523594 C11.0046562,12.4378594 11.2450312,12.0993281 11.3367656,11.7087656 C11.3488594,11.7093281 11.3609062,11.7100313 11.3729531,11.7107344 C11.4102187,11.7128906 11.4473437,11.7157031 11.4842344,11.7192188 C11.4938437,11.7201094 11.5035,11.7208594 11.5131094,11.7218906 C11.5592344,11.7267188 11.6050781,11.7325313 11.6505469,11.7394219 C11.6569219,11.7404063 11.6632969,11.741625 11.6696719,11.7426094 C11.7083906,11.74875 11.7468281,11.7556875 11.7849844,11.7632813 C11.7973125,11.7657188 11.8096406,11.76825 11.8219219,11.770875 C11.8570781,11.7783281 11.892,11.7864375 11.9266875,11.7951094 C11.9365312,11.7975469 11.9464219,11.79975 11.9562187,11.8023281 C11.9947969,11.8124063 12.0329531,11.8234688 12.0709219,11.835 L10.8793594,14.2048125 L10.6628437,12.6523594 Z M10.59825,11.7051563 C10.5107344,11.8938281 10.353375,12.0463125 10.1502188,12.1270781 C9.99970313,12.1869375 9.9095625,12.3419063 9.93196875,12.5023594 L10.2535313,14.8070625 L9.43396875,14.8070625 L9.75553125,12.5023594 C9.7779375,12.3419063 9.68779688,12.1869375 9.53728125,12.1270781 C9.334125,12.0463125 9.1768125,11.8938281 9.08925,11.7051563 L10.59825,11.7051563 Z M7.73123438,11.8022813 C7.74103125,11.7997031 7.75092187,11.7975 7.76076563,11.7950625 C7.79545313,11.7863906 7.830375,11.7782813 7.86553125,11.7708281 C7.8778125,11.7682031 7.89014063,11.7656719 7.90246875,11.7632344 C7.94067188,11.7556406 7.97910938,11.7487031 8.01778125,11.7425625 C8.02415625,11.7415313 8.03053125,11.7403125 8.03690625,11.739375 C8.082375,11.7324844 8.12821875,11.7266719 8.17434375,11.7218438 C8.18395313,11.7208594 8.19360937,11.7201094 8.20321875,11.7191719 C8.24010938,11.7156563 8.2771875,11.7128438 8.3145,11.7106875 C8.32654688,11.7099844 8.33859375,11.7092344 8.3506875,11.7087188 C8.44246875,12.0992813 8.68284375,12.4378125 9.02460938,12.6523125 L8.808,14.2047188 L7.6164375,11.8349063 C7.6545,11.8234219 7.69265625,11.8123594 7.73123438,11.8022813 Z M5.476875,14.7196875 C5.476875,13.611375 6.07842188,12.6414844 6.97171875,12.1177031 L8.32392188,14.8070625 L5.476875,14.8070625 L5.476875,14.7196875 Z" id="Shape"></path>
                <path d="M2.61942187,14.8070625 L2.61942187,12.403875 C2.61942187,12.2791875 2.6865,12.1630312 2.79445312,12.1006875 L3.6975,11.5793437 C3.92976562,11.7995156 4.23745312,11.919375 4.55151562,11.919375 C4.76142187,11.919375 4.974,11.8660312 5.1684375,11.7537656 L6.15370312,11.1849375 C6.74489062,10.8435937 6.9481875,10.0849219 6.60689062,9.4936875 C6.2655,8.90245312 5.5066875,8.69929687 4.91564062,9.04054687 L3.93060937,9.609375 C3.44517187,9.8896875 3.22157812,10.4512969 3.34598437,10.9705312 L2.443125,11.4917812 C2.11828125,11.6793281 1.91653125,12.0288281 1.91653125,12.403875 L1.91653125,14.8070625 L2.61942187,14.8070625 Z M4.28217188,10.2183281 L5.2674375,9.6495 C5.35148438,9.60098438 5.4433125,9.57796875 5.53401563,9.57796875 C5.71903125,9.57796875 5.89926563,9.67392188 5.99821875,9.84529688 C6.1456875,10.1007656 6.05779688,10.4285625 5.802375,10.5760781 L4.81710938,11.1449063 C4.56164063,11.292375 4.23389063,11.2045313 4.086375,10.9491094 C3.93885938,10.6935938 4.02670313,10.3657969 4.28217188,10.2183281 Z" id="Shape"></path>
            </g>
        </g>
    </g>
</svg>