<?xml version="1.0" encoding="UTF-8"?>
<svg width="24px" height="24px" viewBox="0 0 24 24" version="1.1" xmlns="http://www.w3.org/2000/svg" xmlns:xlink="http://www.w3.org/1999/xlink">
    <!-- Generator: Sketch 55 (78076) - https://sketchapp.com -->
    <title>destination</title>
    <desc>Created with Sketch.</desc>
    <g id="Page-1" stroke="none" stroke-width="1" fill="none" fill-rule="evenodd">
        <g id="Home" transform="translate(-305.000000, -396.000000)" fill="#012C3D" fill-rule="nonzero">
            <g id="destination" transform="translate(305.000000, 396.000000)">
                <path d="M4.4,22.4 C4.52128905,22.4 4.6361328,22.3447265 4.71191405,22.25 C4.8800781,22.0419922 8.8,17.1232422 8.8,14.8 C8.8,12.3699219 6.8300781,10.4 4.4,10.4 C1.9699219,10.4 0,12.3699219 0,14.8 C0,17.1232422 3.9199219,22.0400391 4.08808595,22.25 C4.1638672,22.3447265 4.27871095,22.4 4.4,22.4 Z M4.4,11.2 C6.3873047,11.2021484 7.99785155,12.8126953 8,14.8 C8,16.3519531 5.6355469,19.7455078 4.4,21.3515625 C3.1644531,19.7460937 0.8,16.3527344 0.8,14.8 C0.80214845,12.8126953 2.4126953,11.2021484 4.4,11.2 Z" id="Shape"></path>
                <path d="M6,14.4 C6,13.5164062 5.28359375,12.8 4.4,12.8 C3.51640625,12.8 2.8,13.5164062 2.8,14.4 C2.8,15.2835937 3.51640625,16 4.4,16 C5.28359375,16 6,15.2835937 6,14.4 Z M3.6,14.4 C3.6,13.9582031 3.9582031,13.6 4.4,13.6 C4.8417969,13.6 5.2,13.9582031 5.2,14.4 C5.2,14.8417969 4.8417969,15.2 4.4,15.2 C3.9582031,15.2 3.6,14.8417969 3.6,14.4 Z" id="Shape"></path>
                <path d="M20.8,8.4 C20.9166015,8.4 21.0271485,8.34921875 21.103125,8.2607422 C21.4,7.91640625 24,4.8472656 24,3.2 C24,1.4326172 22.5673828,0 20.8,0 C19.0326172,0 17.6,1.4326172 17.6,3.2 C17.6,4.8472656 20.2,7.91640625 20.496875,8.2607422 C20.5728515,8.34921875 20.6833985,8.4 20.8,8.4 Z M20.8,0.8 C22.125,0.8013672 23.1986328,1.875 23.2,3.2 C23.2,4.2136719 21.6728516,6.30234375 20.8,7.37558595 C19.9267578,6.30234375 18.4,4.215625 18.4,3.2 C18.4013672,1.875 19.475,0.8013672 20.8,0.8 Z" id="Shape"></path>
                <path d="M22,2.8 C22,2.1373047 21.4626953,1.6 20.8,1.6 C20.1373047,1.6 19.6,2.1373047 19.6,2.8 C19.6,3.4626953 20.1373047,4 20.8,4 C21.4626953,4 22,3.4626953 22,2.8 Z M20.4,2.8 C20.4,2.57910155 20.5791016,2.4 20.8,2.4 C21.0208985,2.4 21.2,2.57910155 21.2,2.8 C21.2,3.02089845 21.0208985,3.2 20.8,3.2 C20.5791016,3.2 20.4,3.02089845 20.4,2.8 Z" id="Shape"></path>
                <path d="M20.4,10 L20.8,10 C21.0208985,10 21.2,9.82089845 21.2,9.6 C21.2,9.37910155 21.0208985,9.2 20.8,9.2 L20.4,9.2 C20.1791015,9.2 20,9.37910155 20,9.6 C20,9.82089845 20.1791015,10 20.4,10 Z" id="Path"></path>
                <path d="M15.2,12.4 L16.0087891,12.4 C16.2296875,12.4 16.4087891,12.2208984 16.4087891,12 C16.4087891,11.7791016 16.2296875,11.6 16.0087891,11.6 L15.1935547,11.6 C15.0878906,11.6001953 14.9865235,11.6425781 14.9121094,11.7175781 C14.8376953,11.7925781 14.7960938,11.894336 14.796875,12 C14.7982422,12.2214844 14.9785156,12.4001953 15.2,12.4 L15.2,12.4 Z" id="Path"></path>
                <path d="M19.684375,12 C19.684375,12.2208985 19.8634766,12.4 20.084375,12.4 L20.8992187,12.4 C21.1201172,12.4 21.2992187,12.2208985 21.2992187,12 C21.2992187,11.7791016 21.1201172,11.6 20.8992187,11.6 L20.084375,11.6 C19.8634766,11.6 19.684375,11.7791016 19.684375,12 Z" id="Path"></path>
                <path d="M17.9548828,10 L18.7699219,10 C18.9908203,10 19.1699219,9.82089845 19.1699219,9.6 C19.1699219,9.37910155 18.9908203,9.2 18.7699219,9.2 L17.9548828,9.2 C17.733789,9.2 17.5548828,9.37910155 17.5548828,9.6 C17.5548828,9.82089845 17.733789,10 17.9548828,10 Z" id="Path"></path>
                <path d="M7.2859375,23.2 L6.4707031,23.2 C6.2498047,23.2 6.0707031,23.3791016 6.0707031,23.6 C6.0707031,23.8208984 6.2498047,24 6.4707031,24 L7.2859375,24 C7.50683595,24 7.6859375,23.8208984 7.6859375,23.6 C7.6859375,23.3791016 7.50683595,23.2 7.2859375,23.2 Z" id="Path"></path>
                <path d="M14.0251953,11.4480469 C14.053125,11.4480469 14.0808594,11.4451172 14.1080078,11.4392578 C14.3240234,11.39375 14.4623047,11.1820313 14.4171875,10.9660156 C14.4058594,10.9113281 14.4001953,10.8558594 14.4,10.8 C14.3998047,10.6734375 14.4296875,10.5488281 14.4871094,10.4359375 C14.5873047,10.2390625 14.5089844,9.9982422 14.311914,9.8980469 C14.115039,9.79785155 13.8742188,9.8761719 13.7740234,10.0732422 C13.6082031,10.3988281 13.5589844,10.7716797 13.634375,11.1292969 C13.6728515,11.3144531 13.8359375,11.4476563 14.0251953,11.4480469 L14.0251953,11.4480469 Z" id="Path"></path>
                <path d="M17.6400391,12.4 L18.4552735,12.4 C18.6761719,12.4 18.8552735,12.2208985 18.8552735,12 C18.8552735,11.7791016 18.6761719,11.6 18.4552735,11.6 L17.6400391,11.6 C17.4191406,11.6 17.2400391,11.7791016 17.2400391,12 C17.2400391,12.2208985 17.4191406,12.4 17.6400391,12.4 Z" id="Path"></path>
                <path d="M15.5095703,10 L16.3248047,10 C16.5457031,10 16.7248047,9.82089845 16.7248047,9.6 C16.7248047,9.37910155 16.5457031,9.2 16.3248047,9.2 L15.5095703,9.2 C15.2886719,9.2 15.1095703,9.37910155 15.1095703,9.6 C15.1095703,9.82089845 15.2886719,10 15.5095703,10 Z" id="Path"></path>
                <path d="M11.556836,16.9507812 C11.5884766,16.9589844 11.6212891,16.9628906 11.6539063,16.9628906 C11.8375,16.9625 11.9972656,16.8375 12.0416016,16.6595703 C12.0933594,16.4539062 12.1908203,16.2625 12.3267578,16.0996094 C12.4228516,15.990625 12.4521484,15.8382812 12.403711,15.7015625 C12.3552735,15.5646484 12.2363281,15.4648437 12.0931641,15.440625 C11.9501953,15.4166015 11.8050781,15.471875 11.7144531,15.5851562 C11.5001953,15.8408203 11.3466797,16.1416015 11.265625,16.4652344 C11.2396485,16.568164 11.2558594,16.6773437 11.3105469,16.7683594 C11.3650391,16.8595703 11.453711,16.9251953 11.556836,16.9507812 L11.556836,16.9507812 Z" id="Path"></path>
                <path d="M19.4591797,23.1832031 C19.3732422,23.1945313 19.2867187,23.2001953 19.2,23.2 L18.6964844,23.2 C18.4753906,23.2 18.2964844,23.3791016 18.2964844,23.6 C18.2964844,23.8208985 18.4753906,24 18.6964844,24 L19.2,24 C19.3203125,24 19.440625,23.9921875 19.559961,23.9767578 C19.7791016,23.9484375 19.933789,23.7478516 19.905664,23.528711 C19.8773438,23.3095703 19.6767578,23.1548828 19.4576172,23.1832031 L19.4591797,23.1832031 Z" id="Path"></path>
                <path d="M20.0164062,18.5199219 C19.7517578,18.4398437 19.4765625,18.399414 19.2,18.4 L19.0951172,18.4 C18.8742187,18.4 18.6951172,18.5791015 18.6951172,18.8 C18.6951172,19.0208984 18.8742187,19.2 19.0951172,19.2 L19.2,19.2 C19.3976562,19.2 19.5943359,19.2291015 19.7835937,19.2863281 C19.821289,19.2980469 19.8605469,19.3039062 19.9,19.3039062 C20.0982422,19.3041015 20.2667969,19.1589844 20.2960937,18.9628906 C20.3251953,18.7666015 20.20625,18.5787109 20.0164062,18.521289 L20.0164062,18.5199219 Z" id="Path"></path>
                <path d="M19.1632812,15.6 C19.3841797,15.6 19.5632812,15.4208985 19.5632812,15.2 C19.5632812,14.9791015 19.3841797,14.8 19.1632812,14.8 L18.3484375,14.8 C18.127539,14.8 17.9484375,14.9791015 17.9484375,15.2 C17.9484375,15.4208985 18.127539,15.6 18.3484375,15.6 L19.1632812,15.6 Z" id="Path"></path>
                <path d="M21.5535156,21.8195312 C21.3523437,21.7289062 21.115625,21.8183594 21.0248047,22.0195312 C20.9316406,22.2263672 20.8037109,22.4158203 20.646875,22.5796875 C20.5441406,22.6822265 20.5050781,22.8322265 20.5447266,22.9716797 C20.584375,23.1113281 20.6964844,23.2185547 20.8375,23.2517578 C20.9787109,23.2851562 21.1269531,23.2394531 21.2248047,23.1324219 C21.4447265,22.903125 21.6240234,22.6376953 21.7544922,22.3480469 C21.8447265,22.1466797 21.7548828,21.9101562 21.5535156,21.8195312 L21.5535156,21.8195312 Z" id="Path"></path>
                <path d="M23.6484375,13.6703125 C23.5466797,13.6402344 23.4371094,13.6517578 23.34375,13.7025391 C23.250586,13.7533203 23.18125,13.8390625 23.1511719,13.9408203 C23.0923828,14.1369141 22.9849609,14.3150391 22.8388672,14.4583985 C22.6808594,14.613086 22.678125,14.8664063 22.8328125,15.0244141 C22.9875,15.1824219 23.2408203,15.184961 23.3988281,15.0304688 C23.6425781,14.7916016 23.8214844,14.4947266 23.91875,14.1675781 C23.9490234,14.0658203 23.9373047,13.95625 23.8867187,13.8628906 C23.8359375,13.7697266 23.7501953,13.7003906 23.6484375,13.6703125 L23.6484375,13.6703125 Z" id="Path"></path>
                <path d="M23.1919922,12.9320313 C23.35,12.9322266 23.4931641,12.8392578 23.5576172,12.6951172 C23.621875,12.5509766 23.5955078,12.3824219 23.4900391,12.2648438 C23.2617188,12.0109375 22.9726563,11.819336 22.65,11.7080078 C22.4410156,11.6361328 22.2134766,11.747461 22.1416016,11.9564453 C22.0697266,12.1654297 22.1810547,12.3929688 22.3900391,12.4648438 C22.5837891,12.5314453 22.7572266,12.6464844 22.8939453,12.7992188 C22.9699219,12.8837891 23.0783203,12.9320313 23.1919922,12.9320313 Z" id="Path"></path>
                <path d="M17.4652344,18.4 L16.6503906,18.4 C16.4294922,18.4 16.2503906,18.5791015 16.2503906,18.8 C16.2503906,19.0208984 16.4294922,19.2 16.6503906,19.2 L17.4652344,19.2 C17.6861328,19.2 17.8652344,19.0208984 17.8652344,18.8 C17.8652344,18.5791015 17.6861328,18.4 17.4652344,18.4 Z" id="Path"></path>
                <path d="M21.6083985,14.8 L20.7931641,14.8 C20.5722656,14.8 20.3931641,14.9791015 20.3931641,15.2 C20.3931641,15.4208985 20.5722656,15.6 20.7931641,15.6 L21.6083985,15.6 C21.8292969,15.6 22.0083985,15.4208985 22.0083985,15.2 C22.0083985,14.9791015 21.8292969,14.8 21.6083985,14.8 Z" id="Path"></path>
                <path d="M9.7308594,23.2 L8.9160156,23.2 C8.6951172,23.2 8.5160156,23.3791016 8.5160156,23.6 C8.5160156,23.8208984 8.6951172,24 8.9160156,24 L9.7308594,24 C9.9517578,24 10.1308594,23.8208984 10.1308594,23.6 C10.1308594,23.3791016 9.9517578,23.2 9.7308594,23.2 Z" id="Path"></path>
                <path d="M21.5171875,19.6279297 C21.3923828,19.4453125 21.1431641,19.3984375 20.9603516,19.5232422 C20.7777344,19.6480469 20.7308594,19.8972656 20.8556641,20.0800781 C20.9833985,20.2671875 21.078125,20.4748047 21.1355469,20.6939453 C21.1667969,20.8371094 21.2738281,20.9517578 21.4146485,20.9927735 C21.5552735,21.0337891 21.7070313,20.9945313 21.8103516,20.8904297 C21.9134766,20.7865235 21.9515625,20.634375 21.9095703,20.4939453 C21.8294922,20.184961 21.696875,19.8919922 21.5171875,19.6279297 L21.5171875,19.6279297 Z" id="Path"></path>
                <path d="M12.7808594,18.2564453 C12.5908203,18.1617187 12.4246094,18.0257813 12.2939453,17.8583984 C12.1583984,17.6837891 11.9070312,17.6523438 11.7326172,17.7878906 C11.5580078,17.9232422 11.5265625,18.1746094 11.6619141,18.3492187 C11.8667969,18.6121094 12.128125,18.8255859 12.4267578,18.9736328 C12.6238281,19.065625 12.8583984,18.9832031 12.9546875,18.7880859 C13.0509765,18.593164 12.9736328,18.3568359 12.7808594,18.2564453 L12.7808594,18.2564453 Z" id="Path"></path>
                <path d="M12.1759766,23.2 L11.359961,23.2 C11.1390625,23.2 10.959961,23.3791016 10.959961,23.6 C10.959961,23.8208984 11.1390625,24 11.359961,24 L12.1759766,24 C12.396875,24 12.5759766,23.8208984 12.5759766,23.6 C12.5759766,23.3791016 12.396875,23.2 12.1759766,23.2 Z" id="Path"></path>
                <path d="M17.0664062,23.2 L16.2515625,23.2 C16.030664,23.2 15.8515625,23.3791016 15.8515625,23.6 C15.8515625,23.8208984 16.030664,24 16.2515625,24 L17.0664062,24 C17.2873047,24 17.4664062,23.8208984 17.4664062,23.6 C17.4664062,23.3791016 17.2873047,23.2 17.0664062,23.2 Z" id="Path"></path>
                <path d="M14.2732422,15.6 C14.4941406,15.6 14.6732422,15.4208985 14.6732422,15.2 C14.6732422,14.9791015 14.4941406,14.8 14.2732422,14.8 L13.4583985,14.8 C13.2375,14.8 13.0583985,14.9791015 13.0583985,15.2 C13.0583985,15.4208985 13.2375,15.6 13.4583985,15.6 L14.2732422,15.6 Z" id="Path"></path>
                <path d="M16.7199219,15.6 C16.9408203,15.6 17.1199219,15.4208985 17.1199219,15.2 C17.1199219,14.9791015 16.9408203,14.8 16.7199219,14.8 L15.903125,14.8 C15.6822265,14.8 15.503125,14.9791015 15.503125,15.2 C15.503125,15.4208985 15.6822265,15.6 15.903125,15.6 L16.7199219,15.6 Z" id="Path"></path>
                <path d="M15.0203125,18.4 L14.2052734,18.4 C13.984375,18.4 13.8052735,18.5791015 13.8052735,18.8 C13.8052735,19.0208984 13.984375,19.2 14.2052734,19.2 L15.0203125,19.2 C15.2414062,19.2 15.4203125,19.0208984 15.4203125,18.8 C15.4203125,18.5791015 15.2414062,18.4 15.0203125,18.4 Z" id="Path"></path>
                <path d="M14.6216797,23.2 L13.8064453,23.2 C13.5855469,23.2 13.4064453,23.3791016 13.4064453,23.6 C13.4064453,23.8208984 13.5855469,24 13.8064453,24 L14.6216797,24 C14.8425781,24 15.0216797,23.8208984 15.0216797,23.6 C15.0216797,23.3791016 14.8425781,23.2 14.6216797,23.2 Z" id="Path"></path>
                <path d="M4.8,23.2 L4.4,23.2 C4.17910155,23.2 4,23.3791016 4,23.6 C4,23.8208984 4.17910155,24 4.4,24 L4.8,24 C5.02089845,24 5.2,23.8208984 5.2,23.6 C5.2,23.3791016 5.02089845,23.2 4.8,23.2 Z" id="Path"></path>
            </g>
        </g>
    </g>
</svg>