<?xml version="1.0" encoding="UTF-8"?>
<svg width="28px" height="24px" viewBox="0 0 28 24" version="1.1" xmlns="http://www.w3.org/2000/svg" xmlns:xlink="http://www.w3.org/1999/xlink">
    <!-- Generator: Sketch 55 (78076) - https://sketchapp.com -->
    <title>document</title>
    <desc>Created with Sketch.</desc>
    <g id="Page-1" stroke="none" stroke-width="1" fill="none" fill-rule="evenodd">
        <g id="Home" transform="translate(-303.000000, -252.000000)" fill="#012C3D" fill-rule="nonzero">
            <g id="document" transform="translate(303.000000, 252.000000)">
                <path d="M27.5394545,5.96634545 L17.4655091,0.150490909 C17.286,0.0465272727 17.0767636,0.0188727273 16.8765273,0.0724909091 C16.6761818,0.126218182 16.5088909,0.254890909 16.4059636,0.434018182 L15.7117091,1.63625455 C15.6135818,1.61869091 15.5127818,1.60898182 15.4096909,1.60898182 L8.56036364,1.60898182 C8.33443636,1.60898182 8.15127273,1.79209091 8.15127273,2.01807273 C8.15127273,2.24405455 8.33443636,2.42716364 8.56036364,2.42716364 L15.4096364,2.42716364 C15.9016909,2.42716364 16.302,2.8272 16.302,3.31898182 L16.302,22.2435273 C16.302,22.7353091 15.9016909,23.1354 15.4096364,23.1354 L3.33,23.1354 C2.83794545,23.1354 2.43763636,22.7353091 2.43763636,22.2435273 L2.43763636,19.7724 L3.47149091,19.7724 C3.79445455,19.7724 4.05725455,19.5096545 4.05725455,19.1866364 L4.05725455,18.1265455 C4.05725455,17.8035818 3.79450909,17.5408364 3.47149091,17.5408364 L0.585763636,17.5408364 C0.262745455,17.5408909 0,17.8036364 0,18.1266 L0,19.1866909 C0,19.5097091 0.262745455,19.7724545 0.585763636,19.7724545 L1.61945455,19.7724545 L1.61945455,22.2435818 C1.61945455,23.1865091 2.3868,23.9536364 3.33,23.9536364 L15.4096364,23.9536364 C16.3528364,23.9536364 17.1201818,23.1865636 17.1201818,22.2435818 L17.1201818,14.8324909 L19.7225455,16.3349455 C19.7869636,16.3721455 19.8573273,16.3898182 19.9267091,16.3898182 C20.0680909,16.3898182 20.2056,16.3164545 20.2813636,16.1852182 C20.3943273,15.9895636 20.3272909,15.7393636 20.1316364,15.6264 L17.1201818,13.8877636 L17.1201818,12.6217636 L20.6798182,14.6767636 C20.7442909,14.7139636 20.8146,14.7316364 20.8839818,14.7316364 C21.0253636,14.7316364 21.1628727,14.6582727 21.2386364,14.5270364 C21.3516,14.3313273 21.2845636,14.0811273 21.0889091,13.9682182 L17.1201818,11.6770364 L17.1201818,10.4110909 L21.6370909,13.0191273 C21.7015636,13.0563273 21.7718727,13.074 21.8413091,13.074 C21.9826364,13.074 22.1202,13.0006364 22.1959636,12.8694 C22.3089273,12.6737455 22.2418909,12.4235455 22.0462364,12.3105818 L17.1201818,9.46625455 L17.1201818,8.20030909 L22.5943636,11.3609455 C22.6587818,11.3981455 22.7291455,11.4158182 22.7985273,11.4158182 C22.9399091,11.4158182 23.0774182,11.3424545 23.1531818,11.2112182 C23.2661455,11.0155636 23.1991091,10.7653636 23.0034545,10.6524 L17.1201818,7.25558182 L17.1201818,3.31903636 C17.1201818,2.77276364 16.8623455,2.28594545 16.4622545,1.97263636 L17.0930727,0.880309091 L27.0935455,6.65372727 L18.4333091,21.6533455 C18.2444727,21.5689091 18.0183273,21.6391636 17.9125091,21.8223818 C17.7994909,22.0179818 17.8664182,22.2682364 18.0620727,22.3812545 C18.1837091,22.4515636 18.3167455,22.4849455 18.4482545,22.4849455 C18.7163455,22.4848909 18.9777273,22.3459091 19.1217273,22.0974 L27.8238,7.02518182 C28.0363091,6.65536364 27.909,6.18054545 27.5394545,5.96634545 Z M0.818181818,18.3590727 L3.23907273,18.3590727 L3.23907273,18.9542727 L0.818181818,18.9542727 L0.818181818,18.3590727 Z" id="Shape"></path>
                <path d="M23.5066364,6.50029091 L19.0192909,3.90954545 C18.8235818,3.79658182 18.5734364,3.86356364 18.4604727,4.05927273 C18.3475091,4.25492727 18.4145455,4.50512727 18.6102,4.61809091 L23.0975455,7.20883636 C23.1619636,7.24603636 23.2323273,7.26370909 23.3017091,7.26370909 C23.4430909,7.26370909 23.5806,7.19034545 23.6563636,7.05910909 C23.7693273,6.86345455 23.7022909,6.61325455 23.5066364,6.50029091 Z" id="Path"></path>
                <path d="M0.585763636,6.40396364 L1.61945455,6.40396364 L1.61945455,9.43630909 C1.61945455,9.66229091 1.80261818,9.8454 2.02854545,9.8454 C2.25447273,9.8454 2.43763636,9.66229091 2.43763636,9.43630909 L2.43763636,6.40396364 L3.47149091,6.40396364 C3.79445455,6.40396364 4.05725455,6.14121818 4.05725455,5.8182 L4.05725455,4.75810909 C4.05725455,4.43509091 3.79450909,4.17234545 3.47149091,4.17234545 L2.43763636,4.17234545 L2.43763636,3.31898182 C2.43763636,2.8272 2.83794545,2.42716364 3.33,2.42716364 L6.92454545,2.42716364 C7.15047273,2.42716364 7.33363636,2.24405455 7.33363636,2.01807273 C7.33363636,1.79209091 7.15047273,1.60898182 6.92454545,1.60898182 L3.33,1.60898182 C2.3868,1.60898182 1.61945455,2.37605455 1.61945455,3.31898182 L1.61945455,4.17234545 L0.585763636,4.17234545 C0.262745455,4.17234545 0,4.43509091 0,4.75810909 L0,5.8182 C0,6.14121818 0.262745455,6.40396364 0.585763636,6.40396364 Z M0.818181818,4.99052727 L3.23907273,4.99052727 L3.23907273,5.58578182 L0.818181818,5.58578182 L0.818181818,4.99052727 Z" id="Shape"></path>
                <path d="M0.585763636,13.0881818 L1.61950909,13.0881818 L1.61950909,16.3202182 C1.61950909,16.5462 1.80267273,16.7293091 2.0286,16.7293091 C2.25452727,16.7293091 2.43769091,16.5462 2.43769091,16.3202182 L2.43769091,13.0881818 L3.47149091,13.0881818 C3.79445455,13.0881818 4.05725455,12.8254364 4.05725455,12.5024727 L4.05725455,11.4423818 C4.05725455,11.1193636 3.79450909,10.8566182 3.47149091,10.8566182 L0.585763636,10.8566182 C0.262745455,10.8566182 0,11.1193636 0,11.4423818 L0,12.5024727 C0,12.8254364 0.262745455,13.0881818 0.585763636,13.0881818 Z M0.818181818,11.6748 L3.23907273,11.6748 L3.23907273,12.27 L0.818181818,12.27 L0.818181818,11.6748 Z" id="Shape"></path>
                <path d="M5.65249091,6.08781818 L5.65249091,8.21389091 C5.65249091,8.60181818 5.96809091,8.91741818 6.35601818,8.91741818 L12.3835091,8.91741818 C12.7714364,8.91741818 13.0870364,8.60181818 13.0870364,8.21389091 L13.0870364,6.08781818 C13.0870364,5.69989091 12.7714364,5.38429091 12.3835091,5.38429091 L6.35601818,5.38429091 C5.96809091,5.38429091 5.65249091,5.69989091 5.65249091,6.08781818 Z M6.47067273,6.20247273 L12.2689091,6.20247273 L12.2689091,8.09923636 L6.47067273,8.09923636 L6.47067273,6.20247273 Z" id="Shape"></path>
            </g>
        </g>
    </g>
</svg>