<?xml version="1.0" encoding="UTF-8"?>
<svg width="25px" height="24px" viewBox="0 0 25 24" version="1.1" xmlns="http://www.w3.org/2000/svg" xmlns:xlink="http://www.w3.org/1999/xlink">
    <!-- Generator: Sketch 55 (78076) - https://sketchapp.com -->
    <title>location</title>
    <desc>Created with Sketch.</desc>
    <g id="Page-1" stroke="none" stroke-width="1" fill="none" fill-rule="evenodd">
        <g id="Home" transform="translate(-305.000000, -444.000000)" fill="#012C3D" fill-rule="nonzero">
            <g id="location" transform="translate(305.000000, 444.000000)">
                <path d="M7.9987619,16.4987143 C9.00285714,17.9144286 10.0053333,19.180619 10.6697143,19.9961429 C10.7664286,20.1148095 10.8570476,20.2249048 10.9448095,20.3309524 L8.93990476,20.3309524 C8.71547619,20.3309524 8.53357143,20.5128571 8.53357143,20.7372857 C8.53357143,20.9617143 8.71547619,21.143619 8.93990476,21.143619 L15.4414286,21.143619 C15.6658571,21.143619 15.8477619,20.9617143 15.8477619,20.7372857 C15.8477619,20.5128571 15.6658571,20.3309524 15.4414286,20.3309524 L13.4365238,20.3309524 C13.5242857,20.2249048 13.6149048,20.1147619 13.7120476,19.9961429 C14.376,19.1834286 15.3780952,17.9144286 16.3825714,16.4987143 C17.3791905,15.1222857 18.2762381,13.6764762 19.0669048,12.1723333 C19.8966667,10.5428571 20.3176667,9.19014286 20.3176667,8.15152381 C20.3204286,5.99338095 19.4640476,3.92290476 17.9376667,2.39719048 C17.8357143,2.29147619 17.6846667,2.249 17.5425714,2.28609524 C17.4004762,2.32319048 17.2894286,2.43404762 17.2521429,2.57609524 C17.2148571,2.71814286 17.2570952,2.8692381 17.3626667,2.97133333 C18.7365714,4.34485714 19.507381,6.20871429 19.5049524,8.15147619 C19.5049524,9.06090476 19.1140476,10.2896667 18.3428095,11.8033333 C17.57,13.272619 16.6932857,14.6849048 15.7194286,16.029381 C14.7287619,17.4268095 13.7384762,18.6787619 13.0822381,19.4833333 C12.8640476,19.7507143 12.6677619,19.9871905 12.5003333,20.1871429 C12.4221905,20.276381 12.3093333,20.3275238 12.1907143,20.3275238 C12.0720952,20.3275238 11.9592381,20.2763333 11.8810952,20.1871429 C11.7136667,19.9872381 11.5174286,19.7507143 11.2991905,19.4833333 C10.6429524,18.6791905 9.65266667,17.4271905 8.662,16.029381 C7.68814286,14.6849048 6.81142857,13.272619 6.03861905,11.8033333 C5.26657143,10.2896667 4.87647619,9.06090476 4.87647619,8.15147619 C4.8762381,5.20819048 6.63642857,2.55019048 9.34633333,1.40161905 C11.1671905,0.638095238 13.2184286,0.638095238 15.0392857,1.40161905 C15.173,1.45828571 15.3267619,1.43938095 15.4427143,1.35190476 C15.5586667,1.26447619 15.6191429,1.12180952 15.601381,0.977666667 C15.583619,0.83352381 15.4903333,0.709809524 15.356619,0.653142857 C11.218619,-1.09219048 6.44919048,0.846571429 4.70257143,4.984 C4.279,5.98619048 4.0617619,7.06347619 4.06380952,8.15147619 C4.06380952,9.19009524 4.48480952,10.5428571 5.31457143,12.1743333 C6.10514286,13.6778095 7.0022381,15.1229524 7.9987619,16.4987143 Z" id="Path"></path>
                <path d="M12.190619,4.48338095 C12.4150476,4.48338095 12.5969524,4.30147619 12.5969524,4.07704762 C12.5969524,3.85261905 12.4150476,3.67071429 12.190619,3.67071429 C10.2520476,3.67066667 8.58338095,5.04009524 8.20514286,6.94142857 C7.82690476,8.8427619 8.84447619,10.7464762 10.6354762,11.488381 C12.4264762,12.2302857 14.4921429,11.6036667 15.5691905,9.99180952 C16.6462381,8.37995238 16.4346667,6.23171429 15.0639048,4.86090476 C14.9618571,4.75528571 14.8108095,4.71290476 14.6687143,4.75009524 C14.5266667,4.78728571 14.4157143,4.8982381 14.3785238,5.04028571 C14.3413333,5.18238095 14.3837143,5.33342857 14.4893333,5.43547619 C15.586,6.53209524 15.7552857,8.25061905 14.8937143,9.54014286 C14.0321429,10.8296667 12.379619,11.331 10.9468095,10.7375714 C9.514,10.1441429 8.69990476,8.62119048 9.00238095,7.10009524 C9.30485714,5.579 10.6397619,4.48342857 12.190619,4.48338095 Z" id="Path"></path>
                <path d="M24.2279048,22.1884286 L21.7288571,17.7185714 C21.5029048,17.3214286 21.0800952,17.0773333 20.6231905,17.0801905 L17.7271429,17.0801905 C17.5027143,17.0801905 17.3208095,17.2620952 17.3208095,17.4865238 C17.3208095,17.7109524 17.5027143,17.8928571 17.7271429,17.8928571 L20.6231905,17.8928571 C20.7858571,17.8897143 20.937619,17.9745238 21.0201905,18.1147143 L23.5184286,22.5845714 C23.5864762,22.7008571 23.5850476,22.8450952 23.5147619,22.9600476 C23.4317619,23.0971905 23.2816667,23.1793333 23.1214286,23.1754286 L1.25985714,23.1754286 C1.0997619,23.1792381 0.949857143,23.0970476 0.866904762,22.9600476 C0.796619048,22.8450952 0.795238095,22.7008571 0.863238095,22.5845714 L3.36147619,18.1147143 C3.44390476,17.9745714 3.59552381,17.8897619 3.75804762,17.8928571 L6.65409524,17.8928571 C6.87852381,17.8928571 7.06042857,17.7109524 7.06042857,17.4865238 C7.06042857,17.2620952 6.87852381,17.0801905 6.65409524,17.0801905 L3.75809524,17.0801905 C3.30095238,17.0771905 2.87780952,17.3212857 2.65161905,17.7185714 L0.152952381,22.1884286 C-0.0553809524,22.5564286 -0.0505714286,23.0078571 0.165571429,23.3713333 C0.393285714,23.758381 0.810857143,23.9937619 1.25985714,23.9881905 L23.1214286,23.9881905 C23.5702857,23.993619 23.9877143,23.7582857 24.2153333,23.3713333 C24.4314762,23.0078095 24.4362857,22.5564286 24.2279048,22.1884286 Z" id="Path"></path>
                <path d="M19.9112857,19.1119524 L18.2859048,19.1119524 C18.2056667,19.1120952 18.1272381,19.1358095 18.060381,19.1802381 L16.8413333,19.9929524 C16.654619,20.1175238 16.6042381,20.3698571 16.7287619,20.5565714 C16.8533333,20.7432857 17.1056667,20.7936667 17.292381,20.6691429 L18.4078095,19.9247143 L19.9112857,19.9247143 C20.1357143,19.9247143 20.317619,19.7427619 20.317619,19.518381 C20.317619,19.2938571 20.1357143,19.1119524 19.9112857,19.1119524 Z" id="Path"></path>
                <path d="M17.4731905,21.956381 C17.4731905,22.1808095 17.6550952,22.3627143 17.8795238,22.3627143 L21.1303333,22.3627143 C21.3547619,22.3627143 21.5366667,22.1808095 21.5366667,21.956381 C21.5366667,21.7319524 21.3547619,21.5500476 21.1303333,21.5500476 L17.8795238,21.5500476 C17.6550952,21.5500476 17.4731905,21.7319524 17.4731905,21.956381 Z" id="Path"></path>
                <path d="M7.31442857,20.7373333 C7.49357143,20.7375714 7.65171429,20.6204286 7.7037619,20.449 C7.75580952,20.2775714 7.68942857,20.0922857 7.54038095,19.9929048 L6.32133333,19.1801905 C6.25438095,19.1357143 6.1757619,19.1119524 6.09538095,19.1119048 L4.47,19.1119048 C4.24557143,19.1119048 4.06366667,19.2938571 4.06366667,19.5182381 C4.06366667,19.7426667 4.24561905,19.9245714 4.47,19.9245714 L5.97347619,19.9245714 L7.09014286,20.669 C7.15657143,20.713381 7.23461905,20.7371429 7.31442857,20.7373333 Z" id="Path"></path>
                <path d="M3.25095238,21.5500476 C3.02652381,21.5500476 2.84461905,21.7319524 2.84461905,21.956381 C2.84461905,22.1808095 3.02652381,22.3627143 3.25095238,22.3627143 L6.5017619,22.3627143 C6.72619048,22.3627143 6.90809524,22.1808095 6.90809524,21.956381 C6.90809524,21.7319524 6.72619048,21.5500476 6.5017619,21.5500476 L3.25095238,21.5500476 Z" id="Path"></path>
            </g>
        </g>
    </g>
</svg>