<?xml version="1.0" encoding="UTF-8"?>
<svg width="24px" height="24px" viewBox="0 0 24 24" version="1.1" xmlns="http://www.w3.org/2000/svg" xmlns:xlink="http://www.w3.org/1999/xlink">
    <!-- Generator: Sketch 55 (78076) - https://sketchapp.com -->
    <title>presentation (1) copy</title>
    <desc>Created with Sketch.</desc>
    <g id="Page-1" stroke="none" stroke-width="1" fill="none" fill-rule="evenodd">
        <g id="Home" transform="translate(-305.000000, -300.000000)" fill="#012C3D" fill-rule="nonzero">
            <g id="presentation-(1)-copy" transform="translate(305.000000, 300.000000)">
                <path d="M3.75,6.75 C3.75,7.990875 4.759125,9 6,9 C7.240875,9 8.25,7.990875 8.25,6.75 C8.25,5.509125 7.240875,4.5 6,4.5 C4.759125,4.5 3.75,5.509125 3.75,6.75 Z M7.5,6.75 C7.5,7.57725 6.82725,8.25 6,8.25 C5.17275,8.25 4.5,7.57725 4.5,6.75 C4.5,5.92275 5.17275,5.25 6,5.25 C6.82725,5.25 7.5,5.92275 7.5,6.75 Z" id="Shape"></path>
                <path d="M11.515125,10.765125 L14.140125,8.140125 C14.28675,7.9935 14.28675,7.7565 14.140125,7.609875 L13.015125,6.484875 C12.876375,6.346125 12.654375,6.337875 12.505875,6.465375 L9.924375,8.677875 L7.423125,9.75 L3,9.75 C2.891625,9.75 2.78925,9.7965 2.718,9.87825 L0.093,12.87825 C0.00525,12.978375 -0.022875,13.1175 0.0195,13.243875 L1.1445,16.618875 C1.179,16.721625 1.25625,16.804875 1.35675,16.8465 C1.45725,16.887375 1.570125,16.884 1.668,16.835625 L3.168,16.085625 C3.29625,16.0215 3.375,15.892875 3.375,15.757125 L3.375,22.125 C3.375,23.158875 4.216125,24 5.25,24 L8.25,24 C8.457,24 8.625,23.832375 8.625,23.625 L8.625,12.23175 L11.417625,10.83525 C11.454,10.817625 11.486625,10.793625 11.515125,10.765125 Z M3.375,15.7425 C3.375,15.69825 3.365625,15.654 3.348375,15.6105 L2.679375,13.93875 L3.375,13.069125 L3.375,15.7425 Z M8.082375,11.664375 C7.95525,11.728125 7.875,11.857875 7.875,12 L7.875,23.25 L6.375,23.25 L6.375,17.25 C6.375,17.042625 6.207,16.875 6,16.875 C5.793,16.875 5.625,17.042625 5.625,17.25 L5.625,23.25 L5.25,23.25 C4.62975,23.25 4.125,22.74525 4.125,22.125 L4.125,12 C4.125,11.840625 4.0245,11.698875 3.874125,11.646375 C3.724125,11.5935 3.5565,11.6415 3.457125,11.765625 L1.957125,13.640625 C1.87275,13.746 1.85175,13.888875 1.901625,14.014125 L2.52375,15.568875 L1.719,15.97125 L0.79875,13.2105 L3.17025,10.5 L7.5,10.5 C7.550625,10.5 7.60125,10.489875 7.64775,10.469625 L10.27275,9.344625 C10.307625,9.329625 10.34025,9.309375 10.369125,9.284625 L12.7305,7.261125 L13.34475,7.875 L11.028,10.19175 L8.082375,11.664375 Z" id="Shape"></path>
                <polygon id="Path" points="5.25 12 5.625 12 5.625 15 6.375 15 6.375 12 6.75 12 6.75 11.25 5.25 11.25"></polygon>
                <path d="M24,18.75 C24,17.509125 22.990875,16.5 21.75,16.5 C20.96775,16.5 20.2785,16.901625 19.875,17.50875 C19.4715,16.90125 18.78225,16.5 18,16.5 C17.21775,16.5 16.5285,16.901625 16.125,17.50875 C15.7215,16.90125 15.03225,16.5 14.25,16.5 C13.009125,16.5 12,17.509125 12,18.75 C12,19.53225 12.401625,20.2215 13.00875,20.625 C12.40125,21.0285 12,21.71775 12,22.5 L12,24 L12.75,24 L12.75,22.5 C12.75,21.67275 13.42275,21 14.25,21 C15.07725,21 15.75,21.67275 15.75,22.5 L15.75,24 L16.5,24 L16.5,22.5 C16.5,21.67275 17.17275,21 18,21 C18.82725,21 19.5,21.67275 19.5,22.5 L19.5,24 L20.25,24 L20.25,22.5 C20.25,21.67275 20.92275,21 21.75,21 C22.57725,21 23.25,21.67275 23.25,22.5 L23.25,24 L24,24 L24,22.5 C24,21.71775 23.598375,21.0285 22.99125,20.625 C23.598375,20.2215 24,19.53225 24,18.75 Z M18,17.25 C18.82725,17.25 19.5,17.92275 19.5,18.75 C19.5,19.57725 18.82725,20.25 18,20.25 C17.17275,20.25 16.5,19.57725 16.5,18.75 C16.5,17.92275 17.173125,17.25 18,17.25 Z M12.75,18.75 C12.75,17.92275 13.42275,17.25 14.25,17.25 C15.07725,17.25 15.75,17.92275 15.75,18.75 C15.75,19.57725 15.07725,20.25 14.25,20.25 C13.42275,20.25 12.75,19.57725 12.75,18.75 Z M16.125,21.25875 C15.958125,21.0075 15.7425,20.791875 15.49125,20.625 C15.7425,20.458125 15.958125,20.2425 16.125,19.99125 C16.291875,20.2425 16.5075,20.458125 16.75875,20.625 C16.5075,20.791875 16.291875,21.0075 16.125,21.25875 Z M19.875,21.25875 C19.708125,21.0075 19.4925,20.791875 19.24125,20.625 C19.4925,20.458125 19.708125,20.2425 19.875,19.99125 C20.041875,20.2425 20.2575,20.458125 20.50875,20.625 C20.2575,20.791875 20.041875,21.0075 19.875,21.25875 Z M21.75,20.25 C20.92275,20.25 20.25,19.57725 20.25,18.75 C20.25,17.92275 20.92275,17.25 21.75,17.25 C22.57725,17.25 23.25,17.92275 23.25,18.75 C23.25,19.57725 22.57725,20.25 21.75,20.25 Z" id="Shape"></path>
                <path d="M23.625,0 L9.75,0 C9.543,0 9.375,0.167625 9.375,0.375 L9.375,7.5 L10.125,7.5 L10.125,0.75 L23.25,0.75 L23.25,10.875 C23.25,11.49525 22.74525,12 22.125,12 L10.5,12 L10.5,12.75 L22.125,12.75 C23.158875,12.75 24,11.908875 24,10.875 L24,0.375 C24,0.167625 23.832,0 23.625,0 Z" id="Path"></path>
                <path d="M15.75,1.875 L12,1.875 C11.793,1.875 11.625,2.042625 11.625,2.25 L11.625,3.75 C11.625,3.957375 11.793,4.125 12,4.125 L15.75,4.125 C15.957,4.125 16.125,3.957375 16.125,3.75 L16.125,3.375 L17.25,3.375 L17.25,3.75 C17.25,3.957375 17.418,4.125 17.625,4.125 L19.125,4.125 L19.125,5.25 L17.625,5.25 C17.418,5.25 17.25,5.417625 17.25,5.625 L17.25,7.125 C17.25,7.332375 17.418,7.5 17.625,7.5 L19.125,7.5 L19.125,8.625 L17.625,8.625 C17.418,8.625 17.25,8.792625 17.25,9 L17.25,10.5 C17.25,10.707375 17.418,10.875 17.625,10.875 L21.375,10.875 C21.582,10.875 21.75,10.707375 21.75,10.5 L21.75,9 C21.75,8.792625 21.582,8.625 21.375,8.625 L19.875,8.625 L19.875,7.5 L21.375,7.5 C21.582,7.5 21.75,7.332375 21.75,7.125 L21.75,5.625 C21.75,5.417625 21.582,5.25 21.375,5.25 L19.875,5.25 L19.875,4.125 L21.375,4.125 C21.582,4.125 21.75,3.957375 21.75,3.75 L21.75,2.25 C21.75,2.042625 21.582,1.875 21.375,1.875 L17.625,1.875 C17.418,1.875 17.25,2.042625 17.25,2.25 L17.25,2.625 L16.125,2.625 L16.125,2.25 C16.125,2.042625 15.957,1.875 15.75,1.875 Z M15.375,3.375 L12.375,3.375 L12.375,2.625 L15.375,2.625 L15.375,3.375 Z M21,10.125 L18,10.125 L18,9.375 L21,9.375 L21,10.125 Z M21,6.75 L18,6.75 L18,6 L21,6 L21,6.75 Z M18,2.625 L21,2.625 L21,3.375 L18,3.375 L18,2.625 Z" id="Shape"></path>
                <rect id="Rectangle" x="12" y="4.875" width="4.125" height="1"></rect>
                <rect id="Rectangle" x="14.625" y="6.375" width="1.5" height="1"></rect>
                <rect id="Rectangle" x="15" y="7.875" width="1.125" height="1"></rect>
                <rect id="Rectangle" x="13.875" y="9.375" width="2.25" height="1"></rect>
                <path d="M1.5,3.75 L1.6875,3.75 L2.7,5.1 C2.772375,5.196 2.884125,5.25 3,5.25 C3.039375,5.25 3.0795,5.243625 3.1185,5.2305 C3.271875,5.1795 3.375,5.036625 3.375,4.875 L3.375,3.75 L5.625,3.75 C6.24525,3.75 6.75,3.24525 6.75,2.625 L6.75,1.125 C6.75,0.50475 6.24525,0 5.625,0 L1.5,0 C0.87975,0 0.375,0.50475 0.375,1.125 L0.375,2.625 C0.375,3.24525 0.87975,3.75 1.5,3.75 Z M1.125,1.125 C1.125,0.918 1.293375,0.75 1.5,0.75 L5.625,0.75 C5.831625,0.75 6,0.918 6,1.125 L6,2.625 C6,2.832 5.831625,3 5.625,3 L3,3 C2.793,3 2.625,3.167625 2.625,3.375 L2.625,3.75 L2.175,3.15 C2.104125,3.0555 1.993125,3 1.875,3 L1.5,3 C1.293375,3 1.125,2.832 1.125,2.625 L1.125,1.125 Z" id="Shape"></path>
                <rect id="Rectangle" x="1.875" y="1.5" width="3.375" height="1"></rect>
            </g>
        </g>
    </g>
</svg>