<?xml version="1.0" encoding="UTF-8"?>
<svg width="27px" height="24px" viewBox="0 0 27 24" version="1.1" xmlns="http://www.w3.org/2000/svg" xmlns:xlink="http://www.w3.org/1999/xlink">
    <!-- Generator: Sketch 55 (78076) - https://sketchapp.com -->
    <title>task</title>
    <desc>Created with Sketch.</desc>
    <g id="Page-1" stroke="none" stroke-width="1" fill="none" fill-rule="evenodd">
        <g id="Home" transform="translate(-303.000000, -492.000000)" fill="#012C3D" fill-rule="nonzero">
            <g id="task" transform="translate(303.000000, 492.000000)">
                <path d="M26.4570526,4.28968421 L24.0991579,2.82178947 C24.0695263,2.80336842 24.0376316,2.78936842 24.0045263,2.77936842 C24.0038421,2.77915789 24.0032105,2.77884211 24.0025789,2.77868421 C23.9901053,2.775 23.9773684,2.77252632 23.9646316,2.77010526 C23.9598421,2.76921053 23.9552105,2.76784211 23.9504211,2.76710526 C23.9393158,2.76542105 23.9281053,2.76484211 23.9168421,2.76405263 C23.9102105,2.76357895 23.9036842,2.76278947 23.8970526,2.76268421 C23.8948947,2.76263158 23.8927368,2.76221053 23.8905789,2.76221053 L22.1270526,2.76221053 C21.9573158,1.87942105 21.1794737,1.21031579 20.2478947,1.21031579 L19.55,1.21031579 L19.55,0.440578947 C19.55,0.222578947 19.3732632,0.0458421053 19.1552632,0.0458421053 C18.9372632,0.0458421053 18.7605263,0.222578947 18.7605263,0.440578947 L18.7605263,1.21026316 L15.5454211,1.21026316 L15.5454211,0.440578947 C15.5454211,0.222578947 15.3686842,0.0458421053 15.1506842,0.0458421053 C14.9326842,0.0458421053 14.7559474,0.222578947 14.7559474,0.440578947 L14.7559474,1.21026316 L11.5408421,1.21026316 L11.5408421,0.440578947 C11.5408421,0.222578947 11.3641053,0.0458421053 11.1461053,0.0458421053 C10.9281053,0.0458421053 10.7513684,0.222578947 10.7513684,0.440578947 L10.7513684,1.21026316 L7.53626316,1.21026316 L7.53626316,0.440578947 C7.53626316,0.222578947 7.35952632,0.0458421053 7.14152632,0.0458421053 C6.92352632,0.0458421053 6.74678947,0.222578947 6.74678947,0.440578947 L6.74678947,1.21026316 L4.52968421,1.21026316 C4.31168421,1.21026316 4.13494737,1.387 4.13494737,1.605 L4.13494737,2.76215789 L1.05631579,2.76215789 C0.635789474,2.76215789 0.272947368,3.00994737 0.103105263,3.36668421 C0.0376842105,3.50394737 0,3.65689474 0,3.81878947 L0,4.10752632 C0,4.32552632 0.176736842,4.50226316 0.394736842,4.50226316 C0.612736842,4.50226316 0.789473684,4.32552632 0.789473684,4.10752632 L0.789473684,3.819 C0.789473684,3.77647368 0.800368421,3.73673684 0.818052632,3.70105263 C0.861736842,3.61305263 0.951684211,3.55184211 1.05642105,3.55184211 L2.19405263,3.55184211 C2.17178947,3.63715789 2.15989474,3.72663158 2.15989474,3.81878947 L2.15989474,6.52684211 C2.15989474,6.619 2.17173684,6.70842105 2.19405263,6.79373684 L1.05631579,6.79373684 C1.01952632,6.79373684 0.984473684,6.78626316 0.952578947,6.77273684 C0.951736842,6.77236842 0.951,6.77178947 0.950157895,6.77142105 C0.935157895,6.76489474 0.920736842,6.75721053 0.907315789,6.74810526 C0.836263158,6.70010526 0.789473684,6.61884211 0.789473684,6.52684211 L0.789473684,5.68647368 C0.789473684,5.46847368 0.612736842,5.29173684 0.394736842,5.29173684 C0.176736842,5.29173684 0,5.46847368 0,5.68647368 L0,6.52684211 L0,6.52684211 L0,6.52684211 C0,6.89089474 0.185105263,7.21252632 0.466157895,7.40252632 C0.488684211,7.41773684 0.512263158,7.43147368 0.535947368,7.445 C0.541789474,7.44831579 0.547263158,7.45226316 0.553210526,7.45547368 C0.702894737,7.53689474 0.874368421,7.58321053 1.05642105,7.58321053 L3.21636842,7.58321053 C3.21673684,7.58321053 3.21705263,7.58315789 3.21736842,7.58315789 L4.13494737,7.58315789 L4.13494737,17.7248421 C4.13494737,17.9428421 4.31168421,18.1195789 4.52968421,18.1195789 C4.74768421,18.1195789 4.92442105,17.9428421 4.92442105,17.7248421 L4.92442105,1.99973684 L6.74678947,1.99973684 L6.74678947,2.76942105 C6.74678947,2.98742105 6.92352632,3.16415789 7.14152632,3.16415789 C7.35952632,3.16415789 7.53626316,2.98742105 7.53626316,2.76942105 L7.53626316,1.99973684 L10.7513684,1.99973684 L10.7513684,2.76942105 C10.7513684,2.98742105 10.9281053,3.16415789 11.1461053,3.16415789 C11.3641053,3.16415789 11.5408421,2.98742105 11.5408421,2.76942105 L11.5408421,1.99973684 L14.7559474,1.99973684 L14.7559474,2.76942105 C14.7559474,2.98742105 14.9326842,3.16415789 15.1506842,3.16415789 C15.3686842,3.16415789 15.5454211,2.98742105 15.5454211,2.76942105 L15.5454211,1.99973684 L18.7605263,1.99973684 L18.7605263,2.76942105 C18.7605263,2.98742105 18.9372632,3.16415789 19.1552632,3.16415789 C19.3732632,3.16415789 19.55,2.98742105 19.55,2.76942105 L19.55,1.99973684 L20.2477895,1.99973684 C20.8678421,1.99973684 21.3722632,2.50415789 21.3722632,3.12421053 L21.3722632,3.15284211 C21.3722632,3.15421053 21.3720526,3.15552632 21.3720526,3.15689474 C21.3720526,3.15826316 21.3722632,3.15957895 21.3722632,3.16094737 L21.3722632,7.18436842 C21.3722632,7.18573684 21.3720526,7.18705263 21.3720526,7.18842105 C21.3720526,7.18978947 21.3722632,7.19110526 21.3722632,7.19247368 L21.3722632,9.63384211 C21.3722632,9.85184211 21.549,10.0285789 21.767,10.0285789 C21.985,10.0285789 22.1617368,9.85184211 22.1617368,9.63384211 L22.1617368,7.58310526 L23.8894737,7.58310526 C23.8897368,7.58310526 23.89,7.58315789 23.8903158,7.58315789 C23.9086316,7.58315789 23.9269474,7.58184211 23.9451579,7.57931579 C23.9506842,7.57852632 23.956,7.57689474 23.9614211,7.57589474 C23.9738421,7.57363158 23.9862632,7.57152632 23.9984737,7.56805263 C24.01,7.56478947 24.0211053,7.56021053 24.0323158,7.55589474 C24.0381579,7.55363158 24.0441579,7.55205263 24.0498947,7.54952632 C24.0668421,7.54205263 24.0832632,7.53342105 24.0991053,7.52357895 L26.4570526,6.05615789 C26.7641579,5.86494737 26.9475263,5.53473684 26.9474737,5.17289474 C26.9474737,4.81105263 26.7641579,4.48089474 26.4570526,4.28968421 Z M3.21584211,6.79373684 C3.06889474,6.79347368 2.94936842,6.67384211 2.94936842,6.52684211 L2.94936842,3.81878947 C2.94936842,3.67157895 3.06910526,3.55184211 3.21631579,3.55184211 C3.21768421,3.55184211 3.219,3.55163158 3.22036842,3.55163158 L4.13489474,3.55163158 L4.13489474,6.79373684 L3.21584211,6.79373684 Z M26.1578947,5.17284211 C26.1578947,5.21473684 26.1463684,5.31931579 26.0396316,5.38578947 C26.0396316,5.38578947 26.0396316,5.38578947 26.0396316,5.38578947 L24.2851053,6.47789474 L24.2851053,3.86778947 L26.0396316,4.95989474 C26.1463684,5.02636842 26.1578947,5.13094737 26.1578947,5.17284211 Z M22.1617895,3.55163158 L23.4956316,3.55163158 L23.4956316,6.79373684 L22.1617895,6.79373684 L22.1617895,3.55163158 Z" id="Shape"></path>
                <path d="M21.7670526,10.8181579 C21.5490526,10.8181579 21.3723158,10.9948947 21.3723158,11.2128947 L21.3723158,18.8017368 L17.404,18.8017368 C17.186,18.8017368 17.0092632,18.9784737 17.0092632,19.1964737 L17.0092632,23.1647895 L6.04894737,23.1647895 C5.42889474,23.1647895 4.92447368,22.6603684 4.92447368,22.0403158 L4.92447368,19.3038947 C4.92447368,19.0858947 4.74773684,18.9091579 4.52973684,18.9091579 C4.31173684,18.9091579 4.135,19.0858947 4.135,19.3038947 L4.135,22.0403158 C4.135,23.0956842 4.99357895,23.9542632 6.04894737,23.9542632 L17.404,23.9542632 C17.4056316,23.9542632 17.4072105,23.9540526 17.4087895,23.9540526 C17.4201053,23.9538947 17.4313684,23.9534737 17.4425789,23.9523684 C17.4486842,23.9517895 17.4546842,23.9505789 17.4607368,23.9496842 C17.4674211,23.9486842 17.4741053,23.948 17.4807368,23.9466842 C17.4871053,23.9454211 17.4933684,23.9435789 17.4996842,23.942 C17.5058421,23.9404737 17.5120526,23.9392105 17.5181053,23.9373684 C17.5240526,23.9355789 17.5298421,23.9332105 17.5356842,23.9311579 C17.5419474,23.9289474 17.5483158,23.9269474 17.5544737,23.9244211 C17.5596842,23.9222632 17.5646316,23.9196316 17.5697895,23.9172632 C17.5763684,23.9142105 17.5830526,23.9113684 17.5894737,23.9079474 C17.5943158,23.9053684 17.5988421,23.9023158 17.6035789,23.8995789 C17.61,23.8957895 17.6165263,23.8922632 17.6227368,23.8881053 C17.6280526,23.8845789 17.6330526,23.8805263 17.6382105,23.8766842 C17.6434737,23.8727895 17.6489474,23.8691579 17.6540526,23.8649474 C17.6641579,23.8566842 17.6738947,23.8478947 17.6832105,23.8385789 L22.0463158,19.4755263 C22.0464737,19.4753684 22.0466316,19.4751579 22.0467895,19.4749474 C22.059,19.4626842 22.07,19.4494737 22.0804211,19.4358421 C22.0831579,19.4322632 22.0858421,19.4286842 22.0884211,19.425 C22.0983158,19.4111053 22.1075789,19.3968947 22.1155263,19.3818947 C22.1160526,19.3808421 22.1164737,19.3797895 22.117,19.3787368 C22.1243684,19.3645789 22.1306316,19.3499474 22.1362632,19.335 C22.1378421,19.3307895 22.1393684,19.3265789 22.1407895,19.3223158 C22.1461579,19.3064211 22.1508947,19.2902632 22.1542105,19.2736842 C22.1543158,19.2730526 22.1543684,19.2724211 22.1544737,19.2717895 C22.1575789,19.2558421 22.1593684,19.2396316 22.1605263,19.2233158 C22.1608421,19.2186316 22.1610526,19.214 22.1612105,19.2092632 C22.1613684,19.2049474 22.1618421,19.2006842 22.1618421,19.1963684 L22.1618421,11.2128947 C22.1617895,10.9948947 21.9850526,10.8181579 21.7670526,10.8181579 Z M17.7986842,19.5912105 L20.8140526,19.5912105 L17.7986842,22.6065789 L17.7986842,19.5912105 L17.7986842,19.5912105 Z" id="Shape"></path>
                <path d="M7.95721053,7.72452632 C8.03426316,7.80157895 8.13531579,7.84015789 8.23631579,7.84015789 C8.33731579,7.84015789 8.43836842,7.80163158 8.51542105,7.72452632 L9.96842105,6.27152632 C10.1225789,6.11736842 10.1225789,5.86742105 9.96842105,5.71331579 C9.81426316,5.55915789 9.56431579,5.55915789 9.41021053,5.71331579 L8.23631579,6.88721053 L7.73473684,6.38563158 C7.58057895,6.23147368 7.33063158,6.23147368 7.17652632,6.38563158 C7.02236842,6.53978947 7.02236842,6.78973684 7.17652632,6.94384211 L7.95721053,7.72452632 Z" id="Path"></path>
                <path d="M13.0182632,6.18484211 L18.5483684,6.18484211 C18.7663684,6.18484211 18.9431053,6.00810526 18.9431053,5.79010526 C18.9431053,5.57210526 18.7663684,5.39536842 18.5483684,5.39536842 L13.0182632,5.39536842 C12.8002632,5.39536842 12.6235263,5.57210526 12.6235263,5.79010526 C12.6235263,6.00810526 12.8002632,6.18484211 13.0182632,6.18484211 Z" id="Path"></path>
                <path d="M13.0182632,8.04242105 L14.9700526,8.04242105 C15.1880526,8.04242105 15.3647895,7.86568421 15.3647895,7.64768421 C15.3647895,7.42968421 15.1880526,7.25294737 14.9700526,7.25294737 L13.0182632,7.25294737 C12.8002632,7.25294737 12.6235263,7.42968421 12.6235263,7.64768421 C12.6235263,7.86568421 12.8002632,8.04242105 13.0182632,8.04242105 Z" id="Path"></path>
                <path d="M7.17652632,12.4847368 L7.95721053,13.2654737 C8.03121053,13.3395263 8.13163158,13.3811053 8.23631579,13.3811053 C8.341,13.3811053 8.44142105,13.3395263 8.51542105,13.2654737 L9.96842105,11.8124737 C10.1225789,11.6583158 10.1225789,11.4083684 9.96842105,11.2542632 C9.81426316,11.1001053 9.56431579,11.1001053 9.41021053,11.2542632 L8.23631579,12.4281579 L7.73473684,11.9265263 C7.58057895,11.7723158 7.33063158,11.7723684 7.17652632,11.9265263 C7.02231579,12.0806316 7.02231579,12.3305789 7.17652632,12.4847368 Z" id="Path"></path>
                <path d="M13.0182632,11.7257895 L18.5483684,11.7257895 C18.7663684,11.7257895 18.9431053,11.5490526 18.9431053,11.3310526 C18.9431053,11.1130526 18.7663684,10.9363158 18.5483684,10.9363158 L13.0182632,10.9363158 C12.8002632,10.9363158 12.6235263,11.1130526 12.6235263,11.3310526 C12.6235263,11.5490526 12.8002632,11.7257895 13.0182632,11.7257895 Z" id="Path"></path>
                <path d="M13.0182632,13.5834211 L14.9700526,13.5834211 C15.1880526,13.5834211 15.3647895,13.4066842 15.3647895,13.1886842 C15.3647895,12.9706842 15.1880526,12.7939474 14.9700526,12.7939474 L13.0182632,12.7939474 C12.8002632,12.7939474 12.6235263,12.9706842 12.6235263,13.1886842 C12.6235263,13.4066842 12.8002632,13.5834211 13.0182632,13.5834211 Z" id="Path"></path>
                <path d="M13.0182632,17.2667368 L18.5483684,17.2667368 C18.7663684,17.2667368 18.9431053,17.09 18.9431053,16.872 C18.9431053,16.654 18.7663684,16.4772632 18.5483684,16.4772632 L13.0182632,16.4772632 C12.8002632,16.4772632 12.6235263,16.654 12.6235263,16.872 C12.6235263,17.09 12.8002632,17.2667368 13.0182632,17.2667368 Z" id="Path"></path>
                <path d="M13.0182632,19.1243684 L14.9700526,19.1243684 C15.1880526,19.1243684 15.3647895,18.9476316 15.3647895,18.7296316 C15.3647895,18.5116316 15.1880526,18.3348947 14.9700526,18.3348947 L13.0182632,18.3348947 C12.8002632,18.3348947 12.6235263,18.5116316 12.6235263,18.7296316 C12.6235263,18.9476316 12.8002632,19.1243684 13.0182632,19.1243684 Z" id="Path"></path>
                <path d="M8.57247368,19.5292632 C9.56736842,19.5292632 10.3768421,18.7198421 10.3768421,17.7248947 C10.3768421,16.7299474 9.56742105,15.9205263 8.57247368,15.9205263 C7.57752632,15.9205263 6.76810526,16.7299474 6.76810526,17.7248947 C6.76810526,18.7198421 7.57757895,19.5292632 8.57247368,19.5292632 Z M8.57247368,16.71 C9.13205263,16.71 9.58736842,17.1652632 9.58736842,17.7248947 C9.58736842,18.2845263 9.13210526,18.7397895 8.57247368,18.7397895 C8.01284211,18.7397895 7.55757895,18.2845263 7.55757895,17.7248947 C7.55757895,17.1652632 8.01289474,16.71 8.57247368,16.71 Z" id="Shape"></path>
            </g>
        </g>
    </g>
</svg>